<?xml version="1.0" encoding="utf-8"?>
<svg version="1.1" id="Layer_1" xmlns="http://www.w3.org/2000/svg" xmlns:xlink="http://www.w3.org/1999/xlink" x="0px" y="0px"
	 width="24" height="24" viewBox="0 0 24 24" style="enable-background:new 0 0 24 24;" xml:space="preserve">
<style type="text/css">
	.st0{fill:#FFFFFF;}
</style>
<title>Artboard 1</title>
<path class="st0" d="M22.1,0H1.9C0.8,0,0,0.9,0,2v20c0,1.1,0.8,2,1.9,2h20.2c1.1,0,1.9-0.9,1.9-2V2C24,0.9,23.2,0,22.1,0z M6.8,21.1
	H2.7V8.8h4.1V21.1z M5.1,7.1c-0.1,0-0.3,0-0.4,0C3.5,7.3,2.5,6.4,2.4,5.2C2.3,4.1,3.1,3,4.3,2.9c0.1,0,0.3,0,0.4,0
	C5.9,2.8,6.9,3.6,7,4.8C7.2,6,6.3,7,5.1,7.1z M17.5,21.1v-6.6c0-1.7-0.6-2.8-2.1-2.8c-0.9,0-1.8,0.6-2.1,1.5c-0.1,0.3-0.2,0.7-0.1,1
	v6.8H9c0,0,0.1-11.1,0-12.3h4.1v1.7c0.8-1.3,2.2-2.1,3.7-2c2.7,0,4.7,1.8,4.7,5.5l0,7H17.5z"/>
</svg>
