<?xml version="1.0" encoding="utf-8"?>
<!-- Generator: Adobe Illustrator 19.1.1, SVG Export Plug-In . SVG Version: 6.00 Build 0)  -->
<svg version="1.1" id="Layer_1" xmlns="http://www.w3.org/2000/svg" xmlns:xlink="http://www.w3.org/1999/xlink" width="150" height="28" viewBox="0 0 150 28" style="enable-background:new 0 0 150 28;" xml:space="preserve">
<style type="text/css">
	.st0{fill:#18335B;}
</style>
<path class="st0" d="M78.1,0.7C77.6,0.3,76.9,0,76.3,0c-1.3-0.1-2.5,0.8-2.7,2.1L70,19.6L56,1c-0.4-0.5-1.1-0.9-1.8-0.9
	c-1.3,0-2.4,0.9-2.6,2.2l-1.5,7.3l-3.4,15.8v0.3h-4.5l5-22.8c0.2-0.8-0.1-1.6-0.8-2.1c-0.4-0.4-0.9-0.6-1.4-0.6h-7.4
	c-0.9,0-1.8,0.4-2.2,1.3L31.6,8l-6.3,10.8l-2.9-17c0-1.1-1-1.9-2.1-1.9c-1,0-2,0.6-2.4,1.5L7.8,18.7L4.8,1.8C4.7,0.7,3.8-0.1,2.8,0
	C1.4-0.1,0.3,0.8,0,2.1v0.8l3.9,23.1C4,27.1,5,27.9,6.1,27.8c1,0,1.9-0.5,2.3-1.4L18.6,9.3l2.9,16.8c0.1,1.1,1.1,1.9,2.1,1.8
	c1,0,1.9-0.5,2.3-1.4L39.3,3.9l1-1.5h2.2l-5,22.8c-0.2,0.6-0.1,1.2,0.3,1.8c0.4,0.5,1.1,0.8,1.8,0.8h9.5c0.9,0,1.7-0.4,2.1-1.2
	c0,0,0-0.1,0.1-0.1l0.1-0.1c0.1-0.1,0.1-0.2,0.2-0.4c0.1-0.2,0.1-0.4,0.2-0.5l3.7-17.2l13.9,18.5c0.4,0.5,1.1,0.9,1.9,0.9
	c1.3,0,2.4-0.9,2.6-2.2l4.8-23.1C78.6,2,78.4,1.3,78.1,0.7z M147.4,4.1c-2.3-2.7-5.7-4.2-9.2-4.1h-11.8c-0.8,0-1.5,0.2-2.1,0.6
	l-0.1,0.1c-0.3,0.2-0.4,0.4-0.5,0.6v0.1c-0.1,0.3-0.2,0.4-0.3,0.7c-0.2,0.6-0.1,1.3,0.4,1.9s1.2,0.8,1.9,0.7h13.6
	c1.8,0.1,3.5,0.9,4.6,2.3c1.3,1.8,1.8,4.1,1.2,6.2c-1.1,5.3-6.5,9.7-11.7,9.7h-9.8l2-8.8c0.2-0.8-0.2-1.6-0.8-2.1h-0.1
	c-0.1-0.1-0.2-0.2-0.4-0.3c-0.4-0.2-0.7-0.3-1.1-0.3c-1.3,0-2.4,0.9-2.6,2.2l-2.5,11.4c-0.2,0.6-0.1,1.2,0.3,1.8
	c0.4,0.5,1.2,0.9,1.9,0.9H134c7.6-0.6,13.9-6.1,15.6-13.5C150.5,10.8,149.7,7,147.4,4.1L147.4,4.1z M119.3,0.8
	c-0.4-0.5-1.1-0.8-1.8-0.7h-15.2c-7.6,0.6-13.8,6-15.6,13.4c-0.9,3.6-0.1,7.3,2.2,10.2c2.3,2.8,5.7,4.3,9.3,4.1h14
	c1.3,0,2.4-0.9,2.6-2.2l2.1-9.8l0.4-1.6c0.2-0.6,0.1-1.3-0.4-1.9c-0.4-0.5-1.1-0.8-1.8-0.7h-11.1c-1.3-0.1-2.4,0.9-2.7,2.1
	c-0.2,0.6-0.1,1.3,0.4,1.9c0.4,0.5,1.1,0.8,1.8,0.7h8.4l-1.6,6.9H97.3c-1.8-0.1-3.5-1-4.6-2.3c-1.3-1.8-1.8-4.1-1.2-6.2
	c1.2-5.3,6.5-9.6,11.7-9.6h13.7c1.3,0.1,2.5-0.9,2.7-2.1C119.8,2.1,119.7,1.3,119.3,0.8z"/>
</svg>
