<?xml version="1.0" encoding="utf-8"?>

<svg xmlns="http://www.w3.org/2000/svg" viewBox="-221 371 157.7 14.8" width="157.7" height="14.8">
	<style type="text/css">
		.st0{fill:#19315B;}
	</style>
	<path d="M-213.4 373c-.5-.7-1.4-1.1-2.3-1-1.4-.1-2.7 1-2.8 2.4v.1c0 .9.7 1.3 1.6 1.5l1.1.2c1.7.4 2.4 1.2 2.4 2.7 0 2.2-1.9 3.4-4.2 3.4-1.3.1-2.6-.5-3.5-1.5l.9-.7c.6.9 1.6 1.3 2.7 1.3 1.6 0 3-1 3-2.3 0-1.2-.7-1.5-1.6-1.7l-1-.3c-1.1-.3-2.4-.9-2.4-2.5s1.2-3.5 4-3.5c1.1-.1 2.3.4 3 1.3l-.9.6zm2.4 9.3h-1.1l1.6-7.8h1.1l-1.6 7.8zm2-10h-1.2l.2-1.1h1.3l-.3 1.1zm12.1 5.1l-1 4.9h-1.1l1-4.8c0-.2.1-.5.1-.7.1-.7-.5-1.3-1.2-1.4h-.2c-1.2 0-2.2.9-2.3 2.1l-1 4.8h-1.1l1-4.8c.1-.2.1-.5.1-.7.1-.7-.5-1.3-1.2-1.4h-.2c-1.2 0-2.2.9-2.3 2.1l-1 4.8h-1.1l1.5-7.8h1.1l-.2.9c.6-.7 1.4-1 2.3-1 .9 0 1.6.5 1.9 1.4.6-.9 1.6-1.4 2.7-1.3 1.1-.1 2.1.8 2.2 1.9v1zm8 1c-.1 1.2-.6 2.3-1.3 3.2-.5.6-1.3.9-2.1.8-.8.1-1.6-.4-1.9-1.1l-.9 4.4h-1.1l2.2-11.2h1.1l-.2.9c.5-.7 1.3-1 2.2-1 1.7 0 2.2 1.1 2.2 2.4 0 .6-.1 1.1-.2 1.6zm-2.3-3c-1.6 0-2.1 1.4-2.4 3-.1.5-.2.9-.2 1.4 0 .9.3 1.6 1.4 1.6 1.6 0 2.1-1.4 2.4-3 .1-.5.2-.9.2-1.4 0-.8-.3-1.6-1.4-1.6zm5.2 4.8c-.1.2-.1.4-.1.6 0 .4.2.6.8.6h.7l-.2 1h-.8c-.8.1-1.5-.5-1.6-1.3v-.2c0-.2 0-.4.1-.6l1.8-9.1h1.1l-1.8 9zm4.1 4c-.2.3-.4.7-.7.9-.4.4-1 .6-1.6.5h-.5l.2-1h.3c.7 0 1-.3 1.4-1l.8-1.5-1.1-7.6h1.1l.8 6.2 3.2-6.3h1.2l-5.1 9.8zm15.2-7.1l-1 5.2h-1.1l.2-.8c-.6.6-1.4.9-2.2.9-1.2 0-2.3-.5-2.3-1.9 0-.7.2-1.3.7-1.8.6-.6 1.4-.9 2.3-.8h2.3l.2-.8c0-.2.1-.3.1-.5 0-.8-.6-1.1-1.6-1.1-.8 0-1.6.3-2.1.9l-.7-.8c.7-.8 1.8-1.2 2.8-1.1 1.1 0 2.6.3 2.6 2-.2.2-.2.4-.2.6zm-3.5 1.7c-1.2 0-2 .6-2 1.8 0 .7.4 1 1.5 1 .6 0 1.2-.2 1.7-.6.3-.3.6-.8.6-1.3l.2-.9h-2zm15.4-.4c-.1 1.2-.6 2.3-1.3 3.2-.6.5-1.3.8-2.1.8-.8.1-1.6-.3-2-1.1l-.2 1h-1.1l2.2-11.2h1.1l-.9 4.4c.5-.7 1.3-1 2.1-1 1.4 0 2.2.9 2.2 2.5.2.4.1.9 0 1.4zm-2.3-3c-1.6 0-2.1 1.4-2.4 3-.1.4-.2.9-.2 1.3 0 .9.3 1.6 1.4 1.6 1.6 0 2.1-1.4 2.4-3 .1-.5.2-.9.2-1.4-.1-.8-.3-1.5-1.4-1.5zm10.1 3.4h-5c-.1.3-.1.7-.1 1-.1.8.5 1.6 1.3 1.8h.4c.8 0 1.6-.3 2.2-.9l.7.7c-.8.8-1.8 1.2-2.9 1.1-1.4.1-2.5-1-2.6-2.3v-.4c0-2.3 1.1-5.3 3.8-5.3 1.3-.1 2.5 1 2.5 2.3v.3c-.1.6-.2 1.1-.3 1.7zm-2.4-3.4c-1.1 0-2 .8-2.5 2.5h3.9c0-.3.1-.5.1-.8 0-1.2-.7-1.7-1.5-1.7zm7.9 0h-1.5l-1 4.8c0 .2-.1.3-.1.5 0 .4.2.7.9.7h.6l-.2.9h-.8c-.8.1-1.5-.5-1.6-1.3v-.2c0-.2 0-.4.1-.6l1-4.8h-1l.1-.8h1l.5-2.4h1.1l-.5 2.4h1.5l-.1.8zm5 0h-1.5l-1 4.8c0 .2-.1.3-.1.5 0 .4.2.7.9.7h.6l-.2.9h-.8c-.8 0-1.5-.6-1.5-1.4v-.1c0-.2 0-.4.1-.6l1-4.8h-1.1l.2-.8h1l.5-2.4h1.1l-.5 2.4h1.5l-.2.8zm6.8 3.4h-5c-.1.3-.1.7-.1 1-.1.9.5 1.6 1.3 1.8h.3c.8 0 1.6-.3 2.2-.9l.7.7c-.8.8-1.8 1.2-2.9 1.1-1.3.1-2.5-.9-2.7-2.2v-.5c0-2.3 1.1-5.3 3.8-5.3 1.3 0 2.5 1 2.5 2.3v.3c0 .6 0 1.1-.1 1.7zm-2.4-3.4c-1.1 0-2 .8-2.5 2.5h3.9c0-.3.1-.5.1-.8 0-1.2-.7-1.7-1.5-1.7zm9.2.6c-.3-.4-.7-.6-1.1-.5-1.2.1-2.1 1-2.3 2.1l-1 4.8h-1.1l1.5-7.8h1.1l-.2 1c.5-.7 1.3-1 2.2-1 .6 0 1.3.2 1.7.7l-.8.7zm10 6.3h-1.1l.2-.9c-.5.7-1.3 1-2.2 1-1.7 0-2.2-1.1-2.2-2.4 0-.5.1-1 .2-1.6.1-1.2.6-2.3 1.3-3.1.5-.6 1.3-.8 2.1-.8.8-.1 1.6.4 1.9 1.1l.9-4.4h1.1l-2.2 11.1zm-1.5-6.9c-1.6 0-2.1 1.4-2.4 3-.1.5-.2.9-.2 1.4 0 .9.3 1.6 1.4 1.6 1.6 0 2.1-1.4 2.4-3 .1-.5.2-.9.2-1.4 0-.8-.3-1.6-1.4-1.6zm5.2 6.9h-1.1l1.5-7.8h1.1l-1.5 7.8zm2-10h-1.3l.2-1.1h1.3l-.2 1.1zm5.4-.3h-.6c-.6 0-1.2.4-1.3 1.1l-.3 1.5h1.6l-.2.8h-1.6l-1.4 6.9h-1.1l1.4-6.9h-.9l.2-.8h.9l.3-1.6c.1-1.2 1.1-2 2.3-2h.8l-.1 1zm4.9 0h-.6c-.6 0-1.2.5-1.2 1.1l-.3 1.5h1.6l-.2.8h-1.6l-1.4 6.9h-1.1l1.4-6.9h-.9l.2-.8h.9l.3-1.6c.1-1.2 1.1-2 2.3-2h.8l-.2 1zm5.9 6.8h-5c-.1.3-.1.7-.1 1-.1.8.5 1.6 1.3 1.8h.4c.8 0 1.6-.3 2.2-.9l.7.7c-.8.8-1.8 1.2-2.9 1.1-1.3.1-2.5-.9-2.7-2.2v-.5c0-2.3 1.1-5.3 3.8-5.3 1.3 0 2.5 1 2.5 2.3v.3c-.1.6-.1 1.1-.2 1.7zm-2.4-3.4c-1.1 0-2 .8-2.5 2.5h3.9c0-.3.1-.5.1-.8 0-1.1-.7-1.7-1.5-1.7zm9.2.6c-.3-.4-.7-.6-1.1-.5-1.2.1-2.1 1-2.3 2.1l-1 4.8h-1.1l1.6-7.8h1.1l-.2 1c.5-.7 1.3-1 2.2-1 .6 0 1.3.2 1.7.7l-.9.7zm7.1 2.8h-5c-.1.3-.1.7-.1 1-.1.9.5 1.6 1.3 1.8h.3c.8 0 1.6-.3 2.2-.9l.7.7c-.8.8-1.8 1.2-2.9 1.1-1.3.1-2.5-.9-2.7-2.2v-.5c0-2.3 1.1-5.3 3.8-5.3 1.3 0 2.5 1 2.5 2.3v.3c.1.6 0 1.1-.1 1.7zm-2.4-3.4c-1.1 0-2 .8-2.5 2.5h3.9c0-.3.1-.5.1-.8 0-1.1-.7-1.7-1.5-1.7zm10.6 2l-1 4.9H-71l1-4.8c0-.2.1-.5.1-.7.1-.7-.5-1.3-1.2-1.4h-.2c-1.2 0-2.2.9-2.3 2.1l-1 4.8h-1.1l1.6-7.8h1.1l-.2.9c.6-.7 1.4-1 2.3-1 1.1-.1 2.1.8 2.1 1.9v.4c0 .2 0 .4-.1.7zm5.5-2h-1.5l-1 4.8c0 .2-.1.3-.1.5 0 .4.2.7.9.7h.6l-.2.9h-.8c-.8.1-1.5-.5-1.6-1.3v-.2c0-.2 0-.4.1-.6l.9-4.8h-1l.2-.8h1l.5-2.4h1.1l-.5 2.4h1.5l-.1.8z" class="st0"/>
</svg>