<svg id="Centre_Circles" data-name="Centre Circles" xmlns="http://www.w3.org/2000/svg" viewBox="0 0 9345.83 9345.83">
	<defs>
		<style>.cls-1{stroke:#fff;stroke-miterlimit:10;stroke-width:2px;}.cls-2{fill:#fff;}</style>
		<filter id="filter-blur">
			<feGaussianBlur in="SourceGraphic" stdDeviation="120" />
		</filter>

		<clipPath id="clip-path">
			
				<path class="cls-2" d="M4672.6,0C2092,0,0,2092,0,4672.6S2092,9345.21,4672.6,9345.21s4672.61-2092,4672.61-4672.61S7253.21,0,4672.6,0Zm0,7009.58c-1290.67,0-2337-1046.3-2337-2337s1046.3-2337,2337-2337,2337,1046.3,2337,2337S5963.28,7009.58,4672.6,7009.58Z"/>
				<circle class="cls-2" cx="4672.6" cy="4672.6" r="973.91" transform="translate(-1935.46 4672.6) rotate(-45)"/>
			
		</clipPath>			
	</defs>

	<g id="_Group_" data-name=" Group "><path class="cls-1" d="M5841.2,6696.83l-.14-.24a3559.44,3559.44,0,0,0,301.28-194.84,3514.73,3514.73,0,0,0,274.81-220c86.24-76.46,169.57-158.13,247.7-242.73,77.25-83.65,151.25-172.16,219.93-263.06,68.05-90.06,132.49-184.6,191.53-281,58.61-95.7,113.28-195.47,162.47-296.51,49-100.57,93.63-204.74,132.78-309.63,39.06-104.64,73.52-212.42,102.44-320.34s53-218.5,71.46-328.64c18.54-110.42,31.93-223,39.82-334.54,7.92-112.11,10.46-225.84,7.55-338-2.94-113-11.47-227.08-25.37-339.11-14-113.06-33.86-226.71-58.94-337.78-25.36-112.33-56.7-224.72-93.14-334.06a3519.21,3519.21,0,0,0-128-327.91,3557.25,3557.25,0,0,0-358.3-620.6,3514,3514,0,0,0-220-274.76c-76.45-86.21-158.11-169.53-242.7-247.64-83.64-77.24-172.14-151.22-263-219.9-90.06-68-184.59-132.46-281-191.49-95.7-58.61-195.45-113.26-296.5-162.44-100.56-49-204.73-93.62-309.62-132.76-104.63-39-212.4-73.51-320.32-102.42s-218.49-53-328.64-71.44c-110.41-18.54-223-31.93-334.53-39.81-112.1-7.92-225.83-10.46-338-7.55-113,2.94-227.08,11.48-339.1,25.38C3542.6,197,3429,216.87,3317.88,242c-112.32,25.36-224.72,56.7-334,93.15A3512.74,3512.74,0,0,0,2656,463.1a3561.12,3561.12,0,0,0-319.38,163.49l-.13-.24a3564.28,3564.28,0,0,1,319.4-163.51,3514.2,3514.2,0,0,1,327.94-128c109.35-36.45,221.75-67.79,334.08-93.15,111.08-25.08,224.74-44.91,337.81-58.94,112-13.91,226.13-22.44,339.14-25.38q45.06-1.17,90.41-1.17c82.59,0,165.54,2.91,247.63,8.71,111.58,7.88,224.14,21.28,334.56,39.82,110.15,18.49,220.73,42.53,328.66,71.44s215.71,63.38,320.35,102.43c104.9,39.15,209.08,83.82,309.64,132.77,101.05,49.18,200.82,103.84,296.52,162.46,96.39,59,190.93,123.46,281,191.5,90.86,68.67,179.41,142.67,263,219.89,84.59,78.12,166.26,161.45,242.72,247.67a3514.26,3514.26,0,0,1,220,274.78,3556.1,3556.1,0,0,1,358.33,620.64,3515.32,3515.32,0,0,1,128,328c36.45,109.34,67.79,221.74,93.15,334.08,25.08,111.08,44.91,224.73,58.94,337.81,13.9,112,22.44,226.13,25.37,339.14,2.92,112.2.38,225.93-7.55,338-7.88,111.57-21.28,224.14-39.82,334.56-18.5,110.16-42.54,220.74-71.46,328.67S7410.9,4784.34,7371.84,4889c-39.17,104.85-83.84,209-132.84,309.61-49.2,101.05-103.87,200.82-162.49,296.53-59,96.4-123.48,190.94-191.54,281C6816.28,5867,6742.28,5955.54,6665,6039.2c-78.13,84.61-161.48,166.28-247.71,242.75a3515,3515,0,0,1-274.83,220A3562.35,3562.35,0,0,1,5841.2,6696.83Z"/><path class="cls-1" d="M5260.85,9189.78c-82.67,0-165.69-2.91-247.86-8.73-111.57-7.89-224.13-21.29-334.55-39.84-110.14-18.5-220.72-42.54-328.64-71.47s-215.71-63.39-320.35-102.45c-104.9-39.16-209.08-83.84-309.64-132.8-101.06-49.2-200.83-103.87-296.53-162.49-96.4-59-190.94-123.49-281-191.55-90.91-68.69-179.43-142.69-263.08-220-84.61-78.13-166.28-161.47-242.75-247.71a3515,3515,0,0,1-220-274.83,3556.19,3556.19,0,0,1-358.33-620.65,3512.56,3512.56,0,0,1-128-327.91c-36.44-109.33-67.77-221.72-93.13-334-25.08-111.07-44.9-224.72-58.93-337.79-13.9-112-22.44-226.13-25.37-339.13-2.91-112.2-.38-225.94,7.55-338.05,7.88-111.58,21.28-224.15,39.82-334.58,18.49-110.15,42.53-220.74,71.45-328.68s63.38-215.73,102.44-320.38c39.15-104.91,83.82-209.1,132.78-309.67,49.19-101.07,103.85-200.84,162.47-296.56,59-96.4,123.48-191,191.53-281,68.69-90.92,142.69-179.44,219.94-263.1,78.13-84.61,161.47-166.29,247.7-242.76a3515,3515,0,0,1,274.83-220,3560,3560,0,0,1,301.3-194.86l.14.24a3559.55,3559.55,0,0,0-301.28,194.85,3510.38,3510.38,0,0,0-274.8,220c-86.23,76.47-169.56,158.14-247.69,242.75-77.25,83.65-151.24,172.17-219.92,263.08-68,90.07-132.48,184.62-191.51,281-58.62,95.71-113.28,195.48-162.47,296.54C2058,4247.82,2013.35,4352,1974.21,4456.9c-39.06,104.64-73.52,212.42-102.43,320.36s-53,218.5-71.45,328.65c-18.54,110.42-31.93,223-39.82,334.55-7.92,112.1-10.46,225.83-7.55,338,2.94,113,11.47,227.09,25.37,339.1,14,113.07,33.85,226.71,58.93,337.77,25.35,112.32,56.69,224.7,93.12,334a3511.82,3511.82,0,0,0,128,327.87,3555.61,3555.61,0,0,0,358.3,620.6,3514.73,3514.73,0,0,0,220,274.81c76.46,86.24,158.13,169.57,242.72,247.7,83.65,77.25,172.16,151.25,263.06,219.93,90.07,68.05,184.6,132.49,281,191.53,95.7,58.62,195.46,113.29,296.51,162.48,100.55,49,204.73,93.63,309.61,132.79,104.64,39.06,212.41,73.53,320.33,102.45s218.48,53,328.62,71.46c110.41,18.55,223,31.95,334.51,39.84,82.16,5.81,165.2,8.73,247.85,8.73q45.18,0,90.15-1.17c113-2.92,227.07-11.45,339.08-25.35,113.05-14,226.69-33.84,337.74-58.91,112.31-25.35,224.69-56.68,334-93.12a3511.82,3511.82,0,0,0,327.87-128A3560.07,3560.07,0,0,0,7009,8719.53l.14.24a3557.7,3557.7,0,0,1-319.34,163.48,3512.19,3512.19,0,0,1-327.89,128c-109.33,36.43-221.71,67.77-334,93.12-111.06,25.07-224.7,44.89-337.77,58.92-112,13.89-226.11,22.42-339.1,25.35Q5306.07,9189.8,5260.85,9189.78Z"/><path class="cls-1" d="M626.06,7009.43A3559.56,3559.56,0,0,1,462.55,6690a3513.3,3513.3,0,0,1-128-327.95C298.1,6252.71,266.76,6140.31,241.4,6028c-25.08-111.08-44.91-224.73-58.94-337.81C168.56,5578.16,160,5464,157.09,5351c-2.92-112.2-.38-225.93,7.55-338.05,7.88-111.57,21.28-224.14,39.82-334.56C223,4568.28,247,4457.7,275.91,4349.77s63.39-215.72,102.45-320.36c39.16-104.9,83.83-209.09,132.79-309.66,49.2-101.05,103.87-200.82,162.49-296.53,59-96.4,123.49-190.95,191.54-281,68.69-90.91,142.69-179.42,220-263.08,78.13-84.61,161.48-166.28,247.71-242.75a3515.19,3515.19,0,0,1,274.84-220A3556.49,3556.49,0,0,1,2228.38,2058a3518.49,3518.49,0,0,1,327.93-128c109.34-36.44,221.74-67.78,334.07-93.14,111.07-25.08,224.72-44.9,337.79-58.93,112-13.89,226.11-22.43,339.11-25.35,112.19-2.91,225.91-.37,338,7.56,111.56,7.89,224.12,21.3,334.53,39.85,110.14,18.5,220.71,42.55,328.63,71.48s215.7,63.4,320.33,102.46c104.9,39.16,209.07,83.85,309.63,132.81,101,49.2,200.8,103.88,296.5,162.51,96.39,59,190.93,123.49,281,191.55,90.9,68.7,179.41,142.7,263.06,220,84.6,78.13,166.27,161.48,242.73,247.72a3515.19,3515.19,0,0,1,220,274.84,3564,3564,0,0,1,194.85,301.3l-.24.14a3561.92,3561.92,0,0,0-194.84-301.28,3516.75,3516.75,0,0,0-220-274.82c-76.46-86.23-158.12-169.57-242.71-247.7-83.65-77.26-172.15-151.26-263.05-219.95-90.05-68.05-184.58-132.49-281-191.54-95.69-58.62-195.45-113.29-296.48-162.49-100.56-49-204.72-93.64-309.6-132.8-104.63-39.06-212.39-73.53-320.31-102.46s-218.47-53-328.61-71.47c-110.4-18.55-222.94-32-334.5-39.84-112.1-7.93-225.81-10.48-338-7.57-113,2.93-227.06,11.46-339.08,25.36-113.06,14-226.7,33.85-337.76,58.92-112.32,25.36-224.71,56.69-334,93.13a3513.64,3513.64,0,0,0-327.91,128,3556.19,3556.19,0,0,0-620.65,358.33,3514.73,3514.73,0,0,0-274.81,220c-86.23,76.46-169.57,158.13-247.7,242.73C1008,2963,934.05,3051.5,865.36,3142.41c-68,90.06-132.49,184.6-191.52,281-58.62,95.7-113.29,195.47-162.48,296.52-48.95,100.56-93.63,204.73-132.78,309.62-39.06,104.64-73.52,212.42-102.44,320.34s-53,218.5-71.45,328.64c-18.54,110.42-31.94,223-39.83,334.54-7.92,112.11-10.46,225.84-7.55,338,2.94,113,11.47,227.08,25.38,339.1,14,113.07,33.85,226.72,58.93,337.79,25.38,112.31,56.74,224.7,93.18,334a3519.21,3519.21,0,0,0,128,327.91,3562.55,3562.55,0,0,0,163.5,319.38Z"/><path class="cls-1" d="M5687.76,7594.29c-82.52,0-165.39-2.91-247.4-8.7-111.57-7.87-224.13-21.26-334.55-39.79-110.15-18.49-220.72-42.52-328.65-71.43S4561.46,7411,4456.82,7372c-104.9-39.15-209.07-83.81-309.64-132.76-101.05-49.19-200.81-103.85-296.52-162.46-96.39-59-190.93-123.47-281-191.51-90.91-68.69-179.42-142.68-263.07-219.93-84.61-78.13-166.27-161.46-242.74-247.7a3510.69,3510.69,0,0,1-220-274.82A3560.55,3560.55,0,0,1,2649,5841.48l.24-.14a3559.33,3559.33,0,0,0,194.83,301.28,3514.57,3514.57,0,0,0,220,274.8c76.47,86.23,158.13,169.56,242.72,247.68,83.65,77.24,172.15,151.23,263,219.91,90.06,68,184.6,132.47,281,191.5,95.7,58.6,195.45,113.26,296.5,162.44,100.55,48.95,204.72,93.61,309.61,132.75,104.63,39,212.4,73.5,320.32,102.41s218.48,52.93,328.62,71.42c110.41,18.53,223,31.91,334.52,39.79,112.1,7.91,225.82,10.44,338,7.52,113-2.95,227.07-11.49,339.09-25.4,113.06-14,226.7-33.87,337.77-59,112.32-25.36,224.71-56.71,334.05-93.16a3519.21,3519.21,0,0,0,327.91-128A3558.2,3558.2,0,0,0,7737.86,6929a3514.73,3514.73,0,0,0,274.81-220c86.23-76.46,169.56-158.12,247.68-242.7,77.25-83.64,151.25-172.14,219.93-263,68-90.05,132.48-184.58,191.51-280.95,58.62-95.69,113.28-195.44,162.46-296.47,49-100.54,93.62-204.7,132.77-309.58,39-104.62,73.51-212.38,102.43-320.28s52.95-218.46,71.44-328.59c18.53-110.4,31.93-222.94,39.81-334.49,7.92-112.09,10.45-225.8,7.53-338-2.93-113-11.47-227.06-25.38-339.07-14-113-33.86-226.69-58.94-337.75-25.37-112.31-56.71-224.69-93.15-334a3517.94,3517.94,0,0,0-128-327.9,3562.55,3562.55,0,0,0-163.5-319.38l.24-.13A3561,3561,0,0,1,8883,2656.08,3512.74,3512.74,0,0,1,9011,2984c36.45,109.34,67.79,221.73,93.16,334,25.08,111.07,44.91,224.72,59,337.78,13.9,112,22.44,226.11,25.38,339.09,2.92,112.19.38,225.91-7.54,338-7.88,111.56-21.27,224.11-39.81,334.51-18.49,110.14-42.53,220.7-71.45,328.62s-63.38,215.68-102.43,320.31c-39.15,104.88-83.82,209-132.78,309.6-49.19,101-103.85,200.8-162.47,296.49-59,96.38-123.48,190.92-191.53,281-68.69,90.9-142.69,179.41-219.94,263.05-78.13,84.6-161.47,166.26-247.71,242.72a3510.85,3510.85,0,0,1-274.83,220,3557.4,3557.4,0,0,1-620.7,358.36,3514.2,3514.2,0,0,1-327.94,128c-109.34,36.46-221.74,67.8-334.07,93.17-111.07,25.09-224.73,44.93-337.8,59-112,13.91-226.12,22.46-339.12,25.4Q5733.24,7594.3,5687.76,7594.29Z"/></g><g id="_Group_2" data-name=" Group 2"><path class="cls-1" d="M6696.51,5841.26l-.24-.14a3558.5,3558.5,0,0,0,163.51-319.37,3519.4,3519.4,0,0,0,128-327.92c36.45-109.33,67.79-221.72,93.16-334,25.08-111.07,44.92-224.71,59-337.77,13.91-112,22.45-226.11,25.39-339.1,2.93-112.18.4-225.91-7.52-338-7.87-111.56-21.26-224.11-39.79-334.52-18.48-110.14-42.51-220.7-71.42-328.62s-63.36-215.69-102.41-320.32c-39.14-104.88-83.8-209-132.74-309.61-49.19-101-103.84-200.8-162.45-296.49-59-96.39-123.46-190.92-191.5-281-68.67-90.9-142.66-179.4-219.91-263-78.12-84.6-161.45-166.26-247.67-242.72a3514.57,3514.57,0,0,0-274.8-220,3556.28,3556.28,0,0,0-620.66-358.33,3512.74,3512.74,0,0,0-327.92-128c-109.33-36.45-221.73-67.79-334.05-93.15-111.07-25.07-224.72-44.9-337.79-58.93-112-13.9-226.11-22.44-339.11-25.37-112.18-2.92-225.92-.38-338,7.54C3306,600.27,3193.42,613.67,3083,632.21c-110.15,18.49-220.72,42.53-328.64,71.45S2538.66,767.05,2434,806.1c-104.89,39.15-209.07,83.83-309.63,132.78-101,49.19-200.81,103.86-296.51,162.48-96.39,59-190.93,123.47-281,191.52-90.91,68.69-179.41,142.68-263.07,219.94-84.59,78.12-166.26,161.46-242.72,247.69a3512.4,3512.4,0,0,0-220,274.81,3559,3559,0,0,0-194.8,301.28l-.24-.14a3564,3564,0,0,1,194.85-301.3,3515,3515,0,0,1,220-274.83c76.47-86.24,158.14-169.58,242.75-247.72,83.65-77.26,172.17-151.26,263.08-219.95,90.07-68.05,184.62-132.5,281-191.54,95.71-58.62,195.48-113.29,296.54-162.49,100.57-49,204.75-93.63,309.65-132.79,104.65-39.06,212.44-73.52,320.37-102.44s218.51-53,328.66-71.46c110.43-18.55,223-32,334.57-39.83,112.12-7.92,225.85-10.46,338.05-7.55,113,2.93,227.11,11.47,339.14,25.37,113.07,14,226.73,33.86,337.81,58.94,112.33,25.37,224.74,56.71,334.08,93.15a3520,3520,0,0,1,327.95,128,3556.82,3556.82,0,0,1,620.7,358.37,3513,3513,0,0,1,274.82,220c86.23,76.47,169.57,158.14,247.69,242.74C6315,1794.79,6389,1883.3,6457.69,1974.2c68.05,90.07,132.48,184.61,191.52,281,58.61,95.71,113.27,195.47,162.46,296.52,48.94,100.56,93.61,204.74,132.75,309.64,39.05,104.63,73.51,212.41,102.42,320.34s52.94,218.5,71.43,328.65c18.53,110.42,31.92,223,39.79,334.54,7.91,112.11,10.44,225.85,7.52,338-2.94,113-11.49,227.09-25.4,339.12-14,113.07-33.88,226.72-59,337.8-25.37,112.33-56.72,224.73-93.17,334.07a3514.2,3514.2,0,0,1-128,327.94A3562.27,3562.27,0,0,1,6696.51,5841.26Z"/><path class="cls-1" d="M5680.8,8762.17q-45.33,0-90.46-1.18c-113-2.93-227.07-11.47-339.09-25.38-113.06-14-226.71-33.87-337.78-59-112.32-25.36-224.71-56.71-334.05-93.16a3515.71,3515.71,0,0,1-327.93-128,3559.46,3559.46,0,0,1-620.7-358.37,3512.86,3512.86,0,0,1-274.84-220c-86.24-76.46-169.58-158.13-247.72-242.73-77.26-83.65-151.27-172.16-220-263.06-68.06-90.06-132.51-184.6-191.56-281-58.63-95.7-113.3-195.46-162.51-296.5-49-100.56-93.64-204.74-132.8-309.63-39.07-104.63-73.54-212.41-102.47-320.33s-53-218.49-71.48-328.63c-18.55-110.41-31.95-223-39.85-334.53-7.92-112.11-10.47-225.84-7.56-338,2.93-113,11.46-227.09,25.36-339.11,14-113.07,33.85-226.72,58.92-337.79,25.36-112.33,56.7-224.73,93.14-334.07a3519.58,3519.58,0,0,1,128-327.93A3562.92,3562.92,0,0,1,2649,3504.41l.24.14a3555.79,3555.79,0,0,0-163.5,319.37,3513.64,3513.64,0,0,0-128,327.91c-36.45,109.33-67.78,221.72-93.14,334-25.07,111.06-44.89,224.7-58.92,337.76-13.9,112-22.43,226.1-25.36,339.08-2.9,112.18-.36,225.9,7.57,338,7.89,111.55,21.3,224.1,39.84,334.5,18.5,110.14,42.55,220.7,71.48,328.61s63.39,215.68,102.45,320.31c39.16,104.88,83.84,209,132.8,309.6,49.2,101,103.87,200.79,162.49,296.48,59,96.38,123.49,190.91,191.55,281,68.68,90.9,142.68,179.4,219.94,263,78.13,84.6,161.47,166.26,247.7,242.71a3510.69,3510.69,0,0,0,274.82,220,3558,3558,0,0,0,620.66,358.34,3512.37,3512.37,0,0,0,327.9,128c109.33,36.45,221.71,67.79,334,93.15,111.06,25.08,224.69,44.91,337.75,59,112,13.9,226.08,22.44,339.06,25.38,112.18,2.92,225.89.38,338-7.54,111.55-7.88,224.09-21.27,334.49-39.81,110.13-18.49,220.68-42.52,328.59-71.44s215.66-63.37,320.28-102.42c104.88-39.15,209-83.82,309.58-132.77,101-49.19,200.78-103.85,296.47-162.46,96.37-59,190.9-123.47,280.95-191.52,90.89-68.68,179.39-142.67,263-219.92,84.58-78.12,166.24-161.46,242.7-247.69a3512.24,3512.24,0,0,0,220-274.8,3561.81,3561.81,0,0,0,194.83-301.28l.24.14a3564,3564,0,0,1-194.85,301.3,3512.71,3512.71,0,0,1-220,274.83c-76.46,86.23-158.12,169.57-242.72,247.7-83.64,77.26-172.15,151.26-263,219.94-90.06,68.05-184.6,132.49-281,191.53-95.69,58.62-195.45,113.29-296.49,162.48-100.55,49-204.71,93.62-309.6,132.78-104.63,39-212.4,73.51-320.31,102.43s-218.48,53-328.62,71.44c-110.4,18.54-222.95,31.94-334.51,39.82C5846.29,8759.25,5763.36,8762.17,5680.8,8762.17Z"/><path class="cls-1" d="M2336.37,8719.55a3562.64,3562.64,0,0,1-301.24-194.82,3514.26,3514.26,0,0,1-274.78-220c-86.22-76.46-169.55-158.13-247.66-242.72-77.25-83.65-151.24-172.16-219.91-263.06-68-90.07-132.48-184.61-191.51-281-58.61-95.7-113.27-195.47-162.46-296.52C889.86,7120.9,845.19,7016.72,806,6911.82c-39-104.64-73.51-212.42-102.43-320.35s-53-218.51-71.44-328.66c-18.54-110.42-31.94-223-39.82-334.56-7.92-112.11-10.45-225.85-7.54-338,2.94-113,11.48-227.11,25.38-339.14,14-113.07,33.86-226.73,58.94-337.81,25.37-112.33,56.71-224.74,93.16-334.08a3509.26,3509.26,0,0,1,128-327.94,3556.83,3556.83,0,0,1,358.33-620.65,3511.93,3511.93,0,0,1,220-274.78c76.46-86.22,158.12-169.54,242.72-247.66,83.64-77.25,172.15-151.24,263-219.91,90.07-68,184.6-132.48,281-191.51,95.7-58.62,195.47-113.28,296.52-162.47,100.56-49,204.73-93.62,309.63-132.77,104.63-39.06,212.41-73.52,320.33-102.44s218.5-53,328.64-71.46c110.42-18.54,223-31.94,334.54-39.83,112.1-7.92,225.83-10.47,338-7.55,113,2.93,227.08,11.46,339.09,25.36,113.07,14,226.71,33.84,337.77,58.92,112.33,25.35,224.71,56.68,334,93.12a3512.19,3512.19,0,0,1,327.89,128,3557.7,3557.7,0,0,1,319.34,163.48l-.14.23A3561,3561,0,0,0,5521.6,2485.9a3511.82,3511.82,0,0,0-327.87-128c-109.32-36.43-221.69-67.76-334-93.12-111-25.06-224.69-44.89-337.74-58.91-112-13.89-226.09-22.43-339.07-25.36q-45-1.17-90.22-1.16c-82.64,0-165.63,2.91-247.78,8.72-111.55,7.89-224.1,21.29-334.5,39.83-110.14,18.49-220.7,42.53-328.62,71.45s-215.68,63.37-320.31,102.43c-104.88,39.14-209,83.81-309.6,132.76C2451,2583.7,2351.2,2638.35,2255.51,2697c-96.38,59-190.91,123.46-281,191.5-90.9,68.67-179.39,142.65-263,219.89-84.59,78.11-166.24,161.43-242.7,247.65a3513.79,3513.79,0,0,0-220,274.75,3557.25,3557.25,0,0,0-358.3,620.6,3512.74,3512.74,0,0,0-128,327.92c-36.45,109.33-67.79,221.73-93.15,334-25.08,111.07-44.91,224.72-58.94,337.79-13.9,112-22.44,226.11-25.37,339.1-2.92,112.19-.38,225.92,7.54,338,7.88,111.57,21.27,224.12,39.81,334.54,18.49,110.14,42.53,220.71,71.44,328.63s63.37,215.69,102.42,320.32c39.15,104.89,83.81,209.06,132.76,309.62,49.18,101,103.84,200.8,162.45,296.5,59,96.38,123.45,190.91,191.49,281,68.67,90.9,142.65,179.4,219.89,263,78.11,84.59,161.43,166.25,247.65,242.7a3513.79,3513.79,0,0,0,274.75,220,3560.49,3560.49,0,0,0,301.22,194.8Z"/><path class="cls-1" d="M5252.59,7167q-45.14,0-90.05-1.16c-113-2.93-227.11-11.45-339.15-25.35-113.08-14-226.74-33.84-337.82-58.92-112.35-25.35-224.75-56.69-334.1-93.13a3515.32,3515.32,0,0,1-328-128A3560.14,3560.14,0,0,1,3504.12,6697l.14-.23a3558.32,3558.32,0,0,0,319.37,163.49,3512.93,3512.93,0,0,0,327.93,128c109.34,36.44,221.73,67.77,334.07,93.12,111.07,25.08,224.72,44.9,337.79,58.92,112,13.89,226.13,22.42,339.13,25.34,112.19,2.9,225.93.36,338-7.58,111.57-7.89,224.13-21.3,334.56-39.85,110.15-18.51,220.73-42.56,328.66-71.49s215.71-63.4,320.35-102.47c104.9-39.16,209.08-83.85,309.65-132.81,101.06-49.21,200.82-103.88,296.53-162.51,96.4-59,190.94-123.49,281-191.55,90.91-68.69,179.42-142.7,263.08-220,84.6-78.13,166.27-161.47,242.73-247.71a3514.88,3514.88,0,0,0,220-274.82,3555.7,3555.7,0,0,0,358.3-620.61,3512.19,3512.19,0,0,0,128-327.89c36.44-109.33,67.77-221.72,93.12-334.05,25.07-111.08,44.9-224.73,58.92-337.8,13.9-112,22.43-226.14,25.36-339.15,2.91-112.2.37-225.94-7.55-338.07-7.88-111.58-21.28-224.15-39.82-334.58-18.5-110.17-42.53-220.76-71.45-328.7s-63.37-215.74-102.42-320.4c-39.15-104.91-83.81-209.11-132.76-309.69C8357.65,2022.82,8303,1923,8244.38,1827.33c-59-96.41-123.45-191-191.49-281-68.67-90.92-142.65-179.43-219.89-263.09-78.11-84.61-161.43-166.28-247.64-242.75a3512.08,3512.08,0,0,0-274.76-220,3558.12,3558.12,0,0,0-301.22-194.81l.14-.24a3554.49,3554.49,0,0,1,301.24,194.82,3511.93,3511.93,0,0,1,274.78,220c86.22,76.47,169.55,158.15,247.67,242.76,77.24,83.67,151.23,172.19,219.9,263.11,68.05,90.09,132.48,184.65,191.51,281.06,58.61,95.73,113.27,195.52,162.46,296.59,49,100.59,93.62,204.79,132.77,309.71,39,104.67,73.51,212.47,102.43,320.43s53,218.55,71.45,328.72c18.54,110.44,31.94,223,39.83,334.62,7.92,112.13,10.46,225.88,7.55,338.09-2.93,113-11.47,227.13-25.36,339.17-14,113.08-33.86,226.75-58.93,337.83-25.35,112.34-56.69,224.74-93.13,334.08a3512.74,3512.74,0,0,1-128,327.92A3556.09,3556.09,0,0,1,8097.38,5715a3513,3513,0,0,1-220,274.85c-76.47,86.24-158.15,169.59-242.76,247.73-83.66,77.26-172.18,151.27-263.09,220-90.08,68.06-184.63,132.52-281,191.57-95.72,58.63-195.49,113.31-296.56,162.51-100.57,49-204.76,93.66-309.67,132.83-104.65,39.07-212.44,73.55-320.38,102.48s-218.53,53-328.69,71.49c-110.43,18.55-223,32-334.58,39.86C5418.39,7164.1,5335.3,7167,5252.59,7167Z"/></g><g id="_Group_3" data-name=" Group 3"><path class="cls-1" d="M4672.72,7009.59v-.28a3558.84,3558.84,0,0,0,358.34-18.09,3513.58,3513.58,0,0,0,348-53.09C5492,6915,5605,6886,5714.92,6851.79c108.73-33.82,217.06-73.46,322-117.83,104-44,207-93.61,306.36-147.55,98.62-53.57,195.84-112.62,289-175.52,92.68-62.6,183.46-130.47,269.81-201.72C6988.23,6138.09,7072,6062,7151,5983s155.12-162.72,226.21-248.85c71.26-86.34,139.14-177.1,201.75-269.77,62.92-93.11,122-190.32,175.55-288.93,54-99.31,103.61-202.38,147.59-306.33,44.38-104.93,84-213.25,117.85-322,34.2-109.95,63.26-222.95,86.36-335.86a3510.69,3510.69,0,0,0,53.11-348,3556.61,3556.61,0,0,0,0-716.67,3513.19,3513.19,0,0,0-53.11-348c-23.1-112.92-52.16-225.92-86.36-335.88-33.82-108.73-73.47-217.06-117.85-322-44-104-93.63-207-147.59-306.36-53.57-98.62-112.63-195.84-175.55-289-62.61-92.68-130.49-183.46-201.75-269.81-71.1-86.14-147.2-169.88-226.21-248.88s-162.74-155.11-248.88-226.2C6815.74,729.2,6725,661.32,6632.28,598.71c-93.12-62.92-190.34-122-289-175.55-99.32-54-202.4-103.61-306.36-147.58-104.94-44.39-213.27-84-322-117.86-110-34.2-223-63.25-335.87-86.36a3510.69,3510.69,0,0,0-348-53.11,3558.67,3558.67,0,0,0-358.33-18V0a3562.39,3562.39,0,0,1,358.37,18.1,3513.19,3513.19,0,0,1,348,53.11C5492,94.32,5605,123.37,5715,157.58c108.74,33.82,217.08,73.47,322,117.86,104,44,207.06,93.64,306.39,147.6,98.63,53.57,195.86,112.64,289,175.56,92.68,62.62,183.47,130.5,269.83,201.77,86.14,71.1,169.89,147.21,248.9,226.22s155.12,162.76,226.22,248.91c71.27,86.36,139.16,177.14,201.77,269.82,62.92,93.14,122,190.37,175.57,289,54,99.33,103.61,202.41,147.59,306.39,44.39,104.94,84,213.28,117.86,322,34.21,110,63.26,223,86.37,335.9a3513.67,3513.67,0,0,1,53.12,348,3558.67,3558.67,0,0,1,0,716.73,3513.67,3513.67,0,0,1-53.12,348c-23.11,112.91-52.16,225.92-86.37,335.88-33.82,108.73-73.47,217.06-117.86,322-44,104-93.64,207-147.59,306.35-53.58,98.62-112.65,195.83-175.57,289-62.61,92.67-130.5,183.44-201.77,269.79-71.1,86.13-147.21,169.86-226.22,248.86s-162.76,155.1-248.9,226.18c-86.36,71.26-177.15,139.13-269.83,201.74-93.13,62.91-190.36,122-289,175.53-99.33,54-202.41,103.59-306.39,147.56-104.94,44.38-213.28,84-322,117.84-110,34.19-223,63.25-335.9,86.35a3516.56,3516.56,0,0,1-348,53.1A3562.55,3562.55,0,0,1,4672.72,7009.59Z"/><path class="cls-1" d="M4672.72,9345.49a3560.8,3560.8,0,0,1-358.29-18.1,3510.66,3510.66,0,0,1-348-53.1c-112.9-23.1-225.9-52.15-335.85-86.35-108.72-33.81-217-73.45-322-117.83-104-44-207-93.62-306.35-147.56-98.61-53.57-195.83-112.63-289-175.54-92.67-62.6-183.44-130.47-269.8-201.73-86.14-71.09-169.87-147.18-248.88-226.18s-155.11-162.73-226.2-248.87c-71.27-86.35-139.15-177.12-201.76-269.79-62.92-93.12-122-190.34-175.56-288.95-54-99.32-103.61-202.39-147.58-306.36-44.39-104.93-84-213.27-117.86-322-34.21-110-63.26-223-86.37-335.87a3513.19,3513.19,0,0,1-53.11-348,3557.1,3557.1,0,0,1,0-716.72,3513.64,3513.64,0,0,1,53.11-348c23.11-112.92,52.16-225.94,86.37-335.9,33.82-108.74,73.47-217.08,117.86-322,44-104,93.63-207.05,147.58-306.38,53.58-98.63,112.64-195.86,175.56-289,62.61-92.69,130.49-183.47,201.76-269.83,71.09-86.15,147.2-169.89,226.2-248.9s162.74-155.13,248.88-226.22c86.36-71.27,177.13-139.16,269.8-201.77,93.13-62.92,190.35-122,289-175.57,99.32-54,202.39-103.62,306.35-147.59,104.92-44.39,213.25-84.05,322-117.87,110-34.2,223-63.26,335.85-86.36a3513.67,3513.67,0,0,1,348-53.12,3557.85,3557.85,0,0,1,358.29-18.09v.27a3560.21,3560.21,0,0,0-358.26,18.1,3512.26,3512.26,0,0,0-347.93,53.11c-112.89,23.1-225.87,52.16-335.81,86.36-108.72,33.82-217,73.47-322,117.85-104,44-207,93.63-306.32,147.58-98.6,53.58-195.82,112.64-288.93,175.55-92.67,62.62-183.43,130.5-269.78,201.76-86.13,71.09-169.86,147.2-248.86,226.2s-155.1,162.75-226.19,248.89c-71.26,86.35-139.13,177.13-201.74,269.8-62.91,93.13-122,190.35-175.54,289-54,99.32-103.61,202.4-147.58,306.36-44.38,104.93-84,213.27-117.85,322-34.2,110-63.25,223-86.36,335.87a3516.59,3516.59,0,0,0-53.11,348,3558.08,3558.08,0,0,0,0,716.67,3516.14,3516.14,0,0,0,53.11,348c23.11,112.9,52.16,225.9,86.36,335.85,33.82,108.72,73.47,217.05,117.85,322,44,103.95,93.62,207,147.58,306.33C1645,7610,1704,7707.17,1766.94,7800.29c62.61,92.66,130.48,183.43,201.74,269.77,71.09,86.12,147.19,169.85,226.19,248.84s162.73,155.1,248.86,226.17c86.34,71.25,177.11,139.12,269.78,201.72,93.11,62.9,190.33,121.95,288.93,175.51,99.31,54,202.37,103.59,306.32,147.55,104.92,44.38,213.24,84,322,117.83,109.94,34.19,222.92,63.24,335.81,86.34a3509.28,3509.28,0,0,0,347.93,53.1,3563.14,3563.14,0,0,0,358.26,18.09Z"/><path class="cls-1" d="M7009.57,4672.74h-.28a3557.25,3557.25,0,0,0-18.09-358.26,3512.2,3512.2,0,0,0-53.09-347.93c-23.1-112.89-52.15-225.87-86.34-335.81-33.82-108.72-73.46-217-117.83-322-44-104-93.61-207-147.55-306.32-53.57-98.6-112.62-195.82-175.52-288.93-62.6-92.67-130.47-183.44-201.72-269.78-71.08-86.13-147.17-169.86-226.16-248.86s-162.72-155.1-248.85-226.19c-86.34-71.26-177.1-139.13-269.77-201.74-93.11-62.91-190.33-122-288.93-175.54-99.31-54-202.38-103.61-306.33-147.58-104.93-44.38-213.25-84-322-117.85-110-34.2-223-63.25-335.86-86.36a3516.59,3516.59,0,0,0-348-53.11,3558.08,3558.08,0,0,0-716.67,0,3516.59,3516.59,0,0,0-348,53.11c-112.91,23.11-225.92,52.16-335.88,86.36-108.72,33.82-217.06,73.47-322,117.85-104,44-207,93.62-306.36,147.58-98.61,53.57-195.84,112.63-289,175.54-92.68,62.61-183.46,130.48-269.81,201.74-86.14,71.09-169.88,147.19-248.88,226.19s-155.11,162.73-226.2,248.86c-71.27,86.35-139.15,177.11-201.76,269.78-62.92,93.11-122,190.33-175.55,288.93-54,99.31-103.61,202.37-147.58,306.32-44.39,104.92-84,213.24-117.86,322-34.2,109.94-63.25,222.92-86.36,335.81a3512.26,3512.26,0,0,0-53.11,347.93,3557.13,3557.13,0,0,0-18,358.26H0a3560.8,3560.8,0,0,1,18.1-358.29A3512.14,3512.14,0,0,1,71.19,3966.5c23.11-112.9,52.16-225.9,86.37-335.85,33.82-108.72,73.47-217.05,117.86-322,44-104,93.64-207,147.6-306.35,53.57-98.61,112.64-195.83,175.56-289,62.62-92.67,130.5-183.44,201.77-269.8,71.1-86.14,147.21-169.87,226.22-248.88s162.76-155.11,248.91-226.2c86.36-71.27,177.14-139.15,269.82-201.76,93.14-62.92,190.37-122,289-175.56,99.33-54,202.41-103.61,306.39-147.58,104.94-44.39,213.28-84,322-117.86,110-34.21,223-63.26,335.9-86.37a3513.64,3513.64,0,0,1,348-53.11,3557.2,3557.2,0,0,1,716.73,0,3513.64,3513.64,0,0,1,348,53.11c112.91,23.11,225.92,52.16,335.88,86.37,108.73,33.82,217.06,73.47,322,117.86,104,44,207,93.63,306.35,147.58,98.62,53.58,195.83,112.64,289,175.56,92.67,62.61,183.44,130.49,269.79,201.76,86.13,71.09,169.86,147.2,248.86,226.2s155.1,162.74,226.18,248.88c71.26,86.36,139.13,177.13,201.74,269.8,62.91,93.13,122,190.35,175.53,289,54,99.32,103.59,202.39,147.56,306.35,44.38,104.92,84,213.25,117.84,322,34.19,109.95,63.25,222.95,86.35,335.85a3515.12,3515.12,0,0,1,53.1,347.95A3560.77,3560.77,0,0,1,7009.57,4672.74Z"/><path class="cls-1" d="M5840.87,8177.74a3565.13,3565.13,0,0,1-358.36-18.09,3513.67,3513.67,0,0,1-348-53.12c-112.92-23.11-225.94-52.16-335.9-86.37-108.74-33.82-217.08-73.47-322-117.86-104-44-207-93.64-306.38-147.59-98.63-53.58-195.86-112.65-289-175.57-92.69-62.61-183.47-130.5-269.83-201.77-86.15-71.1-169.89-147.21-248.9-226.22s-155.13-162.76-226.22-248.9c-71.27-86.36-139.16-177.15-201.77-269.83-62.92-93.13-122-190.36-175.57-289C2705,6244.1,2655.29,6141,2611.32,6037c-44.39-104.94-84.05-213.28-117.87-322-34.2-110-63.26-223-86.36-335.9a3513.67,3513.67,0,0,1-53.12-348,3559.43,3559.43,0,0,1-18.09-358.37h.27a3561.94,3561.94,0,0,0,18.1,358.34,3510.69,3510.69,0,0,0,53.11,348c23.1,112.91,52.16,225.91,86.36,335.87,33.82,108.73,73.47,217.06,117.85,322,44,104,93.63,207,147.58,306.36,53.58,98.62,112.64,195.84,175.55,289,62.62,92.68,130.5,183.46,201.76,269.81,71.09,86.14,147.2,169.88,226.2,248.88s162.75,155.11,248.89,226.21c86.35,71.26,177.13,139.14,269.8,201.75,93.13,62.92,190.35,122,289,175.55,99.32,54,202.39,103.61,306.36,147.59,104.93,44.38,213.27,84,322,117.85,110,34.2,223,63.26,335.87,86.36a3513.64,3513.64,0,0,0,348,53.11,3556.61,3556.61,0,0,0,716.67,0,3513.64,3513.64,0,0,0,348-53.11c112.9-23.1,225.9-52.16,335.85-86.36,108.72-33.82,217-73.47,322-117.85,103.95-44,207-93.63,306.33-147.59,98.6-53.57,195.81-112.63,288.93-175.55,92.66-62.61,183.43-130.49,269.77-201.75C8156.25,7306.11,8240,7230,8319,7151s155.09-162.74,226.17-248.88c71.25-86.35,139.12-177.13,201.72-269.81,62.9-93.12,121.95-190.34,175.51-289,53.95-99.32,103.59-202.4,147.55-306.36,44.38-104.94,84-213.27,117.83-322,34.19-110,63.24-223,86.34-335.87a3510.66,3510.66,0,0,0,53.1-348,3564.88,3564.88,0,0,0,18.09-358.34h.28a3562.39,3562.39,0,0,1-18.1,358.37,3510.66,3510.66,0,0,1-53.1,348C9251.26,5492,9222.21,5605,9188,5715c-33.81,108.74-73.45,217.08-117.83,322-44,104-93.62,207.06-147.56,306.39-53.57,98.63-112.63,195.86-175.54,289-62.6,92.68-130.47,183.47-201.73,269.83-71.08,86.14-147.18,169.89-226.18,248.9s-162.73,155.12-248.87,226.22c-86.35,71.27-177.12,139.16-269.79,201.77-93.12,62.92-190.34,122-288.95,175.57-99.32,53.95-202.39,103.61-306.36,147.59-104.93,44.39-213.27,84-322,117.86-110,34.21-223,63.26-335.87,86.37a3513.22,3513.22,0,0,1-348,53.12A3561.24,3561.24,0,0,1,5840.87,8177.74Z"/></g><g id="_Group_4" data-name=" Group 4"><path class="cls-1" d="M4672.72,9345.49A4745.82,4745.82,0,0,1,4195,9321.36a4682.39,4682.39,0,0,1-463.95-70.8c-150.53-30.8-301.19-69.53-447.8-115.13-145-45.08-289.4-97.94-429.3-157.11-138.62-58.62-276-124.82-408.46-196.75-131.49-71.42-261.11-150.16-385.27-234-123.57-83.47-244.6-174-359.73-269C1585.64,8183.8,1474,8082.33,1368.66,7977s-206.81-217-301.6-331.82C972,7530,881.52,7409,798,7285.45c-83.84-124.16-162.59-253.79-234-385.27-72-132.42-138.17-269.85-196.8-408.47-59.17-139.91-112-284.36-157.13-429.33-45.6-146.61-84.35-297.28-115.15-447.83a4683.86,4683.86,0,0,1-70.81-464,4742.54,4742.54,0,0,1,0-955.55,4682.42,4682.42,0,0,1,70.81-463.95c30.8-150.53,69.55-301.19,115.15-447.8,45.09-145,98-289.4,157.13-429.3C425.83,2715.33,492,2578,564,2445.49c71.43-131.49,150.18-261.11,234-385.27,83.48-123.57,174-244.6,269-359.73,94.79-114.85,196.26-226.49,301.6-331.83s217-206.81,331.83-301.6c115.13-95,236.16-185.52,359.73-269C2184.36,714.18,2314,635.43,2445.47,564c132.42-71.94,269.84-138.15,408.46-196.78,139.9-59.17,284.34-112,429.3-157.13,146.61-45.6,297.27-84.35,447.8-115.15a4683.27,4683.27,0,0,1,464-70.81,4742.54,4742.54,0,0,1,955.55,0,4683.86,4683.86,0,0,1,464,70.81c150.55,30.8,301.22,69.55,447.83,115.15,145,45.09,289.42,98,429.33,157.13,138.62,58.63,276.05,124.84,408.47,196.78,131.48,71.43,261.11,150.18,385.27,234.06,123.56,83.48,244.58,174,359.71,269,114.85,94.79,226.49,196.26,331.82,301.6s206.8,217,301.57,331.83c95,115.13,185.51,236.16,269,359.73,83.88,124.16,162.62,253.78,234,385.27,71.93,132.42,138.13,269.84,196.75,408.46,59.17,139.9,112,284.34,157.11,429.3,45.6,146.61,84.33,297.27,115.13,447.8a4682.39,4682.39,0,0,1,70.8,463.95,4742.54,4742.54,0,0,1,0,955.55,4683.83,4683.83,0,0,1-70.8,464c-30.8,150.55-69.53,301.22-115.13,447.83-45.08,145-97.94,289.42-157.11,429.33-58.62,138.62-124.82,276.05-196.75,408.47-71.42,131.48-150.16,261.11-234,385.27-83.47,123.56-174,244.59-269,359.71C8183.76,7760,8082.29,7871.65,7977,7977s-217,206.8-331.82,301.57c-115.12,95-236.15,185.51-359.71,269-124.16,83.88-253.79,162.62-385.27,234-132.42,71.93-269.85,138.13-408.47,196.75-139.91,59.17-284.36,112-429.33,157.11-146.61,45.6-297.28,84.33-447.83,115.13a4683.83,4683.83,0,0,1-464,70.8A4748.39,4748.39,0,0,1,4672.72,9345.49Zm0-9345.21A4748.75,4748.75,0,0,0,4195,24.4a4684.78,4684.78,0,0,0-463.92,70.81c-150.53,30.8-301.18,69.54-447.77,115.14-145,45.09-289.39,98-429.28,157.13-138.61,58.63-276,124.82-408.44,196.76-131.48,71.42-261.09,150.17-385.25,234-123.56,83.47-244.58,174-359.7,269-114.85,94.78-226.49,196.24-331.82,301.57s-206.79,217-301.57,331.82c-95,115.12-185.52,236.14-269,359.7-83.88,124.16-162.63,253.77-234,385.25-72,132.42-138.16,269.87-196.79,408.48-59.18,139.89-112,284.32-157.13,429.28-45.6,146.59-84.34,297.24-115.14,447.77A4684.19,4684.19,0,0,0,24.38,4195a4743.41,4743.41,0,0,0,0,955.49,4686.81,4686.81,0,0,0,70.81,464C126,5765,164.73,5915.7,210.33,6062.3c45.09,145,97.95,289.4,157.13,429.3,58.63,138.61,124.82,276,196.76,408.45,71.42,131.47,150.17,261.09,234,385.24,83.47,123.56,174,244.58,269,359.7,94.78,114.84,196.24,226.47,301.57,331.8s217,206.78,331.82,301.55c115.12,95,236.14,185.5,359.7,269,124.16,83.87,253.77,162.61,385.25,234,132.41,71.92,269.83,138.12,408.44,196.74,139.89,59.16,284.32,112,429.28,157.1,146.59,45.59,297.24,84.32,447.77,115.12A4681.8,4681.8,0,0,0,4195,9321.1a4743.41,4743.41,0,0,0,955.49,0,4683.83,4683.83,0,0,0,464-70.8c150.54-30.8,301.21-69.53,447.81-115.12,145-45.08,289.4-97.94,429.3-157.1,138.61-58.62,276-124.82,408.45-196.74,131.47-71.42,261.09-150.16,385.24-234,123.56-83.46,244.58-174,359.7-269,114.84-94.77,226.47-196.23,331.8-301.55s206.78-217,301.55-331.8c95-115.12,185.5-236.14,269-359.7,83.87-124.15,162.61-253.77,234-385.24,71.92-132.42,138.12-269.84,196.74-408.45,59.16-139.9,112-284.34,157.1-429.3,45.59-146.6,84.32-297.27,115.12-447.81a4683.83,4683.83,0,0,0,70.8-464,4743.41,4743.41,0,0,0,0-955.49,4681.8,4681.8,0,0,0-70.8-463.92c-30.8-150.53-69.53-301.18-115.12-447.77-45.08-145-97.94-289.39-157.1-429.28-58.62-138.61-124.82-276-196.74-408.44-71.42-131.48-150.16-261.09-234-385.25-83.46-123.56-174-244.58-269-359.7-94.77-114.85-196.23-226.49-301.55-331.82s-217-206.79-331.8-301.57c-115.12-95-236.14-185.52-359.7-269-124.15-83.88-253.77-162.63-385.24-234-132.42-71.94-269.84-138.13-408.45-196.76-139.9-59.18-284.34-112-429.3-157.13C5915.68,164.75,5765,126,5614.47,95.21a4686.81,4686.81,0,0,0-464-70.81A4749.35,4749.35,0,0,0,4672.72.28Z"/></g><g id="_Group_5" data-name=" Group 5"><path class="cls-1" d="M4672.72,7009.59a2354.23,2354.23,0,0,1-470.93-47.46A2335.74,2335.74,0,0,1,2383.36,5143.79a2359.77,2359.77,0,0,1,0-942A2336.15,2336.15,0,0,1,4201.8,2383.38a2359.77,2359.77,0,0,1,942,0A2335.91,2335.91,0,0,1,6962.14,4201.81a2360.87,2360.87,0,0,1,0,942A2335.58,2335.58,0,0,1,5143.77,6962.14,2356.14,2356.14,0,0,1,4672.72,7009.59Zm0-4673.42a2353,2353,0,0,0-470.88,47.48A2335.76,2335.76,0,0,0,2383.63,4201.82a2359.18,2359.18,0,0,0,0,941.88A2335.54,2335.54,0,0,0,4201.8,6961.82a2360.64,2360.64,0,0,0,941.88,0A2335.29,2335.29,0,0,0,6961.8,5143.67a2360.64,2360.64,0,0,0,0-941.88A2335.51,2335.51,0,0,0,5143.65,2383.58,2353.45,2353.45,0,0,0,4672.72,2336.17Z"/></g><g id="_Group_6" data-name=" Group 6"><path class="cls-1" d="M5515.86,4186.22A981.24,981.24,0,0,0,5402.17,4028a972.46,972.46,0,0,0-1199.42-207.25l-.14-.24c464.25-256.85,1048.69-94.19,1313.49,365.57Z"/><path class="cls-1" d="M3820.56,5143.2c-256.89-464.24-94.21-1048.71,365.58-1313.48l.13.24A980.66,980.66,0,0,0,4028,3943.66a972.45,972.45,0,0,0-207.21,1199.41Z"/><path class="cls-1" d="M4673.72,5646.61q-39.84,0-79.55-3.25a971.48,971.48,0,0,1-764.39-483.68l.23-.14a981.21,981.21,0,0,0,113.69,158.27A972.35,972.35,0,0,0,5143.12,5525l.14.24a978.88,978.88,0,0,1-178.52,76.63,967.22,967.22,0,0,1-291,44.72Z"/><path class="cls-1" d="M5159.73,5516l-.13-.24a981.07,981.07,0,0,0,158.26-113.68A972.49,972.49,0,0,0,5525.1,4202.65l.24-.13C5782.2,4666.77,5619.52,5251.23,5159.73,5516Z"/><path class="cls-1" d="M5088,4418.78a486.27,486.27,0,0,0-658.4-167.37l-.14-.24a486.62,486.62,0,0,1,658.78,167.47Z"/><path class="cls-1" d="M4251.22,4916.36a486.58,486.58,0,0,1,167.47-658.78l.14.24a486.23,486.23,0,0,0-167.37,658.4Z"/><path class="cls-1" d="M4673.33,5159.91q-15,0-29.9-.91a486.32,486.32,0,0,1-385.8-231.87l.24-.15a486.22,486.22,0,0,0,658.38,167.38l.14.24a484.15,484.15,0,0,1-243.08,65.31Z"/><path class="cls-1" d="M4927.18,5088.18l-.14-.23a486.28,486.28,0,0,0,167.37-658.41l.24-.13a486.7,486.7,0,0,1-167.47,658.77Z"/><path class="cls-1" d="M4916.41,5094.6l-.14-.24c3.68-2.13,7.28-4.31,10.77-6.41a733.87,733.87,0,0,0,117.05-87.09,729.72,729.72,0,0,0,199.57-770.32,737.45,737.45,0,0,0-145.14-251.69,729.43,729.43,0,0,0-895.74-158.06q-8.25,4.5-16.48,9.22l-.13-.24c5.43-3.14,11-6.24,16.47-9.22a734.23,734.23,0,0,1,133.55-56.37,729.84,729.84,0,0,1,762.51,214.5,737.6,737.6,0,0,1,145.19,251.79,729.43,729.43,0,0,1-316.76,857.67C4923.69,5090.29,4920.09,5092.47,4916.41,5094.6Z"/><path class="cls-1" d="M4795.19,5614c-20.84,0-41.68-.89-62.41-2.67a730,730,0,0,1-314.12-1353.72c3.48-2.1,7.07-4.27,10.77-6.41l.14.24c-3.7,2.13-7.29,4.31-10.77,6.41A729.93,729.93,0,0,0,5143.12,5525q8.25-4.5,16.48-9.22l.13.24c-5.43,3.14-11,6.24-16.47,9.22a733.49,733.49,0,0,1-133.57,56.39,725.78,725.78,0,0,1-214.5,32.36Z"/><path class="cls-1" d="M3829.78,5159.68c-3.14-5.42-6.24-11-9.22-16.48a730.22,730.22,0,0,1,1267.68-724.58c2.1,3.47,4.27,7.07,6.41,10.77l-.24.13c-2.14-3.69-4.31-7.28-6.41-10.76a733.64,733.64,0,0,0-87.1-117.07,729.7,729.7,0,0,0-770.35-199.61,737.47,737.47,0,0,0-251.72,145.16,729.65,729.65,0,0,0-214.42,762.23A733.24,733.24,0,0,0,3820.78,5143c3,5.51,6.08,11.05,9.21,16.47Z"/><path class="cls-1" d="M4884.14,5281.62q-23.54,0-47-1.51a728.63,728.63,0,0,1-579.53-353c-2.1-3.49-4.28-7.09-6.41-10.77l.24-.14c2.12,3.68,4.3,7.28,6.41,10.76,207.84,345.58,656.48,457.24,1002.06,249.39a728.56,728.56,0,0,0,265.14-973.64c-3-5.49-6.07-11-9.21-16.47l.24-.14c3.14,5.44,6.24,11,9.22,16.48,192.4,354.93,60.64,798.62-294.29,991a727.31,727.31,0,0,1-346.85,88Z"/></g>
	<g opacity="0.25" filter="url(#filter-blur)" clip-path="url(#clip-path)">
		<path class="cls-2" d="M3965.35,9275.92c513.37,65.79,965.39,66.53,1212.48,32.77q-21.6,2.83-43.27,5.39l0-.27q40.13-4.77,80.11-10.43l10.4-1.62S4687.52,4773.25,4675,4667.67Z"/>
		<path class="cls-2" d="M2319.25,8700.36c522,330.16,1174,486.63,1159.88,483,0,0,736.46-2674.9,1195.84-4515.72Z"/>
		<path class="cls-2" d="M8715.77,2341.48c-269.54-441.84-551.51-795.13-732.31-966.89q15.71,15.09,31.25,30.4l-.2.19q-28.8-28.34-58.21-56-3.87-3.57-7.76-7.11s-3198.79,3250.25-3273.35,3326Z"/>
		<path class="cls-2" d="M9295.46,3986.14c-68.57-613.81-354-1220.54-348-1207.3,0,0-2548.27,1097.18-4272.29,1889.26Z"/>
		<path class="cls-2" d="M1367.14,1382.45c-355.32,376.32-621.95,741.34-740.06,961q10.42-19.12,21.1-38.15l.24.13q-19.75,35.25-38.71,70.91c-1.61,3.11-3.21,6.24-4.82,9.36,0,0,3977.56,2230.56,4070.3,2282.55Z"/>
		<path class="cls-2" d="M2801.24,390.33C2227.12,618,1716.9,1053.08,1728.1,1043.8c0,0,1729.18,2169.65,2947.09,3624.42Z"/>
	</g>
</svg>