<svg id="Layer_1" data-name="Layer 1" xmlns="http://www.w3.org/2000/svg" width="32" height="64" viewBox="0 0 32 64"><defs><style>.cls-1{fill:#1a315b;}.cls-2{fill:#00859b;}</style></defs><title>Artboard 1</title><rect class="cls-1" x="7" y="13" width="13" height="1"/><rect class="cls-1" x="7" y="17.47" width="13" height="1"/><rect class="cls-1" x="7" y="8.53" width="13" height="1"/><path class="cls-1" d="M13.5,27A13.5,13.5,0,1,1,27,13.5,13.52,13.52,0,0,1,13.5,27Zm0-26A12.5,12.5,0,1,0,26,13.5,12.52,12.52,0,0,0,13.5,1Z"/><rect class="cls-2" x="7" y="45" width="13" height="1"/><rect class="cls-2" x="7" y="49.47" width="13" height="1"/><rect class="cls-2" x="7" y="40.53" width="13" height="1"/><path class="cls-2" d="M13.5,59A13.5,13.5,0,1,1,27,45.5,13.52,13.52,0,0,1,13.5,59Zm0-26A12.5,12.5,0,1,0,26,45.5,12.52,12.52,0,0,0,13.5,33Z"/></svg>