<?xml version="1.0" encoding="utf-8"?>
<!-- Generator: Adobe Illustrator 22.0.1, SVG Export Plug-In . SVG Version: 6.00 Build 0)  -->
<svg version="1.1" id="Layer_1" xmlns="http://www.w3.org/2000/svg" xmlns:xlink="http://www.w3.org/1999/xlink" x="0px" y="0px"
	width="40" height="80" viewBox="0 0 40 80" style="enable-background:new 0 0 40 80;" xml:space="preserve">
<style type="text/css">
	.st0{fill:#1A315B;}
	.st1{fill:#00859B;}
</style>
<path class="st0" d="M32.4,32.5l-7.1-7.1c4.2-4,4.4-10.6,0.4-14.8S15,6.2,10.9,10.2S6.5,20.8,10.5,25c3.7,3.9,9.8,4.4,14,1.1
	l7.1,7.2L32.4,32.5z M8.6,17.7c0-5.2,4.2-9.5,9.5-9.5s9.5,4.2,9.5,9.5s-4.2,9.5-9.5,9.5c0,0,0,0,0,0C12.9,27.2,8.6,22.9,8.6,17.7z"
	/>
<path class="st1" d="M32.4,71.5l-7.1-7.1c4.2-4,4.4-10.6,0.4-14.8S15,45.2,10.9,49.2S6.5,59.8,10.5,64c3.7,3.9,9.8,4.4,14,1.1
	l7.1,7.2L32.4,71.5z M8.6,56.7c0-5.2,4.2-9.5,9.5-9.5s9.5,4.2,9.5,9.5s-4.2,9.5-9.5,9.5c0,0,0,0,0,0C12.9,66.2,8.6,61.9,8.6,56.7z"
	/>
</svg>
