<svg id="Layer_1" data-name="Layer 1" xmlns="http://www.w3.org/2000/svg" width="32" height="948" viewBox="0 0 32 948"><defs><style>.cls-1{fill:#1a315b;}.cls-2{fill:#00859b;}.cls-3{fill:#fff;}.cls-4{fill:#0e1232;}</style></defs><title>Artboard 1</title><path class="cls-1" d="M25.93,120.43a2.5,2.5,0,0,1-2.5,2.5H4a3,3,0,0,1-3-3V100.47A2.49,2.49,0,0,1,3.47,98H6.64V97H3.47A3.49,3.49,0,0,0,0,100.47v19.44a4,4,0,0,0,4,4H23.4a3.5,3.5,0,0,0,3.5-3.5v-3.14h-1Z"/><polygon class="cls-1" points="16.24 97 16.24 98 25.23 98 13.11 110.11 13.82 110.82 25.93 98.71 25.93 107.69 26.93 107.69 26.93 97 16.24 97"/><path class="cls-1" d="M23.78,1H11.19V2H23.78a1.6,1.6,0,0,1,1.5,1.67V25.36A1.57,1.57,0,0,1,23.8,27H11.19v1H23.8a2.58,2.58,0,0,0,2.48-2.64V3.67A2.59,2.59,0,0,0,23.78,1Z"/><polygon class="cls-1" points="11.49 22.06 19.04 14.5 11.49 6.94 10.78 7.65 17.13 14 0 14 0 15 17.13 15 10.78 21.35 11.49 22.06"/><polygon class="cls-1" points="0.71 329.8 0 329.09 12.91 316.18 0.44 303.71 1.15 303 14.33 316.18 0.71 329.8"/><polygon class="cls-2" points="0.71 361.8 0 361.09 12.91 348.18 0.44 335.71 1.15 335 14.33 348.18 0.71 361.8"/><polygon class="cls-1" points="29.62 329.8 30.33 329.09 17.41 316.18 29.89 303.71 29.18 303 16 316.18 29.62 329.8"/><polygon class="cls-2" points="29.62 361.8 30.33 361.09 17.41 348.18 29.89 335.71 29.18 335 16 348.18 29.62 361.8"/><polygon class="cls-1" points="26.71 393 14.04 380.33 26.64 367.71 25.93 367 13.34 379.63 0.78 367.07 0.07 367.78 12.63 380.33 0 393 0.71 393.71 13.34 381.04 26 393.71 26.71 393"/><polygon class="cls-2" points="26.71 425 14.04 412.33 26.64 399.71 25.93 399 13.34 411.63 0.78 399.07 0.07 399.78 12.63 412.33 0 425 0.71 425.71 13.34 413.04 26 425.71 26.71 425"/><polygon class="cls-1" points="0 438.69 1 438.69 1 432.7 6.62 438.33 7.33 437.62 1.71 432 7.69 432 7.69 431 0 431 0 438.69"/><polygon class="cls-1" points="25.96 456.25 20.32 450.61 19.61 451.32 25.26 456.96 19.27 456.96 19.27 457.96 26.96 457.96 26.96 450.27 25.96 450.27 25.96 456.25"/><polygon class="cls-1" points="7.34 451.34 6.63 450.63 1 456.26 1 450.27 0 450.27 0 457.96 7.69 457.96 7.69 456.96 1.71 456.96 7.34 451.34"/><polygon class="cls-1" points="19.27 431 19.27 432 25.26 432 19.63 437.63 20.34 438.34 25.96 432.71 25.96 438.69 26.96 438.69 26.96 431 19.27 431"/><rect class="cls-1" y="768.02" width="25.92" height="1"/><polygon class="cls-1" points="25.92 675.02 13.46 675.02 13.46 663 12.46 663 12.46 675.02 0 675.02 0 676.02 12.46 676.02 12.46 688.92 13.46 688.92 13.46 676.02 25.92 676.02 25.92 675.02"/><path class="cls-1" d="M13.5,559A13.5,13.5,0,1,0,27,572.5h0A13.52,13.52,0,0,0,13.5,559Zm0,26A12.5,12.5,0,1,1,26,572.5h0A12.52,12.52,0,0,1,13.5,585Z"/><path class="cls-1" d="M18.35,571.11a5.93,5.93,0,1,0-2.45,4.79l3.72,3.76.71-.71-3.67-3.7A5.87,5.87,0,0,0,18.35,571.11Zm-10.83,0a4.92,4.92,0,1,1,5,4.89h0A4.92,4.92,0,0,1,7.52,571.11Z"/><path class="cls-2" d="M13.5,591A13.5,13.5,0,1,0,27,604.5h0A13.52,13.52,0,0,0,13.5,591Zm0,26A12.5,12.5,0,1,1,26,604.5,12.5,12.5,0,0,1,13.5,617Z"/><path class="cls-2" d="M18.35,603.11a5.93,5.93,0,1,0-2.45,4.79l3.72,3.76.71-.71-3.67-3.7A5.87,5.87,0,0,0,18.35,603.11Zm-10.83,0a4.92,4.92,0,1,1,5,4.89h0A4.92,4.92,0,0,1,7.52,603.11Z"/><path class="cls-1" d="M5.92,634.83a5.9,5.9,0,0,0,3.46-1.12l3.72,3.75.71-.7-3.67-3.71a5.92,5.92,0,1,0-4.22,1.78Zm0-10.83A4.92,4.92,0,1,1,1,628.92H1A4.92,4.92,0,0,1,5.92,624Z"/><path class="cls-2" d="M5.92,654.83a5.9,5.9,0,0,0,3.46-1.12l3.72,3.75.71-.7-3.67-3.71a5.92,5.92,0,1,0-4.22,1.78Zm0-10.83A4.92,4.92,0,1,1,1,648.92H1A4.92,4.92,0,0,1,5.92,644Z"/><path class="cls-2" d="M25.93,152.43a2.5,2.5,0,0,1-2.5,2.5H4a3,3,0,0,1-3-3V132.47A2.49,2.49,0,0,1,3.47,130H6.64v-1H3.47A3.49,3.49,0,0,0,0,132.47v19.44a4,4,0,0,0,4,4H23.4a3.5,3.5,0,0,0,3.5-3.5v-3.14h-1Z"/><polygon class="cls-2" points="16.24 129 16.24 130 25.23 130 13.11 142.11 13.82 142.82 25.93 130.71 25.93 139.69 26.93 139.69 26.93 129 16.24 129"/><path class="cls-3" d="M25.93,184.43a2.5,2.5,0,0,1-2.5,2.5H4a3,3,0,0,1-3-3V164.47A2.49,2.49,0,0,1,3.47,162H6.64v-1H3.47A3.49,3.49,0,0,0,0,164.47v19.44a4,4,0,0,0,4,4H23.4a3.5,3.5,0,0,0,3.5-3.5v-3.14h-1Z"/><polygon class="cls-3" points="16.24 161 16.24 162 25.23 162 13.11 174.11 13.82 174.82 25.93 162.71 25.93 171.69 26.93 171.69 26.93 161 16.24 161"/><polygon class="cls-2" points="25.92 706.02 13.46 706.02 13.46 694 12.46 694 12.46 706.02 0 706.02 0 707.02 12.46 707.02 12.46 719.92 13.46 719.92 13.46 707.02 25.92 707.02 25.92 706.02"/><polygon class="cls-3" points="25.92 737.02 13.46 737.02 13.46 725 12.46 725 12.46 737.02 0 737.02 0 738.02 12.46 738.02 12.46 750.92 13.46 750.92 13.46 738.02 25.92 738.02 25.92 737.02"/><rect class="cls-2" y="799.02" width="25.92" height="1"/><path class="cls-2" d="M23.78,33H11.19v1H23.78a1.6,1.6,0,0,1,1.5,1.67V57.36A1.57,1.57,0,0,1,23.8,59H11.19v1H23.8a2.58,2.58,0,0,0,2.48-2.64V35.67A2.59,2.59,0,0,0,23.78,33Z"/><polygon class="cls-2" points="11.49 54.06 19.04 46.5 11.49 38.94 10.78 39.65 17.13 46 0 46 0 47 17.13 47 10.78 53.35 11.49 54.06"/><path class="cls-3" d="M23.78,65H11.19v1H23.78a1.6,1.6,0,0,1,1.5,1.67V89.36A1.57,1.57,0,0,1,23.8,91H11.19v1H23.8a2.58,2.58,0,0,0,2.48-2.64V67.67A2.59,2.59,0,0,0,23.78,65Z"/><polygon class="cls-3" points="11.49 86.06 19.04 78.5 11.49 70.94 10.78 71.65 17.13 78 0 78 0 79 17.13 79 10.78 85.35 11.49 86.06"/><polygon class="cls-2" points="0 470.69 1 470.69 1 464.7 6.62 470.33 7.33 469.62 1.71 464 7.69 464 7.69 463 0 463 0 470.69"/><polygon class="cls-2" points="25.96 488.25 20.32 482.61 19.61 483.32 25.26 488.96 19.27 488.96 19.27 489.96 26.96 489.96 26.96 482.27 25.96 482.27 25.96 488.25"/><polygon class="cls-2" points="7.34 483.34 6.63 482.63 1 488.26 1 482.27 0 482.27 0 489.96 7.69 489.96 7.69 488.96 1.71 488.96 7.34 483.34"/><polygon class="cls-2" points="19.27 463 19.27 464 25.26 464 19.63 469.63 20.34 470.34 25.96 464.71 25.96 470.69 26.96 470.69 26.96 463 19.27 463"/><polygon class="cls-3" points="0 826.69 1 826.69 1 820.7 6.62 826.33 7.33 825.62 1.71 820 7.69 820 7.69 819 0 819 0 826.69"/><polygon class="cls-3" points="25.96 844.25 20.32 838.61 19.61 839.32 25.26 844.96 19.27 844.96 19.27 845.96 26.96 845.96 26.96 838.27 25.96 838.27 25.96 844.25"/><polygon class="cls-3" points="7.34 839.34 6.63 838.63 1 844.26 1 838.27 0 838.27 0 845.96 7.69 845.96 7.69 844.96 1.71 844.96 7.34 839.34"/><polygon class="cls-3" points="19.27 819 19.27 820 25.26 820 19.63 825.63 20.34 826.34 25.96 820.71 25.96 826.69 26.96 826.69 26.96 819 19.27 819"/><path class="cls-1" d="M26,204.19v12.59a1.6,1.6,0,0,1-1.67,1.5H2.64A1.57,1.57,0,0,1,1,216.8V204.19H0V216.8a2.58,2.58,0,0,0,2.64,2.48H24.33a2.59,2.59,0,0,0,2.67-2.5V204.19Z"/><polygon class="cls-1" points="21.06 204.49 20.35 203.78 14 210.13 14 193 13 193 13 210.13 6.65 203.78 5.94 204.49 13.5 212.04 21.06 204.49"/><path class="cls-2" d="M26,236.19v12.59a1.6,1.6,0,0,1-1.67,1.5H2.64A1.57,1.57,0,0,1,1,248.8V236.19H0V248.8a2.58,2.58,0,0,0,2.64,2.48H24.33a2.59,2.59,0,0,0,2.67-2.5V236.19Z"/><polygon class="cls-2" points="21.06 236.49 20.35 235.78 14 242.13 14 225 13 225 13 242.13 6.65 235.78 5.94 236.49 13.5 244.04 21.06 236.49"/><path class="cls-3" d="M26,268.19v12.59a1.6,1.6,0,0,1-1.67,1.5H2.64A1.57,1.57,0,0,1,1,280.8V268.19H0V280.8a2.58,2.58,0,0,0,2.64,2.48H24.33a2.59,2.59,0,0,0,2.67-2.5V268.19Z"/><polygon class="cls-3" points="21.06 268.49 20.35 267.78 14 274.13 14 257 13 257 13 274.13 6.65 267.78 5.94 268.49 13.5 276.04 21.06 268.49"/><polygon class="cls-4" points="14.09 879 0 865.22 14.54 851 16 852.42 2.92 865.22 15.54 877.58 14.09 879"/><polygon class="cls-4" points="17.46 879 16 877.58 29.09 864.78 16.46 852.42 17.91 851 32 864.78 17.46 879"/><polygon class="cls-2" points="14.09 912 0 898.22 14.54 884 16 885.42 2.92 898.22 15.54 910.58 14.09 912"/><polygon class="cls-2" points="17.46 912 16 910.58 29.09 897.78 16.46 885.42 17.91 884 32 897.78 17.46 912"/><path class="cls-1" d="M13.5,495A13.5,13.5,0,1,0,27,508.5,13.49,13.49,0,0,0,13.5,495Zm0,26a12.46,12.46,0,0,1-9.64-4.55h0a12.5,12.5,0,0,1,19.28,0A12.46,12.46,0,0,1,13.5,521Zm-5-15.09a5,5,0,1,1,5,5A5,5,0,0,1,8.5,505.91Zm7.81,5.29a6,6,0,1,0-5.62,0,13.49,13.49,0,0,0-7.44,4.44h0A12.5,12.5,0,1,1,26,508.5a12.39,12.39,0,0,1-2.25,7.14A13.49,13.49,0,0,0,16.31,511.2Z"/><path class="cls-2" d="M13.5,527A13.5,13.5,0,1,0,27,540.5,13.49,13.49,0,0,0,13.5,527Zm0,26a12.46,12.46,0,0,1-9.64-4.55h0a12.5,12.5,0,0,1,19.28,0A12.46,12.46,0,0,1,13.5,553Zm-5-15.09a5,5,0,1,1,5,5A5,5,0,0,1,8.5,537.91Zm7.81,5.29a6,6,0,1,0-5.62,0,13.49,13.49,0,0,0-7.44,4.44h0A12.5,12.5,0,1,1,26,540.5a12.39,12.39,0,0,1-2.25,7.14A13.49,13.49,0,0,0,16.31,543.2Z"/><polygon class="cls-3" points="26.71 943 14.04 930.33 26.64 917.71 25.93 917 13.34 929.63 0.78 917.07 0.07 917.78 12.63 930.33 0 943 0.71 943.71 13.34 931.04 26 943.71 26.71 943"/></svg>