<svg id="Layer_1" data-name="Layer 1" xmlns="http://www.w3.org/2000/svg" width="30" height="2250" viewBox="0 0 30 2250"><defs><style>.cls-1{fill:#002e5d;}.cls-2{fill:#00859b;}.cls-3{fill:#fff;}</style></defs><title>Artboard 1</title><path class="cls-1" d="M24.35,6.53,18.4.58A2,2,0,0,0,17,0H7.05A3.45,3.45,0,0,0,3.6,3.44v7.28h1V3.44A2.45,2.45,0,0,1,7.05,1H17l.11,0V7.81H23.9a.45.45,0,0,1,0,.11V25a1,1,0,0,1-1,1H5.58a1,1,0,0,1-1-1v-3.4h-1V25a2,2,0,0,0,2,2H23a2,2,0,0,0,2-2V7.92A2,2,0,0,0,24.35,6.53Zm-6.24.28V1.71l5.11,5.1Z"/><polygon class="cls-1" points="5 19.46 3.19 16.3 4.89 13.25 3.61 13.25 2.55 15.2 1.44 13.25 0.13 13.25 1.82 16.2 0 19.46 1.28 19.46 2.46 17.3 3.7 19.46 5 19.46"/><polygon class="cls-1" points="5.73 13.25 5.73 19.46 9.58 19.46 9.58 18.4 6.89 18.4 6.89 13.25 5.73 13.25"/><path class="cls-1" d="M12.51,18.47A1.3,1.3,0,0,1,11.32,18l-.13-.22-.95.61.13.21a2.34,2.34,0,0,0,2.14,1c1.41,0,2.21-.68,2.21-1.86a1.56,1.56,0,0,0-.64-1.38,3,3,0,0,0-1.27-.47c-1-.27-1.12-.53-1.12-.88,0-.62.52-.71.83-.71a1.17,1.17,0,0,1,1,.39l.14.2.91-.6L14.4,14a2.1,2.1,0,0,0-1.86-.83,1.77,1.77,0,0,0-2,1.8c0,1,.53,1.54,1.82,1.87.8.19.8.19,1,.32a.65.65,0,0,1,.23.53C13.57,18.34,13,18.47,12.51,18.47Z"/><polygon class="cls-1" points="16.3 19.46 17.48 17.3 18.72 19.46 20.02 19.46 18.21 16.3 19.91 13.25 18.64 13.25 17.57 15.2 16.46 13.25 15.15 13.25 16.84 16.2 15.02 19.46 16.3 19.46"/><path class="cls-1" d="M24.4,36.53l-5.95-6a2,2,0,0,0-1.4-.58H7.1a3.45,3.45,0,0,0-3.45,3.44v7.28h1V33.44A2.45,2.45,0,0,1,7.1,31h10l.11,0v6.79H24a.45.45,0,0,1,0,.11V55a1,1,0,0,1-1,1H5.63a1,1,0,0,1-1-1v-3.4h-1V55a2,2,0,0,0,2,2H23a2,2,0,0,0,2-2V37.92A2,2,0,0,0,24.4,36.53Zm-6.24.28v-5.1l5.11,5.1Z"/><path class="cls-1" d="M4.39,47V45.68a2.37,2.37,0,0,0-.59-1.84,2.32,2.32,0,0,0-1.73-.59H0v6.21H2.11a2.27,2.27,0,0,0,1.7-.6A2.37,2.37,0,0,0,4.39,47Zm-1.16-1.3V47a1.59,1.59,0,0,1-.34,1.17,1.21,1.21,0,0,1-.92.27H1.16V44.3H2a1.3,1.3,0,0,1,.92.27A1.6,1.6,0,0,1,3.23,45.74Z"/><path class="cls-1" d="M7.94,49.53a2.14,2.14,0,0,0,1.72-.67,2.4,2.4,0,0,0,.54-1.8V45.65A2.55,2.55,0,0,0,9.76,44a2.12,2.12,0,0,0-1.82-.78,2.17,2.17,0,0,0-1.72.67,2.49,2.49,0,0,0-.53,1.8v1.41a2.61,2.61,0,0,0,.44,1.69A2.11,2.11,0,0,0,7.94,49.53ZM6.85,47V45.72a1.88,1.88,0,0,1,.22-1.07.93.93,0,0,1,.87-.41.94.94,0,0,1,.84.36A1.66,1.66,0,0,1,9,45.72V47a1.86,1.86,0,0,1-.22,1.06.93.93,0,0,1-.88.41.91.91,0,0,1-.83-.36A1.64,1.64,0,0,1,6.85,47Z"/><path class="cls-1" d="M13.67,44.25c.55,0,.87.24.93.71l0,.23,1.09-.08v-.25c-.06-1-.82-1.67-2-1.67a2,2,0,0,0-1.7.71,2.77,2.77,0,0,0-.47,1.87V47a2.91,2.91,0,0,0,.38,1.75,2,2,0,0,0,1.78.83c1.25,0,2-.61,2.1-1.65l0-.23-1.1-.13,0,.24a.86.86,0,0,1-1,.71c-.66,0-1-.25-1-1.56V45.8C12.66,44.5,13,44.25,13.67,44.25Z"/><polygon class="cls-1" points="17.55 49.46 18.73 47.3 19.97 49.46 21.27 49.46 19.46 46.3 21.16 43.25 19.88 43.25 18.82 45.2 17.71 43.25 16.4 43.25 18.09 46.2 16.27 49.46 17.55 49.46"/><path class="cls-1" d="M24.34,66.53l-5.95-6A2,2,0,0,0,17,60H7A3.44,3.44,0,0,0,3.6,63.44v7.28h1V63.44A2.44,2.44,0,0,1,7,61H17l.12,0v6.79H23.9s0,.07,0,.11V85a1,1,0,0,1-1,1H5.57a1,1,0,0,1-1-1v-3.4h-1V85a2,2,0,0,0,2,2H22.94a2,2,0,0,0,2-2V67.92A2,2,0,0,0,24.34,66.53Zm-6.23.28v-5.1l5.1,5.1Z"/><rect class="cls-1" y="73.25" width="1.16" height="6.21"/><path class="cls-1" d="M6.61,78.83a2.44,2.44,0,0,0,.48-1.72V76H4.74v1H5.93v.24a1.29,1.29,0,0,1-.21.87,1,1,0,0,1-.88.36c-.69,0-1.08-.25-1.08-1.55V75.81c0-1.31.39-1.56,1.06-1.56.4,0,.89.12,1,.71l0,.23,1.09-.08v-.25c-.07-1.06-.84-1.67-2.11-1.67a2.08,2.08,0,0,0-1.71.7,2.68,2.68,0,0,0-.5,1.89V77A2.86,2.86,0,0,0,3,78.71a2.11,2.11,0,0,0,1.86.82A2.17,2.17,0,0,0,6.61,78.83Z"/><polygon class="cls-1" points="12.27 74.31 12.27 73.25 8.43 73.25 8.43 79.46 12.27 79.46 12.27 78.4 9.59 78.4 9.59 76.85 11.87 76.85 11.87 75.79 9.59 75.79 9.59 74.31 12.27 74.31"/><path class="cls-1" d="M15.39,78.47A1.32,1.32,0,0,1,14.2,78l-.13-.22-1,.61.13.21a2.34,2.34,0,0,0,2.14,1c1.41,0,2.21-.68,2.21-1.86A1.56,1.56,0,0,0,17,76.29a3,3,0,0,0-1.26-.47c-1-.27-1.13-.53-1.13-.88,0-.62.52-.71.83-.71a1.17,1.17,0,0,1,1,.39l.14.2.91-.6L17.28,74a2.09,2.09,0,0,0-1.85-.83,1.77,1.77,0,0,0-2,1.8c0,1,.53,1.54,1.83,1.87.79.19.79.19,1,.32a.63.63,0,0,1,.24.53C16.46,78.34,15.88,78.47,15.39,78.47Z"/><path class="cls-1" d="M24.52,96.53l-5.94-6a2,2,0,0,0-1.4-.58h-10a3.45,3.45,0,0,0-3.44,3.44v7.28h1V93.44A2.45,2.45,0,0,1,7.22,91h10l.11,0v6.79h6.79s0,.07,0,.11V115a1,1,0,0,1-1,1H5.76a1,1,0,0,1-1-1v-3.4h-1V115a2,2,0,0,0,2,2H23.13a2,2,0,0,0,2-2V97.92A2,2,0,0,0,24.52,96.53Zm-6.23.28v-5.1l5.11,5.1Z"/><path class="cls-1" d="M2.43,107a3.57,3.57,0,0,1-.08,1,.61.61,0,0,1-.63.43,1.13,1.13,0,0,1-.83-.37l-.2-.2-.69.86.17.16a2.21,2.21,0,0,0,1.59.61,1.64,1.64,0,0,0,1.59-.83A3.36,3.36,0,0,0,3.59,107v-3.73H2.43Z"/><path class="cls-1" d="M6.29,107.24h.92a2.08,2.08,0,0,0,1.51-.45,1.93,1.93,0,0,0,.57-1.55,2,2,0,0,0-.48-1.45,2,2,0,0,0-1.6-.54H5.12v6.21H6.29Zm.92-1H6.28V104.3h.93c.66,0,.92.27.92.94S7.87,106.19,7.21,106.19Z"/><path class="cls-1" d="M12.63,104.25c.4,0,.9.12,1,.71l0,.23,1.09-.08v-.25c-.07-1.06-.83-1.67-2.11-1.67a2.08,2.08,0,0,0-1.71.7,2.68,2.68,0,0,0-.5,1.89V107a2.86,2.86,0,0,0,.4,1.76,2.11,2.11,0,0,0,1.86.82,2.17,2.17,0,0,0,1.76-.7,2.44,2.44,0,0,0,.48-1.72V106H12.55v1h1.2v.24a1.28,1.28,0,0,1-.22.87,1,1,0,0,1-.88.36c-.69,0-1.08-.25-1.08-1.55v-1.11C11.57,104.5,12,104.25,12.63,104.25Z"/><path class="cls-1" d="M23.52,126.53l-5.95-6a2,2,0,0,0-1.39-.58h-10a3.44,3.44,0,0,0-3.44,3.44v7.28h1v-7.28A2.44,2.44,0,0,1,6.22,121h10l.11,0v6.79h6.79s0,.07,0,.11V145a1,1,0,0,1-1,1H4.75a1,1,0,0,1-1-1v-3.4h-1V145a2,2,0,0,0,2,2H22.12a2,2,0,0,0,2-2v-17.1A2,2,0,0,0,23.52,126.53Zm-6.23.28v-5.1l5.1,5.1Z"/><path class="cls-1" d="M4.17,135.24a2,2,0,0,0-.48-1.45,2,2,0,0,0-1.6-.54H0v6.21H1.16v-2.22h.93a2.08,2.08,0,0,0,1.51-.45A1.93,1.93,0,0,0,4.17,135.24Zm-1.16,0c0,.68-.26.95-.92.95H1.16V134.3h.93C2.75,134.3,3,134.57,3,135.24Z"/><path class="cls-1" d="M7.44,137.24A2.08,2.08,0,0,0,9,136.79a1.93,1.93,0,0,0,.57-1.55A2,2,0,0,0,9,133.79a2,2,0,0,0-1.6-.54H5.35v6.21H6.52v-2.22Zm0-1.05H6.51V134.3h.93c.66,0,.92.27.92.94S8.1,136.19,7.44,136.19Z"/><polygon class="cls-1" points="13.07 139.46 13.07 134.31 14.71 134.31 14.71 133.25 10.27 133.25 10.27 134.31 11.91 134.31 11.91 139.46 13.07 139.46"/><path class="cls-1" d="M23.52,156.53l-5.95-5.95a2,2,0,0,0-1.4-.58h-10a3.44,3.44,0,0,0-3.44,3.44v7.28h1v-7.28A2.44,2.44,0,0,1,6.22,151h10l.12,0v6.79h6.79s0,.07,0,.11V175a1,1,0,0,1-1,1H4.75a1,1,0,0,1-1-1v-3.4h-1V175a2,2,0,0,0,2,2H22.12a2,2,0,0,0,2-2v-17.1A2,2,0,0,0,23.52,156.53Zm-6.23.28v-5.1l5.1,5.1Z"/><path class="cls-1" d="M4.17,165.24a2,2,0,0,0-.48-1.45,2,2,0,0,0-1.6-.54H0v6.21H1.16v-2.22h.93a2.1,2.1,0,0,0,1.51-.45A1.93,1.93,0,0,0,4.17,165.24Zm-1.16,0c0,.68-.26.94-.92.94H1.16V164.3h.93C2.75,164.3,3,164.57,3,165.24Z"/><path class="cls-1" d="M7.44,167.24A2.08,2.08,0,0,0,9,166.79a1.93,1.93,0,0,0,.57-1.55A2,2,0,0,0,9,163.79a2,2,0,0,0-1.6-.54H5.35v6.21H6.52v-2.22Zm0-1.06H6.51V164.3h.93c.66,0,.92.27.92.94S8.1,166.18,7.44,166.18Z"/><polygon class="cls-1" points="13.07 169.46 13.07 164.31 14.71 164.31 14.71 163.25 10.26 163.25 10.26 164.31 11.91 164.31 11.91 169.46 13.07 169.46"/><polygon class="cls-1" points="16.53 169.46 17.71 167.3 18.95 169.46 20.25 169.46 18.44 166.3 20.15 163.25 18.87 163.25 17.8 165.2 16.69 163.25 15.39 163.25 17.07 166.21 15.26 169.46 16.53 169.46"/><path class="cls-1" d="M24.11,186.53l-5.95-5.95a2,2,0,0,0-1.39-.58h-10a3.44,3.44,0,0,0-3.44,3.44v7.28h1v-7.28A2.44,2.44,0,0,1,6.81,181h10l.11,0v6.79h6.79s0,.07,0,.11V205a1,1,0,0,1-1,1H5.34a1,1,0,0,1-1-1v-3.4h-1V205a2,2,0,0,0,2,2H22.71a2,2,0,0,0,2-2v-17.1A2,2,0,0,0,24.11,186.53Zm-6.23.28v-5.1l5.1,5.1Z"/><polygon class="cls-1" points="4.44 193.25 0 193.25 0 194.31 1.65 194.31 1.65 199.46 2.81 199.46 2.81 194.31 4.44 194.31 4.44 193.25"/><polygon class="cls-1" points="6.27 199.46 7.45 197.3 8.69 199.46 9.99 199.46 8.18 196.3 9.88 193.25 8.6 193.25 7.54 195.2 6.43 193.25 5.12 193.25 6.81 196.21 4.99 199.46 6.27 199.46"/><polygon class="cls-1" points="13.37 199.46 13.37 194.31 15 194.31 15 193.25 10.56 193.25 10.56 194.31 12.21 194.31 12.21 199.46 13.37 199.46"/><path class="cls-1" d="M23.53,216.53l-6-5.95a2,2,0,0,0-1.4-.58H6.23a3.45,3.45,0,0,0-3.45,3.44v7.28h1v-7.28A2.45,2.45,0,0,1,6.23,211h10l.11,0v6.79h6.79a.45.45,0,0,1,0,.11V235a1,1,0,0,1-1,1H4.76a1,1,0,0,1-1-1v-3.4h-1V235a2,2,0,0,0,2,2H22.13a2,2,0,0,0,2-2v-17.1A2,2,0,0,0,23.53,216.53Zm-6.24.28v-5.1l5.11,5.1Z"/><polygon class="cls-1" points="4.22 225.89 4.22 229.46 5.36 229.46 5.36 223.25 4.31 223.25 2.68 226.66 1.05 223.25 0 223.25 0 229.46 1.14 229.46 1.14 225.88 2.32 228.29 3.05 228.29 4.22 225.89"/><path class="cls-1" d="M9,227.24a2.12,2.12,0,0,0,1.51-.45,2.39,2.39,0,0,0,.08-3A2,2,0,0,0,9,223.25H6.94v6.21H8.1v-2.22Zm0-1.06H8.09V224.3H9c.66,0,.91.27.91.94S9.69,226.18,9,226.18Z"/><path class="cls-1" d="M14.44,224.25c.4,0,.9.12,1,.71l0,.23,1.09-.09v-.24c-.07-1.06-.83-1.67-2.11-1.67a2.11,2.11,0,0,0-1.71.7,2.73,2.73,0,0,0-.49,1.89V227a2.8,2.8,0,0,0,.4,1.76,2.08,2.08,0,0,0,1.85.82,2.15,2.15,0,0,0,1.76-.71,2.41,2.41,0,0,0,.48-1.71V226H14.37v1h1.19v.24a1.24,1.24,0,0,1-.22.86,1,1,0,0,1-.88.37c-.68,0-1.08-.25-1.08-1.56v-1.1C13.38,224.5,13.77,224.25,14.44,224.25Z"/><path class="cls-1" d="M24.35,246.53l-6-5.95A2,2,0,0,0,17,240H7.05a3.45,3.45,0,0,0-3.45,3.44v7.28h1v-7.28A2.45,2.45,0,0,1,7.05,241H17l.11,0v6.79H23.9a.43.43,0,0,1,0,.11V265a1,1,0,0,1-1,1H5.58a1,1,0,0,1-1-1v-3.4h-1V265a2,2,0,0,0,2,2H23a2,2,0,0,0,2-2v-17.1A2,2,0,0,0,24.35,246.53Zm-6.24.28v-5.1l5.11,5.1Z"/><polygon class="cls-1" points="5 259.46 3.18 256.3 4.89 253.25 3.61 253.25 2.55 255.2 1.44 253.25 0.13 253.25 1.82 256.2 0 259.46 1.28 259.46 2.46 257.3 3.69 259.46 5 259.46"/><polygon class="cls-1" points="5.73 253.25 5.73 259.46 9.58 259.46 9.58 258.4 6.89 258.4 6.89 253.25 5.73 253.25"/><path class="cls-1" d="M12.51,258.47a1.3,1.3,0,0,1-1.19-.49l-.13-.22-.95.61.13.21a2.34,2.34,0,0,0,2.14.95c1.41,0,2.21-.68,2.21-1.86a1.56,1.56,0,0,0-.64-1.38,3,3,0,0,0-1.27-.47c-1-.27-1.12-.53-1.12-.88,0-.62.52-.71.83-.71a1.17,1.17,0,0,1,1,.39l.14.2.91-.6L14.4,254a2.1,2.1,0,0,0-1.86-.83,1.77,1.77,0,0,0-2,1.8c0,1,.53,1.54,1.82,1.87.8.19.8.19,1,.32a.63.63,0,0,1,.24.53C13.57,258.34,13,258.47,12.51,258.47Z"/><path class="cls-1" d="M24.33,276.53l-5.95-5.95A2,2,0,0,0,17,270H7a3.44,3.44,0,0,0-3.44,3.44v7.28h1v-7.28A2.44,2.44,0,0,1,7,271H17l.11,0v6.79h6.79s0,.07,0,.11V295a1,1,0,0,1-1,1H5.56a1,1,0,0,1-1-1v-3.4h-1V295a2,2,0,0,0,2,2H22.93a2,2,0,0,0,2-2v-17.1A2,2,0,0,0,24.33,276.53Zm-6.23.28v-5.1l5.1,5.1Z"/><path class="cls-1" d="M4.17,285.24a2,2,0,0,0-.48-1.45,2,2,0,0,0-1.6-.54H0v6.21H1.16v-2.22h.93a2.08,2.08,0,0,0,1.51-.45A1.93,1.93,0,0,0,4.17,285.24Zm-1.16,0c0,.68-.26.95-.92.95H1.16V284.3h.93C2.75,284.3,3,284.57,3,285.24Z"/><path class="cls-1" d="M7.47,289.46a2.26,2.26,0,0,0,1.69-.6A2.41,2.41,0,0,0,9.75,287v-1.36a2.41,2.41,0,0,0-.6-1.84,2.27,2.27,0,0,0-1.73-.59H5.35v6.21H7.47Zm-1-1V284.3h.8a1.2,1.2,0,0,1,.92.27,1.6,1.6,0,0,1,.34,1.17V287a1.59,1.59,0,0,1-.34,1.17,1.17,1.17,0,0,1-.92.27Z"/><polygon class="cls-1" points="14.98 284.31 14.98 283.25 11.18 283.25 11.18 289.46 12.34 289.46 12.34 286.89 14.59 286.89 14.59 285.83 12.34 285.83 12.34 284.31 14.98 284.31"/><path class="cls-1" d="M24.32,306.53l-5.95-5.95A2,2,0,0,0,17,300H7a3.44,3.44,0,0,0-3.44,3.44v7.28h1v-7.28A2.44,2.44,0,0,1,7,301H17l.11,0v6.79h6.79s0,.07,0,.11V325a1,1,0,0,1-1,1H5.55a1,1,0,0,1-1-1v-3.4h-1V325a2,2,0,0,0,2,2H22.92a2,2,0,0,0,2-2v-17.1A2,2,0,0,0,24.32,306.53Zm-6.23.28v-5.1l5.1,5.1Z"/><path class="cls-1" d="M4.48,317.67a1.55,1.55,0,0,0-.65-1.38,3,3,0,0,0-1.26-.47c-1-.27-1.12-.53-1.12-.88,0-.62.52-.71.83-.71a1.14,1.14,0,0,1,1,.39l.14.2.92-.6L4.16,314a2.1,2.1,0,0,0-1.86-.83,1.77,1.77,0,0,0-2,1.8c0,1,.53,1.54,1.82,1.87.8.19.8.19,1,.32a.63.63,0,0,1,.24.53c0,.64-.58.77-1.06.77A1.3,1.3,0,0,1,1.08,318l-.14-.22-.94.61.13.21a2.34,2.34,0,0,0,2.14.95C3.67,319.53,4.48,318.85,4.48,317.67Z"/><polygon class="cls-1" points="8.05 319.46 8.05 314.31 9.68 314.31 9.68 313.25 5.24 313.25 5.24 314.31 6.88 314.31 6.88 319.46 8.05 319.46"/><polygon class="cls-1" points="14.64 314.31 14.64 313.25 10.8 313.25 10.8 319.46 14.65 319.46 14.65 318.4 11.96 318.4 11.96 316.85 14.25 316.85 14.25 315.79 11.96 315.79 11.96 314.31 14.64 314.31"/><path class="cls-1" d="M17.93,317.24a2.08,2.08,0,0,0,1.51-.45,1.93,1.93,0,0,0,.57-1.55,1.8,1.8,0,0,0-2.08-2H15.84v6.21H17v-2.22Zm0-1.05H17V314.3h.93c.66,0,.92.27.92.94S18.59,316.19,17.93,316.19Z"/><path class="cls-1" d="M24.31,336.53l-5.95-5.95A2,2,0,0,0,17,330H7a3.44,3.44,0,0,0-3.44,3.44v7.28h1v-7.28A2.44,2.44,0,0,1,7,331H17l.11,0v6.79h6.79s0,.07,0,.11V355a1,1,0,0,1-1,1H5.54a1,1,0,0,1-1-1v-3.4h-1V355a2,2,0,0,0,2,2H22.91a2,2,0,0,0,2-2v-17.1A2,2,0,0,0,24.31,336.53Zm-6.23.28v-5.1l5.1,5.1Z"/><path class="cls-1" d="M4.17,345.24a2,2,0,0,0-.48-1.45,2,2,0,0,0-1.6-.54H0v6.21H1.16v-2.22h.93a2.08,2.08,0,0,0,1.51-.45A1.93,1.93,0,0,0,4.17,345.24Zm-1.16,0c0,.68-.26.95-.92.95H1.16V344.3h.93C2.75,344.3,3,344.57,3,345.24Z"/><polygon class="cls-1" points="6.5 345.52 8.93 349.46 9.95 349.46 9.95 343.25 8.81 343.25 8.81 347.19 6.38 343.25 5.35 343.25 5.35 349.46 6.5 349.46 6.5 345.52"/><path class="cls-1" d="M13.6,344.25c.4,0,.9.12,1,.71l0,.23,1.09-.08v-.25c-.06-1.06-.83-1.67-2.11-1.67a2.07,2.07,0,0,0-1.7.7,2.68,2.68,0,0,0-.5,1.89V347a2.8,2.8,0,0,0,.4,1.76,2.08,2.08,0,0,0,1.85.82,2.17,2.17,0,0,0,1.76-.7,2.44,2.44,0,0,0,.48-1.72V346H13.53v1h1.19v.24a1.28,1.28,0,0,1-.22.87,1,1,0,0,1-.87.36c-.69,0-1.09-.25-1.09-1.55v-1.11C12.54,344.5,12.93,344.25,13.6,344.25Z"/><path class="cls-1" d="M25.13,366.53l-5.94-5.95a2,2,0,0,0-1.4-.58h-10a3.45,3.45,0,0,0-3.44,3.44v7.28h1v-7.28A2.45,2.45,0,0,1,7.83,361h10l.11,0v6.79h6.79a.43.43,0,0,1,0,.11V385a1,1,0,0,1-1,1H6.37a1,1,0,0,1-1-1v-3.4h-1V385a2,2,0,0,0,2,2H23.74a2,2,0,0,0,2-2v-17.1A2,2,0,0,0,25.13,366.53Zm-6.23.28v-5.1l5.11,5.1Z"/><polygon class="cls-1" points="3.18 376.3 4.89 373.25 3.61 373.25 2.55 375.2 1.44 373.25 0.13 373.25 1.82 376.2 0 379.46 1.28 379.46 2.45 377.3 3.69 379.46 5 379.46 3.18 376.3"/><polygon class="cls-1" points="11.09 379.46 11.09 373.25 10.04 373.25 8.41 376.66 6.77 373.25 5.73 373.25 5.73 379.46 6.87 379.46 6.87 375.89 8.04 378.29 8.78 378.29 9.95 375.89 9.95 379.46 11.09 379.46"/><polygon class="cls-1" points="12.65 373.25 12.65 379.46 16.5 379.46 16.5 378.4 13.82 378.4 13.82 373.25 12.65 373.25"/><path class="cls-1" d="M24.32,396.53l-5.95-5.95A2,2,0,0,0,17,390H7a3.44,3.44,0,0,0-3.44,3.44v7.28h1v-7.28A2.44,2.44,0,0,1,7,391H17l.11,0v6.79h6.79s0,.07,0,.11V415a1,1,0,0,1-1,1H5.55a1,1,0,0,1-1-1v-3.4h-1V415a2,2,0,0,0,2,2H22.92a2,2,0,0,0,2-2v-17.1A2,2,0,0,0,24.32,396.53Zm-6.23.28v-5.1l5.1,5.1Z"/><path class="cls-1" d="M4.39,407v-1.36a2.37,2.37,0,0,0-.59-1.84,2.39,2.39,0,0,0-1.73-.59H0v6.21H2.12a2.26,2.26,0,0,0,1.69-.6A2.37,2.37,0,0,0,4.39,407Zm-1.16-1.3V407a1.59,1.59,0,0,1-.34,1.17,1.17,1.17,0,0,1-.92.27H1.16V404.3H2a1.21,1.21,0,0,1,.92.27A1.6,1.6,0,0,1,3.23,405.74Z"/><polygon class="cls-1" points="7.7 409.46 8.78 405.59 9.86 409.46 10.81 409.46 12.38 403.25 11.19 403.25 10.28 407.17 9.2 403.25 8.35 403.25 7.27 407.17 6.37 403.25 5.18 403.25 6.74 409.46 7.7 409.46"/><path class="cls-1" d="M15.39,404.25c.4,0,.9.12,1,.71l0,.23,1.1-.08,0-.25c-.06-1.06-.83-1.67-2.1-1.67a2.08,2.08,0,0,0-1.71.7,2.63,2.63,0,0,0-.5,1.89V407a2.86,2.86,0,0,0,.4,1.76,2.08,2.08,0,0,0,1.85.82,2.16,2.16,0,0,0,1.76-.7,2.44,2.44,0,0,0,.49-1.72V406H15.32v1h1.19v.24a1.28,1.28,0,0,1-.22.87,1,1,0,0,1-.87.36c-.69,0-1.09-.25-1.09-1.55v-1.11C14.33,404.5,14.72,404.25,15.39,404.25Z"/><path class="cls-1" d="M24.88,426.53l-5.94-5.95a2,2,0,0,0-1.4-.58h-10a3.45,3.45,0,0,0-3.44,3.44v7.28h1v-7.28A2.45,2.45,0,0,1,7.58,421h10l.11,0v6.79h6.79s0,.07,0,.11V445a1,1,0,0,1-1,1H6.12a1,1,0,0,1-1-1v-3.4h-1V445a2,2,0,0,0,2,2H23.49a2,2,0,0,0,2-2v-17.1A2,2,0,0,0,24.88,426.53Zm-6.23.28v-5.1l5.11,5.1Z"/><path class="cls-1" d="M3.83,436.29a3,3,0,0,0-1.26-.47c-1-.27-1.12-.53-1.12-.88,0-.62.52-.71.83-.71a1.14,1.14,0,0,1,1,.39l.14.2.92-.6L4.16,434a2.1,2.1,0,0,0-1.86-.83,1.77,1.77,0,0,0-2,1.8c0,1,.53,1.54,1.82,1.87.8.19.8.19,1,.32a.63.63,0,0,1,.24.53c0,.64-.58.77-1.06.77A1.3,1.3,0,0,1,1.08,438l-.14-.22-.94.61.13.21a2.34,2.34,0,0,0,2.14.95c1.4,0,2.21-.68,2.21-1.86A1.55,1.55,0,0,0,3.83,436.29Z"/><polygon class="cls-1" points="8.05 439.46 8.05 434.31 9.68 434.31 9.68 433.25 5.24 433.25 5.24 434.31 6.88 434.31 6.88 439.46 8.05 439.46"/><path class="cls-1" d="M12.9,437.24a2.08,2.08,0,0,0,1.51-.45,1.93,1.93,0,0,0,.57-1.55,1.8,1.8,0,0,0-2.08-2H10.81v6.21H12v-2.22Zm0-1.05H12V434.3h.93c.66,0,.92.27.92.94S13.56,436.19,12.9,436.19Z"/><path class="cls-1" d="M24.32,456.53l-5.95-5.95A2,2,0,0,0,17,450H7a3.44,3.44,0,0,0-3.44,3.44v7.28h1v-7.28A2.44,2.44,0,0,1,7,451H17l.12,0v6.79h6.79s0,.07,0,.11V475a1,1,0,0,1-1,1H5.55a1,1,0,0,1-1-1v-3.4h-1V475a2,2,0,0,0,2,2H22.92a2,2,0,0,0,2-2v-17.1A2,2,0,0,0,24.32,456.53Zm-6.23.28v-5.1l5.1,5.1Z"/><polygon class="cls-1" points="4.22 469.46 5.36 469.46 5.36 463.25 4.31 463.25 2.68 466.66 1.05 463.25 0 463.25 0 469.46 1.14 469.46 1.14 465.88 2.32 468.29 3.05 468.29 4.22 465.89 4.22 469.46"/><path class="cls-1" d="M9,467.24a2.13,2.13,0,0,0,1.52-.45,2.39,2.39,0,0,0,.08-3,2,2,0,0,0-1.6-.54H6.94v6.21H8.1v-2.22Zm0-1.06H8.09V464.3H9c.66,0,.92.27.92.94S9.68,466.18,9,466.18Z"/><polygon class="cls-1" points="13.67 463.25 11.78 467.64 11.76 468.4 14.08 468.4 14.08 469.46 15.19 469.46 15.19 468.41 15.75 468.41 15.75 467.35 15.19 467.35 15.19 465.6 14.08 465.6 14.08 467.35 13.14 467.35 14.92 463.25 13.67 463.25"/><path class="cls-1" d="M24.36,486.53l-5.95-5.95A2,2,0,0,0,17,480h-10a3.44,3.44,0,0,0-3.44,3.44v7.28h1v-7.28A2.44,2.44,0,0,1,7.06,481H17l.11,0v6.79h6.79s0,.07,0,.11V505a1,1,0,0,1-1,1H5.59a1,1,0,0,1-1-1v-3.4h-1V505a2,2,0,0,0,2,2H23a2,2,0,0,0,2-2v-17.1A2,2,0,0,0,24.36,486.53Zm-6.23.28v-5.1l5.1,5.1Z"/><path class="cls-1" d="M4.39,497v-1.36a2.37,2.37,0,0,0-.59-1.84,2.36,2.36,0,0,0-1.73-.59H0v6.21H2.11a2.27,2.27,0,0,0,1.7-.6A2.37,2.37,0,0,0,4.39,497Zm-1.16-1.3V497a1.59,1.59,0,0,1-.34,1.17,1.21,1.21,0,0,1-.92.27H1.16V494.3H2a1.21,1.21,0,0,1,.92.27A1.6,1.6,0,0,1,3.23,495.74Z"/><path class="cls-1" d="M7.94,499.53a2.14,2.14,0,0,0,1.72-.67,2.4,2.4,0,0,0,.54-1.8v-1.41A2.55,2.55,0,0,0,9.76,494a2.12,2.12,0,0,0-1.82-.78,2.17,2.17,0,0,0-1.72.67,2.49,2.49,0,0,0-.53,1.8v1.41a2.61,2.61,0,0,0,.44,1.69A2.11,2.11,0,0,0,7.94,499.53ZM6.85,497v-1.28a1.88,1.88,0,0,1,.22-1.07.93.93,0,0,1,.87-.41.92.92,0,0,1,.84.36A1.66,1.66,0,0,1,9,495.72V497a1.86,1.86,0,0,1-.22,1.06.93.93,0,0,1-.88.41.91.91,0,0,1-.83-.36A1.64,1.64,0,0,1,6.85,497Z"/><path class="cls-1" d="M13.67,494.25c.55,0,.87.24.93.71l0,.23,1.09-.08v-.25c-.06-1.05-.82-1.67-2-1.67a2,2,0,0,0-1.7.71,2.77,2.77,0,0,0-.47,1.87V497a2.91,2.91,0,0,0,.38,1.75,2,2,0,0,0,1.78.83c1.25,0,2-.61,2.1-1.65l0-.23-1.1-.13,0,.24a.86.86,0,0,1-1,.71c-.66,0-1-.25-1-1.56V495.8C12.66,494.5,13,494.25,13.67,494.25Z"/><path class="cls-1" d="M24.34,516.53l-5.95-5.95A2,2,0,0,0,17,510H7a3.44,3.44,0,0,0-3.44,3.44v7.28h1v-7.28A2.44,2.44,0,0,1,7,511H17l.12,0v6.79H23.9s0,.07,0,.11V535a1,1,0,0,1-1,1H5.57a1,1,0,0,1-1-1v-3.4h-1V535a2,2,0,0,0,2,2H22.94a2,2,0,0,0,2-2v-17.1A2,2,0,0,0,24.34,516.53Zm-6.23.28v-5.1l5.1,5.1Z"/><path class="cls-1" d="M4.39,527v-1.36a2.37,2.37,0,0,0-.59-1.84,2.37,2.37,0,0,0-1.73-.59H0v6.21H2.11a2.27,2.27,0,0,0,1.7-.6A2.37,2.37,0,0,0,4.39,527Zm-1.16-1.3V527a1.59,1.59,0,0,1-.34,1.17,1.25,1.25,0,0,1-.92.27H1.16V524.3H2a1.21,1.21,0,0,1,.92.27A1.6,1.6,0,0,1,3.23,525.74Z"/><polygon class="cls-1" points="6.19 529.46 7.37 527.3 8.61 529.46 9.91 529.46 8.1 526.3 9.8 523.25 8.52 523.25 7.46 525.2 6.35 523.25 5.04 523.25 6.73 526.21 4.91 529.46 6.19 529.46"/><polygon class="cls-1" points="14.45 524.31 14.45 523.25 10.64 523.25 10.64 529.46 11.8 529.46 11.8 526.89 14.05 526.89 14.05 525.83 11.8 525.83 11.8 524.31 14.45 524.31"/><path class="cls-1" d="M24.28,546.53l-6-5.95a2,2,0,0,0-1.4-.58H7a3.45,3.45,0,0,0-3.45,3.44v7.28h1v-7.28A2.45,2.45,0,0,1,7,541h10l.11,0v6.79h6.79a.43.43,0,0,1,0,.11V565a1,1,0,0,1-1,1H5.51a1,1,0,0,1-1-1v-3.4h-1V565a2,2,0,0,0,2,2H22.88a2,2,0,0,0,2-2v-17.1A2,2,0,0,0,24.28,546.53Zm-6.24.28v-5.1l5.11,5.1Z"/><polygon class="cls-1" points="4.22 559.46 5.36 559.46 5.36 553.25 4.31 553.25 2.68 556.66 1.05 553.25 0 553.25 0 559.46 1.14 559.46 1.14 555.89 2.32 558.29 3.05 558.29 4.22 555.89 4.22 559.46"/><path class="cls-1" d="M8.63,558.47A1.3,1.3,0,0,1,7.44,558l-.13-.22-.95.61.13.21a2.34,2.34,0,0,0,2.14.95c1.41,0,2.21-.68,2.21-1.86a1.56,1.56,0,0,0-.64-1.38,3,3,0,0,0-1.27-.47c-1-.27-1.12-.53-1.12-.88,0-.62.52-.71.83-.71a1.17,1.17,0,0,1,1,.39l.14.2.91-.6-.14-.21a2.09,2.09,0,0,0-1.85-.83,1.77,1.77,0,0,0-2,1.8c0,1,.53,1.54,1.82,1.87.8.19.8.19,1,.32a.62.62,0,0,1,.23.53C9.69,558.34,9.12,558.47,8.63,558.47Z"/><path class="cls-1" d="M14.18,554.25c.41,0,.9.12,1,.71l0,.23,1.1-.08,0-.25c-.06-1.06-.83-1.67-2.1-1.67a2.08,2.08,0,0,0-1.71.7,2.68,2.68,0,0,0-.5,1.89V557a2.86,2.86,0,0,0,.4,1.76,2.08,2.08,0,0,0,1.86.82,2.18,2.18,0,0,0,1.76-.7,2.51,2.51,0,0,0,.48-1.72V556H14.11v1H15.3v.24a1.24,1.24,0,0,1-.22.86,1,1,0,0,1-.87.37c-.69,0-1.09-.25-1.09-1.55v-1.11C13.12,554.5,13.51,554.25,14.18,554.25Z"/><path class="cls-1" d="M24.26,576.53l-5.94-5.95a2,2,0,0,0-1.4-.58H7a3.45,3.45,0,0,0-3.44,3.44v7.28h1v-7.28A2.45,2.45,0,0,1,7,571h10l.11,0v6.79h6.79a.43.43,0,0,1,0,.11V595a1,1,0,0,1-1,1H5.5a1,1,0,0,1-1-1v-3.4h-1V595a2,2,0,0,0,2,2H22.87a2,2,0,0,0,2-2v-17.1A2,2,0,0,0,24.26,576.53Zm-6.23.28v-5.1l5.11,5.1Z"/><polygon class="cls-1" points="4.01 588.4 1.42 588.4 3.88 584.04 3.88 583.25 0.14 583.25 0.14 584.31 2.46 584.31 0 588.67 0 589.46 4.01 589.46 4.01 588.4"/><rect class="cls-1" x="5.23" y="583.25" width="1.16" height="6.21"/><path class="cls-1" d="M10.06,587.24a2.1,2.1,0,0,0,1.51-.45,1.93,1.93,0,0,0,.57-1.55,2,2,0,0,0-.48-1.45,2,2,0,0,0-1.6-.54H8v6.21H9.13v-2.22Zm0-1H9.12V584.3h.94c.66,0,.91.27.91.94S10.72,586.19,10.06,586.19Z"/><path class="cls-1" d="M23.84,606.53l-5.95-5.95A2,2,0,0,0,16.5,600h-10a3.44,3.44,0,0,0-3.44,3.44v7.28h1v-7.28A2.44,2.44,0,0,1,6.54,601h10l.11,0v6.79H23.4s0,.07,0,.11V625a1,1,0,0,1-1,1H5.07a1,1,0,0,1-1-1v-3.4h-1V625a2,2,0,0,0,2,2H22.44a2,2,0,0,0,2-2v-17.1A2,2,0,0,0,23.84,606.53Zm-6.23.28v-5.1l5.1,5.1Z"/><path class="cls-1" d="M4.34,617.67a2.06,2.06,0,0,0-.28-1.1,1.12,1.12,0,0,0-.32-.36A1.56,1.56,0,0,0,4.23,615a1.77,1.77,0,0,0-.53-1.32,1.85,1.85,0,0,0-1.35-.41H0v6.21H2.46a1.81,1.81,0,0,0,1.28-.36A1.76,1.76,0,0,0,4.34,617.67Zm-3.18-.86H2.42a.65.65,0,0,1,.51.14.88.88,0,0,1,.24.67.91.91,0,0,1-.2.63.72.72,0,0,1-.55.16H1.16Zm1.7-1.2a.77.77,0,0,1-.56.14H1.16V614.3H2.3a.77.77,0,0,1,.53.13.76.76,0,0,1,.23.6A.84.84,0,0,1,2.86,615.61Z"/><polygon class="cls-1" points="10.87 619.46 10.87 613.25 9.83 613.25 8.19 616.66 6.56 613.25 5.51 613.25 5.51 619.46 6.65 619.46 6.65 615.89 7.83 618.29 8.56 618.29 9.73 615.89 9.73 619.46 10.87 619.46"/><path class="cls-1" d="M14.54,617.24a2.1,2.1,0,0,0,1.51-.45,1.93,1.93,0,0,0,.57-1.55,2,2,0,0,0-.49-1.45,2,2,0,0,0-1.59-.54H12.45v6.21h1.16v-2.22Zm0-1H13.6V614.3h.94c.66,0,.91.27.91.94S15.2,616.19,14.54,616.19Z"/><path class="cls-1" d="M24,636.53,18,630.58a2,2,0,0,0-1.4-.58H6.68a3.45,3.45,0,0,0-3.45,3.44v7.28h1v-7.28A2.45,2.45,0,0,1,6.68,631h10l.11,0v6.79h6.79a.43.43,0,0,1,0,.11V655a1,1,0,0,1-1,1H5.21a1,1,0,0,1-1-1v-3.4h-1V655a2,2,0,0,0,2,2H22.58a2,2,0,0,0,2-2v-17.1A2,2,0,0,0,24,636.53Zm-6.24.28v-5.1l5.11,5.1Z"/><path class="cls-1" d="M4.5,647.11V646H2.15v1H3.34v.24a1.35,1.35,0,0,1-.21.87,1,1,0,0,1-.88.36c-.69,0-1.09-.25-1.09-1.55v-1.11c0-1.31.39-1.56,1.06-1.56.41,0,.9.12,1,.71l0,.23,1.1-.08,0-.25c-.06-1.06-.83-1.67-2.1-1.67a2.08,2.08,0,0,0-1.71.7,2.68,2.68,0,0,0-.5,1.89V647a2.86,2.86,0,0,0,.4,1.76,2.11,2.11,0,0,0,1.86.82,2.18,2.18,0,0,0,1.76-.7A2.49,2.49,0,0,0,4.5,647.11Z"/><rect class="cls-1" x="5.84" y="643.25" width="1.16" height="6.21"/><polygon class="cls-1" points="12.38 644.31 12.38 643.25 8.57 643.25 8.57 649.46 9.73 649.46 9.73 646.89 11.98 646.89 11.98 645.83 9.73 645.83 9.73 644.31 12.38 644.31"/><path class="cls-1" d="M24.78,666.53l-6-5.95a2,2,0,0,0-1.4-.58H7.48A3.44,3.44,0,0,0,4,663.44v7.28H5v-7.28A2.44,2.44,0,0,1,7.48,661h10l.12,0v6.79h6.79s0,.07,0,.11V685a1,1,0,0,1-1,1H6a1,1,0,0,1-1-1v-3.4H4V685a2,2,0,0,0,2,2H23.38a2,2,0,0,0,2-2v-17.1A2,2,0,0,0,24.78,666.53Zm-6.23.28v-5.1l5.1,5.1Z"/><path class="cls-1" d="M5.52,679.46l-2.27-6.21h-1L0,679.46H1.25l.44-1.25H3.83l.44,1.25ZM2,677.16l.72-2.06.73,2.06Z"/><polygon class="cls-1" points="8.1 679.46 10.17 673.25 8.96 673.25 7.64 677.42 6.31 673.25 5.11 673.25 7.18 679.46 8.1 679.46"/><rect class="cls-1" x="11.12" y="673.25" width="1.16" height="6.21"/><path class="cls-1" d="M24.52,696.53l-5.95-5.95a2,2,0,0,0-1.4-.58h-10a3.44,3.44,0,0,0-3.44,3.44v7.28h1v-7.28A2.44,2.44,0,0,1,7.22,691h10l.12,0v6.79h6.79s0,.07,0,.11V715a1,1,0,0,1-1,1H5.75a1,1,0,0,1-1-1v-3.4h-1V715a2,2,0,0,0,2,2H23.12a2,2,0,0,0,2-2v-17.1A2,2,0,0,0,24.52,696.53Zm-6.23.28v-5.1l5.1,5.1Z"/><polygon class="cls-1" points="5.63 709.46 7.2 703.25 6.01 703.25 5.1 707.17 4.02 703.25 3.17 703.25 2.09 707.16 1.19 703.25 0 703.25 1.57 709.46 2.52 709.46 3.6 705.59 4.68 709.46 5.63 709.46"/><polygon class="cls-1" points="13.61 709.46 13.61 703.25 12.56 703.25 10.93 706.66 9.29 703.25 8.25 703.25 8.25 709.46 9.39 709.46 9.39 705.88 10.56 708.29 11.3 708.29 12.47 705.89 12.47 709.46 13.61 709.46"/><polygon class="cls-1" points="19.39 703.25 18.19 703.25 16.86 707.42 15.54 703.25 14.33 703.25 16.4 709.46 17.32 709.46 19.39 703.25"/><path class="cls-1" d="M24.52,726.53l-5.94-5.95a2,2,0,0,0-1.4-.58h-10a3.44,3.44,0,0,0-3.44,3.44V745a2,2,0,0,0,2,2H23.13a2,2,0,0,0,2-2v-17.1A2,2,0,0,0,24.52,726.53Zm-6.23-4.82,5.11,5.1H18.29ZM24.1,745a1,1,0,0,1-1,1H5.76a1,1,0,0,1-1-1V723.44A2.45,2.45,0,0,1,7.22,721h10l.11,0v6.79h6.79s0,.07,0,.11Z"/><path class="cls-2" d="M24.35,756.53l-6-5.95A2,2,0,0,0,17,750H7.05a3.45,3.45,0,0,0-3.45,3.44v7.28h1v-7.28A2.45,2.45,0,0,1,7.05,751H17l.11,0v6.79H23.9a.45.45,0,0,1,0,.11V775a1,1,0,0,1-1,1H5.58a1,1,0,0,1-1-1v-3.4h-1V775a2,2,0,0,0,2,2H23a2,2,0,0,0,2-2v-17.1A2,2,0,0,0,24.35,756.53Zm-6.24.28v-5.1l5.11,5.1Z"/><polygon class="cls-2" points="5 769.46 3.19 766.3 4.89 763.25 3.61 763.25 2.55 765.2 1.44 763.25 0.13 763.25 1.82 766.21 0 769.46 1.28 769.46 2.46 767.3 3.7 769.46 5 769.46"/><polygon class="cls-2" points="5.73 763.25 5.73 769.46 9.58 769.46 9.58 768.4 6.89 768.4 6.89 763.25 5.73 763.25"/><path class="cls-2" d="M12.51,768.47a1.3,1.3,0,0,1-1.19-.49l-.13-.22-.95.61.13.21a2.34,2.34,0,0,0,2.14.95c1.41,0,2.21-.68,2.21-1.86a1.56,1.56,0,0,0-.64-1.38,3,3,0,0,0-1.27-.47c-1-.27-1.12-.53-1.12-.88,0-.62.52-.71.83-.71a1.17,1.17,0,0,1,1,.39l.14.2.91-.6L14.4,764a2.1,2.1,0,0,0-1.86-.83,1.77,1.77,0,0,0-2,1.8c0,1,.53,1.54,1.82,1.87.8.19.8.19,1,.32a.65.65,0,0,1,.23.53C13.57,768.34,13,768.47,12.51,768.47Z"/><polygon class="cls-2" points="16.3 769.46 17.48 767.3 18.72 769.46 20.02 769.46 18.21 766.3 19.91 763.25 18.64 763.25 17.57 765.2 16.46 763.25 15.15 763.25 16.84 766.21 15.02 769.46 16.3 769.46"/><path class="cls-2" d="M24.4,786.53l-5.95-5.95a2,2,0,0,0-1.4-.58H7.1a3.45,3.45,0,0,0-3.45,3.44v7.28h1v-7.28A2.45,2.45,0,0,1,7.1,781h10l.11,0v6.79H24a.45.45,0,0,1,0,.11V805a1,1,0,0,1-1,1H5.63a1,1,0,0,1-1-1v-3.4h-1V805a2,2,0,0,0,2,2H23a2,2,0,0,0,2-2v-17.1A2,2,0,0,0,24.4,786.53Zm-6.24.28v-5.1l5.11,5.1Z"/><path class="cls-2" d="M4.39,797v-1.36a2.37,2.37,0,0,0-.59-1.84,2.32,2.32,0,0,0-1.73-.59H0v6.21H2.11a2.27,2.27,0,0,0,1.7-.6A2.37,2.37,0,0,0,4.39,797Zm-1.16-1.3V797a1.59,1.59,0,0,1-.34,1.17,1.21,1.21,0,0,1-.92.27H1.16V794.3H2a1.3,1.3,0,0,1,.92.27A1.6,1.6,0,0,1,3.23,795.74Z"/><path class="cls-2" d="M7.94,799.53a2.14,2.14,0,0,0,1.72-.67,2.4,2.4,0,0,0,.54-1.8v-1.41A2.55,2.55,0,0,0,9.76,794a2.12,2.12,0,0,0-1.82-.78,2.17,2.17,0,0,0-1.72.67,2.49,2.49,0,0,0-.53,1.8v1.41a2.61,2.61,0,0,0,.44,1.69A2.11,2.11,0,0,0,7.94,799.53ZM6.85,797v-1.28a1.88,1.88,0,0,1,.22-1.07.93.93,0,0,1,.87-.41.94.94,0,0,1,.84.36A1.66,1.66,0,0,1,9,795.72V797a1.86,1.86,0,0,1-.22,1.06.93.93,0,0,1-.88.41.91.91,0,0,1-.83-.36A1.64,1.64,0,0,1,6.85,797Z"/><path class="cls-2" d="M13.67,794.25c.55,0,.87.24.93.71l0,.23,1.09-.08v-.25c-.06-1.05-.82-1.67-2-1.67a2,2,0,0,0-1.7.71,2.77,2.77,0,0,0-.47,1.87V797a2.91,2.91,0,0,0,.38,1.75,2,2,0,0,0,1.78.83c1.25,0,2-.61,2.1-1.65l0-.23-1.1-.13,0,.24a.86.86,0,0,1-1,.71c-.66,0-1-.25-1-1.56V795.8C12.66,794.5,13,794.25,13.67,794.25Z"/><polygon class="cls-2" points="17.55 799.46 18.73 797.3 19.97 799.46 21.27 799.46 19.46 796.3 21.16 793.25 19.88 793.25 18.82 795.2 17.71 793.25 16.4 793.25 18.09 796.21 16.27 799.46 17.55 799.46"/><path class="cls-2" d="M24.34,816.53l-5.95-5.95A2,2,0,0,0,17,810H7a3.44,3.44,0,0,0-3.44,3.44v7.28h1v-7.28A2.44,2.44,0,0,1,7,811H17l.12,0v6.79H23.9s0,.07,0,.11V835a1,1,0,0,1-1,1H5.57a1,1,0,0,1-1-1v-3.4h-1V835a2,2,0,0,0,2,2H22.94a2,2,0,0,0,2-2v-17.1A2,2,0,0,0,24.34,816.53Zm-6.23.28v-5.1l5.1,5.1Z"/><rect class="cls-2" y="823.25" width="1.16" height="6.21"/><path class="cls-2" d="M6.61,828.83a2.44,2.44,0,0,0,.48-1.72V826H4.74v1H5.93v.24a1.29,1.29,0,0,1-.21.87,1,1,0,0,1-.88.36c-.69,0-1.08-.25-1.08-1.55v-1.11c0-1.31.39-1.56,1.06-1.56.4,0,.89.12,1,.71l0,.23,1.09-.08v-.25c-.07-1.06-.84-1.67-2.11-1.67a2.08,2.08,0,0,0-1.71.7,2.68,2.68,0,0,0-.5,1.89V827a2.86,2.86,0,0,0,.4,1.76,2.11,2.11,0,0,0,1.86.82A2.17,2.17,0,0,0,6.61,828.83Z"/><polygon class="cls-2" points="12.27 824.31 12.27 823.25 8.43 823.25 8.43 829.46 12.27 829.46 12.27 828.4 9.59 828.4 9.59 826.85 11.87 826.85 11.87 825.79 9.59 825.79 9.59 824.31 12.27 824.31"/><path class="cls-2" d="M15.39,828.47A1.32,1.32,0,0,1,14.2,828l-.13-.22-1,.61.13.21a2.34,2.34,0,0,0,2.14.95c1.41,0,2.21-.68,2.21-1.86a1.56,1.56,0,0,0-.64-1.38,3,3,0,0,0-1.26-.47c-1-.27-1.13-.53-1.13-.88,0-.62.52-.71.83-.71a1.17,1.17,0,0,1,1,.39l.14.2.91-.6-.14-.21a2.09,2.09,0,0,0-1.85-.83,1.77,1.77,0,0,0-2,1.8c0,1,.53,1.54,1.83,1.87.79.19.79.19,1,.32a.63.63,0,0,1,.24.53C16.46,828.34,15.88,828.47,15.39,828.47Z"/><path class="cls-2" d="M24.52,846.53l-5.94-5.95a2,2,0,0,0-1.4-.58h-10a3.45,3.45,0,0,0-3.44,3.44v7.28h1v-7.28A2.45,2.45,0,0,1,7.22,841h10l.11,0v6.79h6.79s0,.07,0,.11V865a1,1,0,0,1-1,1H5.76a1,1,0,0,1-1-1v-3.4h-1V865a2,2,0,0,0,2,2H23.13a2,2,0,0,0,2-2v-17.1A2,2,0,0,0,24.52,846.53Zm-6.23.28v-5.1l5.11,5.1Z"/><path class="cls-2" d="M2.43,857a3.57,3.57,0,0,1-.08,1,.61.61,0,0,1-.63.43,1.13,1.13,0,0,1-.83-.37l-.2-.2-.69.86.17.16a2.21,2.21,0,0,0,1.59.61,1.64,1.64,0,0,0,1.59-.83A3.36,3.36,0,0,0,3.59,857v-3.73H2.43Z"/><path class="cls-2" d="M6.29,857.24h.92a2.08,2.08,0,0,0,1.51-.45,1.93,1.93,0,0,0,.57-1.55,2,2,0,0,0-.48-1.45,2,2,0,0,0-1.6-.54H5.12v6.21H6.29Zm.92-1H6.28V854.3h.93c.66,0,.92.27.92.94S7.87,856.19,7.21,856.19Z"/><path class="cls-2" d="M12.63,854.25c.4,0,.9.12,1,.71l0,.23,1.09-.08v-.25c-.07-1.06-.83-1.67-2.11-1.67a2.08,2.08,0,0,0-1.71.7,2.68,2.68,0,0,0-.5,1.89V857a2.86,2.86,0,0,0,.4,1.76,2.11,2.11,0,0,0,1.86.82,2.17,2.17,0,0,0,1.76-.7,2.44,2.44,0,0,0,.48-1.72V856H12.55v1h1.2v.24a1.28,1.28,0,0,1-.22.87,1,1,0,0,1-.88.36c-.69,0-1.08-.25-1.08-1.55v-1.11C11.57,854.5,12,854.25,12.63,854.25Z"/><path class="cls-2" d="M23.52,876.53l-5.95-5.95a2,2,0,0,0-1.39-.58h-10a3.44,3.44,0,0,0-3.44,3.44v7.28h1v-7.28A2.44,2.44,0,0,1,6.22,871h10l.11,0v6.79h6.79s0,.07,0,.11V895a1,1,0,0,1-1,1H4.75a1,1,0,0,1-1-1v-3.4h-1V895a2,2,0,0,0,2,2H22.12a2,2,0,0,0,2-2v-17.1A2,2,0,0,0,23.52,876.53Zm-6.23.28v-5.1l5.1,5.1Z"/><path class="cls-2" d="M4.17,885.24a2,2,0,0,0-.48-1.45,2,2,0,0,0-1.6-.54H0v6.21H1.16v-2.22h.93a2.08,2.08,0,0,0,1.51-.45A1.93,1.93,0,0,0,4.17,885.24Zm-1.16,0c0,.68-.26,1-.92,1H1.16V884.3h.93C2.75,884.3,3,884.57,3,885.24Z"/><path class="cls-2" d="M7.44,887.24A2.08,2.08,0,0,0,9,886.79a1.93,1.93,0,0,0,.57-1.55A2,2,0,0,0,9,883.79a2,2,0,0,0-1.6-.54H5.35v6.21H6.52v-2.22Zm0-1H6.51V884.3h.93c.66,0,.92.27.92.94S8.1,886.19,7.44,886.19Z"/><polygon class="cls-2" points="13.07 889.46 13.07 884.31 14.71 884.31 14.71 883.25 10.27 883.25 10.27 884.31 11.91 884.31 11.91 889.46 13.07 889.46"/><path class="cls-2" d="M23.52,906.53l-5.95-5.95a2,2,0,0,0-1.4-.58h-10a3.44,3.44,0,0,0-3.44,3.44v7.28h1v-7.28A2.44,2.44,0,0,1,6.22,901h10l.12,0v6.79h6.79s0,.07,0,.11V925a1,1,0,0,1-1,1H4.75a1,1,0,0,1-1-1v-3.4h-1V925a2,2,0,0,0,2,2H22.12a2,2,0,0,0,2-2v-17.1A2,2,0,0,0,23.52,906.53Zm-6.23.28v-5.1l5.1,5.1Z"/><path class="cls-2" d="M4.17,915.24a2,2,0,0,0-.48-1.45,2,2,0,0,0-1.6-.54H0v6.21H1.16v-2.22h.93a2.1,2.1,0,0,0,1.51-.45A1.93,1.93,0,0,0,4.17,915.24Zm-1.16,0c0,.68-.26.94-.92.94H1.16V914.3h.93C2.75,914.3,3,914.57,3,915.24Z"/><path class="cls-2" d="M7.44,917.24A2.08,2.08,0,0,0,9,916.79a1.93,1.93,0,0,0,.57-1.55A2,2,0,0,0,9,913.79a2,2,0,0,0-1.6-.54H5.35v6.21H6.52v-2.22Zm0-1.06H6.51V914.3h.93c.66,0,.92.27.92.94S8.1,916.18,7.44,916.18Z"/><polygon class="cls-2" points="13.07 919.46 13.07 914.31 14.71 914.31 14.71 913.25 10.26 913.25 10.26 914.31 11.91 914.31 11.91 919.46 13.07 919.46"/><polygon class="cls-2" points="16.53 919.46 17.71 917.3 18.95 919.46 20.25 919.46 18.44 916.3 20.15 913.25 18.87 913.25 17.8 915.2 16.69 913.25 15.39 913.25 17.07 916.21 15.26 919.46 16.53 919.46"/><path class="cls-2" d="M24.11,936.53l-5.95-5.95a2,2,0,0,0-1.39-.58h-10a3.44,3.44,0,0,0-3.44,3.44v7.28h1v-7.28A2.44,2.44,0,0,1,6.81,931h10l.11,0v6.79h6.79s0,.07,0,.11V955a1,1,0,0,1-1,1H5.34a1,1,0,0,1-1-1v-3.4h-1V955a2,2,0,0,0,2,2H22.71a2,2,0,0,0,2-2v-17.1A2,2,0,0,0,24.11,936.53Zm-6.23.28v-5.1l5.1,5.1Z"/><polygon class="cls-2" points="4.44 943.25 0 943.25 0 944.31 1.65 944.31 1.65 949.46 2.81 949.46 2.81 944.31 4.44 944.31 4.44 943.25"/><polygon class="cls-2" points="6.27 949.46 7.45 947.3 8.69 949.46 9.99 949.46 8.18 946.3 9.88 943.25 8.6 943.25 7.54 945.2 6.43 943.25 5.12 943.25 6.81 946.21 4.99 949.46 6.27 949.46"/><polygon class="cls-2" points="13.37 949.46 13.37 944.31 15 944.31 15 943.25 10.56 943.25 10.56 944.31 12.21 944.31 12.21 949.46 13.37 949.46"/><path class="cls-2" d="M23.53,966.53l-6-5.95a2,2,0,0,0-1.4-.58H6.23a3.45,3.45,0,0,0-3.45,3.44v7.28h1v-7.28A2.45,2.45,0,0,1,6.23,961h10l.11,0v6.79h6.79a.45.45,0,0,1,0,.11V985a1,1,0,0,1-1,1H4.76a1,1,0,0,1-1-1v-3.4h-1V985a2,2,0,0,0,2,2H22.13a2,2,0,0,0,2-2v-17.1A2,2,0,0,0,23.53,966.53Zm-6.24.28v-5.1l5.11,5.1Z"/><polygon class="cls-2" points="4.22 975.89 4.22 979.46 5.36 979.46 5.36 973.25 4.31 973.25 2.68 976.66 1.05 973.25 0 973.25 0 979.46 1.14 979.46 1.14 975.88 2.32 978.29 3.05 978.29 4.22 975.89"/><path class="cls-2" d="M9,977.24a2.12,2.12,0,0,0,1.51-.45,2.39,2.39,0,0,0,.08-3A2,2,0,0,0,9,973.25H6.94v6.21H8.1v-2.22Zm0-1.06H8.09V974.3H9c.66,0,.91.27.91.94S9.69,976.18,9,976.18Z"/><path class="cls-2" d="M14.44,974.25c.4,0,.9.12,1,.71l0,.23,1.09-.09v-.24c-.07-1.06-.83-1.67-2.11-1.67a2.11,2.11,0,0,0-1.71.7,2.73,2.73,0,0,0-.49,1.89V977a2.8,2.8,0,0,0,.4,1.76,2.08,2.08,0,0,0,1.85.82,2.15,2.15,0,0,0,1.76-.71,2.41,2.41,0,0,0,.48-1.71V976H14.37v1h1.19v.24a1.24,1.24,0,0,1-.22.86,1,1,0,0,1-.88.37c-.68,0-1.08-.25-1.08-1.56v-1.1C13.38,974.5,13.77,974.25,14.44,974.25Z"/><path class="cls-2" d="M24.35,996.53l-6-5.95A2,2,0,0,0,17,990H7.05a3.45,3.45,0,0,0-3.45,3.44v7.28h1v-7.28A2.45,2.45,0,0,1,7.05,991H17l.11,0v6.79H23.9a.43.43,0,0,1,0,.11V1015a1,1,0,0,1-1,1H5.58a1,1,0,0,1-1-1v-3.4h-1v3.4a2,2,0,0,0,2,2H23a2,2,0,0,0,2-2v-17.1A2,2,0,0,0,24.35,996.53Zm-6.24.28v-5.1l5.11,5.1Z"/><polygon class="cls-2" points="5 1009.46 3.18 1006.3 4.89 1003.25 3.61 1003.25 2.55 1005.2 1.44 1003.25 0.13 1003.25 1.82 1006.21 0 1009.46 1.28 1009.46 2.46 1007.3 3.69 1009.46 5 1009.46"/><polygon class="cls-2" points="5.73 1003.25 5.73 1009.46 9.58 1009.46 9.58 1008.4 6.89 1008.4 6.89 1003.25 5.73 1003.25"/><path class="cls-2" d="M12.51,1008.47a1.3,1.3,0,0,1-1.19-.49l-.13-.22-.95.61.13.21a2.34,2.34,0,0,0,2.14.95c1.41,0,2.21-.68,2.21-1.86a1.56,1.56,0,0,0-.64-1.38,3,3,0,0,0-1.27-.47c-1-.27-1.12-.53-1.12-.88,0-.62.52-.71.83-.71a1.17,1.17,0,0,1,1,.39l.14.2.91-.6-.14-.21a2.1,2.1,0,0,0-1.86-.83,1.77,1.77,0,0,0-2,1.8c0,1,.53,1.54,1.82,1.87.8.19.8.19,1,.32a.63.63,0,0,1,.24.53C13.57,1008.34,13,1008.47,12.51,1008.47Z"/><path class="cls-2" d="M24.33,1026.53l-5.95-5.95A2,2,0,0,0,17,1020H7a3.44,3.44,0,0,0-3.44,3.44v7.28h1v-7.28A2.44,2.44,0,0,1,7,1021H17l.11,0v6.79h6.79s0,.07,0,.11V1045a1,1,0,0,1-1,1H5.56a1,1,0,0,1-1-1v-3.4h-1v3.4a2,2,0,0,0,2,2H22.93a2,2,0,0,0,2-2v-17.1A2,2,0,0,0,24.33,1026.53Zm-6.23.28v-5.1l5.1,5.1Z"/><path class="cls-2" d="M4.17,1035.24a2,2,0,0,0-.48-1.45,2,2,0,0,0-1.6-.54H0v6.21H1.16v-2.22h.93a2.08,2.08,0,0,0,1.51-.45A1.93,1.93,0,0,0,4.17,1035.24Zm-1.16,0c0,.68-.26,1-.92,1H1.16v-1.89h.93C2.75,1034.3,3,1034.57,3,1035.24Z"/><path class="cls-2" d="M7.47,1039.46a2.26,2.26,0,0,0,1.69-.6,2.41,2.41,0,0,0,.59-1.82v-1.36a2.41,2.41,0,0,0-.6-1.84,2.27,2.27,0,0,0-1.73-.59H5.35v6.21H7.47Zm-1-1v-4.11h.8a1.2,1.2,0,0,1,.92.27,1.6,1.6,0,0,1,.34,1.17V1037a1.59,1.59,0,0,1-.34,1.17,1.17,1.17,0,0,1-.92.27Z"/><polygon class="cls-2" points="14.98 1034.31 14.98 1033.25 11.18 1033.25 11.18 1039.46 12.34 1039.46 12.34 1036.89 14.59 1036.89 14.59 1035.83 12.34 1035.83 12.34 1034.31 14.98 1034.31"/><path class="cls-2" d="M24.32,1056.53l-5.95-6A2,2,0,0,0,17,1050H7a3.44,3.44,0,0,0-3.44,3.44v7.28h1v-7.28A2.44,2.44,0,0,1,7,1051H17l.11,0v6.79h6.79s0,.07,0,.11V1075a1,1,0,0,1-1,1H5.55a1,1,0,0,1-1-1v-3.4h-1v3.4a2,2,0,0,0,2,2H22.92a2,2,0,0,0,2-2v-17.1A2,2,0,0,0,24.32,1056.53Zm-6.23.28v-5.1l5.1,5.1Z"/><path class="cls-2" d="M4.48,1067.67a1.55,1.55,0,0,0-.65-1.38,3,3,0,0,0-1.26-.47c-1-.27-1.12-.53-1.12-.88,0-.62.52-.71.83-.71a1.14,1.14,0,0,1,1,.39l.14.2.92-.6-.14-.21a2.1,2.1,0,0,0-1.86-.83,1.77,1.77,0,0,0-2,1.8c0,1,.53,1.54,1.82,1.87.8.19.8.19,1,.32a.63.63,0,0,1,.24.53c0,.64-.58.77-1.06.77a1.3,1.3,0,0,1-1.19-.49l-.14-.22-.94.61.13.21a2.34,2.34,0,0,0,2.14,1C3.67,1069.53,4.48,1068.85,4.48,1067.67Z"/><polygon class="cls-2" points="8.05 1069.46 8.05 1064.31 9.68 1064.31 9.68 1063.25 5.24 1063.25 5.24 1064.31 6.88 1064.31 6.88 1069.46 8.05 1069.46"/><polygon class="cls-2" points="14.64 1064.31 14.64 1063.25 10.8 1063.25 10.8 1069.46 14.65 1069.46 14.65 1068.4 11.96 1068.4 11.96 1066.85 14.25 1066.85 14.25 1065.79 11.96 1065.79 11.96 1064.31 14.64 1064.31"/><path class="cls-2" d="M17.93,1067.24a2.08,2.08,0,0,0,1.51-.45,1.93,1.93,0,0,0,.57-1.55,1.8,1.8,0,0,0-2.08-2H15.84v6.21H17v-2.22Zm0-1H17v-1.89h.93c.66,0,.92.27.92.94S18.59,1066.19,17.93,1066.19Z"/><path class="cls-2" d="M24.31,1086.53l-5.95-6A2,2,0,0,0,17,1080H7a3.44,3.44,0,0,0-3.44,3.44v7.28h1v-7.28A2.44,2.44,0,0,1,7,1081H17l.11,0v6.79h6.79s0,.07,0,.11V1105a1,1,0,0,1-1,1H5.54a1,1,0,0,1-1-1v-3.4h-1v3.4a2,2,0,0,0,2,2H22.91a2,2,0,0,0,2-2v-17.1A2,2,0,0,0,24.31,1086.53Zm-6.23.28v-5.1l5.1,5.1Z"/><path class="cls-2" d="M4.17,1095.24a2,2,0,0,0-.48-1.45,2,2,0,0,0-1.6-.54H0v6.21H1.16v-2.22h.93a2.08,2.08,0,0,0,1.51-.45A1.93,1.93,0,0,0,4.17,1095.24Zm-1.16,0c0,.68-.26,1-.92,1H1.16v-1.89h.93C2.75,1094.3,3,1094.57,3,1095.24Z"/><polygon class="cls-2" points="6.5 1095.52 8.93 1099.46 9.95 1099.46 9.95 1093.25 8.81 1093.25 8.81 1097.19 6.38 1093.25 5.35 1093.25 5.35 1099.46 6.5 1099.46 6.5 1095.52"/><path class="cls-2" d="M13.6,1094.25c.4,0,.9.12,1,.71l0,.23,1.09-.08v-.25c-.06-1.06-.83-1.67-2.11-1.67a2.07,2.07,0,0,0-1.7.7,2.68,2.68,0,0,0-.5,1.89V1097a2.8,2.8,0,0,0,.4,1.76,2.08,2.08,0,0,0,1.85.82,2.17,2.17,0,0,0,1.76-.7,2.44,2.44,0,0,0,.48-1.72V1096H13.53v1h1.19v.24a1.28,1.28,0,0,1-.22.87,1,1,0,0,1-.87.36c-.69,0-1.09-.25-1.09-1.55v-1.11C12.54,1094.5,12.93,1094.25,13.6,1094.25Z"/><path class="cls-2" d="M25.13,1116.53l-5.94-6a2,2,0,0,0-1.4-.58h-10a3.45,3.45,0,0,0-3.44,3.44v7.28h1v-7.28A2.45,2.45,0,0,1,7.83,1111h10l.11,0v6.79h6.79a.43.43,0,0,1,0,.11V1135a1,1,0,0,1-1,1H6.37a1,1,0,0,1-1-1v-3.4h-1v3.4a2,2,0,0,0,2,2H23.74a2,2,0,0,0,2-2v-17.1A2,2,0,0,0,25.13,1116.53Zm-6.23.28v-5.1l5.11,5.1Z"/><polygon class="cls-2" points="3.18 1126.3 4.89 1123.25 3.61 1123.25 2.55 1125.2 1.44 1123.25 0.13 1123.25 1.82 1126.2 0 1129.46 1.28 1129.46 2.45 1127.3 3.69 1129.46 5 1129.46 3.18 1126.3"/><polygon class="cls-2" points="11.09 1129.46 11.09 1123.25 10.04 1123.25 8.41 1126.66 6.77 1123.25 5.73 1123.25 5.73 1129.46 6.87 1129.46 6.87 1125.89 8.04 1128.29 8.78 1128.29 9.95 1125.89 9.95 1129.46 11.09 1129.46"/><polygon class="cls-2" points="12.65 1123.25 12.65 1129.46 16.5 1129.46 16.5 1128.4 13.82 1128.4 13.82 1123.25 12.65 1123.25"/><path class="cls-2" d="M24.32,1146.53l-5.95-6A2,2,0,0,0,17,1140H7a3.44,3.44,0,0,0-3.44,3.44v7.28h1v-7.28A2.44,2.44,0,0,1,7,1141H17l.11,0v6.79h6.79s0,.07,0,.11V1165a1,1,0,0,1-1,1H5.55a1,1,0,0,1-1-1v-3.4h-1v3.4a2,2,0,0,0,2,2H22.92a2,2,0,0,0,2-2v-17.1A2,2,0,0,0,24.32,1146.53Zm-6.23.28v-5.1l5.1,5.1Z"/><path class="cls-2" d="M4.39,1157v-1.36a2.37,2.37,0,0,0-.59-1.84,2.39,2.39,0,0,0-1.73-.59H0v6.21H2.12a2.26,2.26,0,0,0,1.69-.6A2.37,2.37,0,0,0,4.39,1157Zm-1.16-1.3V1157a1.59,1.59,0,0,1-.34,1.17,1.17,1.17,0,0,1-.92.27H1.16v-4.11H2a1.21,1.21,0,0,1,.92.27A1.6,1.6,0,0,1,3.23,1155.74Z"/><polygon class="cls-2" points="7.7 1159.46 8.78 1155.59 9.86 1159.46 10.81 1159.46 12.38 1153.25 11.19 1153.25 10.28 1157.17 9.2 1153.25 8.35 1153.25 7.27 1157.16 6.37 1153.25 5.18 1153.25 6.74 1159.46 7.7 1159.46"/><path class="cls-2" d="M15.39,1154.25c.4,0,.9.12,1,.71l0,.23,1.1-.08,0-.25c-.06-1.06-.83-1.67-2.1-1.67a2.08,2.08,0,0,0-1.71.7,2.63,2.63,0,0,0-.5,1.89V1157a2.86,2.86,0,0,0,.4,1.76,2.08,2.08,0,0,0,1.85.82,2.16,2.16,0,0,0,1.76-.7,2.44,2.44,0,0,0,.49-1.72V1156H15.32v1h1.19v.24a1.28,1.28,0,0,1-.22.87,1,1,0,0,1-.87.36c-.69,0-1.09-.25-1.09-1.55v-1.11C14.33,1154.5,14.72,1154.25,15.39,1154.25Z"/><path class="cls-2" d="M24.88,1176.53l-5.94-6a2,2,0,0,0-1.4-.58h-10a3.45,3.45,0,0,0-3.44,3.44v7.28h1v-7.28A2.45,2.45,0,0,1,7.58,1171h10l.11,0v6.79h6.79s0,.07,0,.11V1195a1,1,0,0,1-1,1H6.12a1,1,0,0,1-1-1v-3.4h-1v3.4a2,2,0,0,0,2,2H23.49a2,2,0,0,0,2-2v-17.1A2,2,0,0,0,24.88,1176.53Zm-6.23.28v-5.1l5.11,5.1Z"/><path class="cls-2" d="M3.83,1186.29a3,3,0,0,0-1.26-.47c-1-.27-1.12-.53-1.12-.88,0-.62.52-.71.83-.71a1.14,1.14,0,0,1,1,.39l.14.2.92-.6-.14-.21a2.1,2.1,0,0,0-1.86-.83,1.77,1.77,0,0,0-2,1.8c0,1,.53,1.54,1.82,1.87.8.19.8.19,1,.32a.63.63,0,0,1,.24.53c0,.64-.58.77-1.06.77a1.3,1.3,0,0,1-1.19-.49l-.14-.22-.94.61.13.21a2.34,2.34,0,0,0,2.14,1c1.4,0,2.21-.68,2.21-1.86A1.55,1.55,0,0,0,3.83,1186.29Z"/><polygon class="cls-2" points="8.05 1189.46 8.05 1184.31 9.68 1184.31 9.68 1183.25 5.24 1183.25 5.24 1184.31 6.88 1184.31 6.88 1189.46 8.05 1189.46"/><path class="cls-2" d="M12.9,1187.24a2.08,2.08,0,0,0,1.51-.45,1.93,1.93,0,0,0,.57-1.55,1.8,1.8,0,0,0-2.08-2H10.81v6.21H12v-2.22Zm0-1H12v-1.89h.93c.66,0,.92.27.92.94S13.56,1186.19,12.9,1186.19Z"/><path class="cls-2" d="M24.32,1206.53l-5.95-6A2,2,0,0,0,17,1200H7a3.44,3.44,0,0,0-3.44,3.44v7.28h1v-7.28A2.44,2.44,0,0,1,7,1201H17l.12,0v6.79h6.79s0,.07,0,.11V1225a1,1,0,0,1-1,1H5.55a1,1,0,0,1-1-1v-3.4h-1v3.4a2,2,0,0,0,2,2H22.92a2,2,0,0,0,2-2v-17.1A2,2,0,0,0,24.32,1206.53Zm-6.23.28v-5.1l5.1,5.1Z"/><polygon class="cls-2" points="4.22 1219.46 5.36 1219.46 5.36 1213.25 4.31 1213.25 2.68 1216.66 1.05 1213.25 0 1213.25 0 1219.46 1.14 1219.46 1.14 1215.88 2.32 1218.29 3.05 1218.29 4.22 1215.89 4.22 1219.46"/><path class="cls-2" d="M9,1217.24a2.13,2.13,0,0,0,1.52-.45,2.39,2.39,0,0,0,.08-3,2,2,0,0,0-1.6-.54H6.94v6.21H8.1v-2.22Zm0-1.06H8.09v-1.88H9c.66,0,.92.27.92.94S9.68,1216.18,9,1216.18Z"/><polygon class="cls-2" points="13.67 1213.25 11.78 1217.64 11.76 1218.4 14.08 1218.4 14.08 1219.46 15.19 1219.46 15.19 1218.41 15.75 1218.41 15.75 1217.35 15.19 1217.35 15.19 1215.6 14.08 1215.6 14.08 1217.35 13.14 1217.35 14.92 1213.25 13.67 1213.25"/><path class="cls-2" d="M24.36,1236.53l-5.95-6A2,2,0,0,0,17,1230h-10a3.44,3.44,0,0,0-3.44,3.44v7.28h1v-7.28A2.44,2.44,0,0,1,7.06,1231H17l.11,0v6.79h6.79s0,.07,0,.11V1255a1,1,0,0,1-1,1H5.59a1,1,0,0,1-1-1v-3.4h-1v3.4a2,2,0,0,0,2,2H23a2,2,0,0,0,2-2v-17.1A2,2,0,0,0,24.36,1236.53Zm-6.23.28v-5.1l5.1,5.1Z"/><path class="cls-2" d="M4.39,1247v-1.36a2.37,2.37,0,0,0-.59-1.84,2.36,2.36,0,0,0-1.73-.59H0v6.21H2.11a2.27,2.27,0,0,0,1.7-.6A2.37,2.37,0,0,0,4.39,1247Zm-1.16-1.3V1247a1.59,1.59,0,0,1-.34,1.17,1.21,1.21,0,0,1-.92.27H1.16v-4.11H2a1.21,1.21,0,0,1,.92.27A1.6,1.6,0,0,1,3.23,1245.74Z"/><path class="cls-2" d="M7.94,1249.53a2.14,2.14,0,0,0,1.72-.67,2.4,2.4,0,0,0,.54-1.8v-1.41a2.55,2.55,0,0,0-.44-1.69,2.12,2.12,0,0,0-1.82-.78,2.17,2.17,0,0,0-1.72.67,2.49,2.49,0,0,0-.53,1.8v1.41a2.61,2.61,0,0,0,.44,1.69A2.11,2.11,0,0,0,7.94,1249.53ZM6.85,1247v-1.28a1.88,1.88,0,0,1,.22-1.07.93.93,0,0,1,.87-.41.92.92,0,0,1,.84.36,1.66,1.66,0,0,1,.26,1.12V1247a1.86,1.86,0,0,1-.22,1.06.93.93,0,0,1-.88.41.91.91,0,0,1-.83-.36A1.64,1.64,0,0,1,6.85,1247Z"/><path class="cls-2" d="M13.67,1244.25c.55,0,.87.24.93.71l0,.23,1.09-.08v-.25c-.06-1-.82-1.67-2-1.67a2,2,0,0,0-1.7.71,2.77,2.77,0,0,0-.47,1.87V1247a2.91,2.91,0,0,0,.38,1.75,2,2,0,0,0,1.78.83c1.25,0,2-.61,2.1-1.65l0-.23-1.1-.13,0,.24a.86.86,0,0,1-1,.71c-.66,0-1-.25-1-1.56v-1.11C12.66,1244.5,13,1244.25,13.67,1244.25Z"/><path class="cls-2" d="M24.34,1266.53l-5.95-6A2,2,0,0,0,17,1260H7a3.44,3.44,0,0,0-3.44,3.44v7.28h1v-7.28A2.44,2.44,0,0,1,7,1261H17l.12,0v6.79H23.9s0,.07,0,.11V1285a1,1,0,0,1-1,1H5.57a1,1,0,0,1-1-1v-3.4h-1v3.4a2,2,0,0,0,2,2H22.94a2,2,0,0,0,2-2v-17.1A2,2,0,0,0,24.34,1266.53Zm-6.23.28v-5.1l5.1,5.1Z"/><path class="cls-2" d="M4.39,1277v-1.36a2.37,2.37,0,0,0-.59-1.84,2.37,2.37,0,0,0-1.73-.59H0v6.21H2.11a2.27,2.27,0,0,0,1.7-.6A2.37,2.37,0,0,0,4.39,1277Zm-1.16-1.3V1277a1.59,1.59,0,0,1-.34,1.17,1.25,1.25,0,0,1-.92.27H1.16v-4.11H2a1.21,1.21,0,0,1,.92.27A1.6,1.6,0,0,1,3.23,1275.74Z"/><polygon class="cls-2" points="6.19 1279.46 7.37 1277.3 8.61 1279.46 9.91 1279.46 8.1 1276.3 9.8 1273.25 8.52 1273.25 7.46 1275.2 6.35 1273.25 5.04 1273.25 6.73 1276.2 4.91 1279.46 6.19 1279.46"/><polygon class="cls-2" points="14.45 1274.31 14.45 1273.25 10.64 1273.25 10.64 1279.46 11.8 1279.46 11.8 1276.89 14.05 1276.89 14.05 1275.83 11.8 1275.83 11.8 1274.31 14.45 1274.31"/><path class="cls-2" d="M24.28,1296.53l-6-6a2,2,0,0,0-1.4-.58H7a3.45,3.45,0,0,0-3.45,3.44v7.28h1v-7.28A2.45,2.45,0,0,1,7,1291h10l.11,0v6.79h6.79a.43.43,0,0,1,0,.11V1315a1,1,0,0,1-1,1H5.51a1,1,0,0,1-1-1v-3.4h-1v3.4a2,2,0,0,0,2,2H22.88a2,2,0,0,0,2-2v-17.1A2,2,0,0,0,24.28,1296.53Zm-6.24.28v-5.1l5.11,5.1Z"/><polygon class="cls-2" points="4.22 1309.46 5.36 1309.46 5.36 1303.25 4.31 1303.25 2.68 1306.66 1.05 1303.25 0 1303.25 0 1309.46 1.14 1309.46 1.14 1305.89 2.32 1308.29 3.05 1308.29 4.22 1305.89 4.22 1309.46"/><path class="cls-2" d="M8.63,1308.47a1.3,1.3,0,0,1-1.19-.49l-.13-.22-.95.61.13.21a2.34,2.34,0,0,0,2.14,1c1.41,0,2.21-.68,2.21-1.86a1.56,1.56,0,0,0-.64-1.38,3,3,0,0,0-1.27-.47c-1-.27-1.12-.53-1.12-.88,0-.62.52-.71.83-.71a1.17,1.17,0,0,1,1,.39l.14.2.91-.6-.14-.21a2.09,2.09,0,0,0-1.85-.83,1.77,1.77,0,0,0-2,1.8c0,1,.53,1.54,1.82,1.87.8.19.8.19,1,.32a.62.62,0,0,1,.23.53C9.69,1308.34,9.12,1308.47,8.63,1308.47Z"/><path class="cls-2" d="M14.18,1304.25c.41,0,.9.12,1,.71l0,.23,1.1-.08,0-.25c-.06-1.06-.83-1.67-2.1-1.67a2.08,2.08,0,0,0-1.71.7,2.68,2.68,0,0,0-.5,1.89V1307a2.86,2.86,0,0,0,.4,1.76,2.08,2.08,0,0,0,1.86.82,2.18,2.18,0,0,0,1.76-.7,2.51,2.51,0,0,0,.48-1.72V1306H14.11v1H15.3v.24a1.24,1.24,0,0,1-.22.86,1,1,0,0,1-.87.37c-.69,0-1.09-.25-1.09-1.55v-1.11C13.12,1304.5,13.51,1304.25,14.18,1304.25Z"/><path class="cls-2" d="M24.26,1326.53l-5.94-6a2,2,0,0,0-1.4-.58H7a3.45,3.45,0,0,0-3.44,3.44v7.28h1v-7.28A2.45,2.45,0,0,1,7,1321h10l.11,0v6.79h6.79a.43.43,0,0,1,0,.11V1345a1,1,0,0,1-1,1H5.5a1,1,0,0,1-1-1v-3.4h-1v3.4a2,2,0,0,0,2,2H22.87a2,2,0,0,0,2-2v-17.1A2,2,0,0,0,24.26,1326.53Zm-6.23.28v-5.1l5.11,5.1Z"/><polygon class="cls-2" points="4.01 1338.4 1.42 1338.4 3.88 1334.04 3.88 1333.25 0.14 1333.25 0.14 1334.31 2.46 1334.31 0 1338.67 0 1339.46 4.01 1339.46 4.01 1338.4"/><rect class="cls-2" x="5.23" y="1333.25" width="1.16" height="6.21"/><path class="cls-2" d="M10.06,1337.24a2.1,2.1,0,0,0,1.51-.45,1.93,1.93,0,0,0,.57-1.55,2,2,0,0,0-.48-1.45,2,2,0,0,0-1.6-.54H8v6.21H9.13v-2.22Zm0-1H9.12v-1.89h.94c.66,0,.91.27.91.94S10.72,1336.19,10.06,1336.19Z"/><path class="cls-2" d="M23.84,1356.53l-5.95-6a2,2,0,0,0-1.39-.58h-10a3.44,3.44,0,0,0-3.44,3.44v7.28h1v-7.28A2.44,2.44,0,0,1,6.54,1351h10l.11,0v6.79H23.4s0,.07,0,.11V1375a1,1,0,0,1-1,1H5.07a1,1,0,0,1-1-1v-3.4h-1v3.4a2,2,0,0,0,2,2H22.44a2,2,0,0,0,2-2v-17.1A2,2,0,0,0,23.84,1356.53Zm-6.23.28v-5.1l5.1,5.1Z"/><path class="cls-2" d="M4.34,1367.67a2.06,2.06,0,0,0-.28-1.1,1.12,1.12,0,0,0-.32-.36,1.56,1.56,0,0,0,.49-1.23,1.77,1.77,0,0,0-.53-1.32,1.85,1.85,0,0,0-1.35-.41H0v6.21H2.46a1.81,1.81,0,0,0,1.28-.36A1.76,1.76,0,0,0,4.34,1367.67Zm-3.18-.86H2.42a.65.65,0,0,1,.51.14.88.88,0,0,1,.24.67.91.91,0,0,1-.2.63.72.72,0,0,1-.55.16H1.16Zm1.7-1.2a.77.77,0,0,1-.56.14H1.16v-1.45H2.3a.77.77,0,0,1,.53.13.76.76,0,0,1,.23.6A.84.84,0,0,1,2.86,1365.61Z"/><polygon class="cls-2" points="10.87 1369.46 10.87 1363.25 9.83 1363.25 8.19 1366.66 6.56 1363.25 5.51 1363.25 5.51 1369.46 6.65 1369.46 6.65 1365.89 7.83 1368.29 8.56 1368.29 9.73 1365.89 9.73 1369.46 10.87 1369.46"/><path class="cls-2" d="M14.54,1367.24a2.1,2.1,0,0,0,1.51-.45,1.93,1.93,0,0,0,.57-1.55,2,2,0,0,0-.49-1.45,2,2,0,0,0-1.59-.54H12.45v6.21h1.16v-2.22Zm0-1H13.6v-1.89h.94c.66,0,.91.27.91.94S15.2,1366.19,14.54,1366.19Z"/><path class="cls-2" d="M24,1386.53l-5.95-6a2,2,0,0,0-1.4-.58H6.68a3.45,3.45,0,0,0-3.45,3.44v7.28h1v-7.28A2.45,2.45,0,0,1,6.68,1381h10l.11,0v6.79h6.79a.43.43,0,0,1,0,.11V1405a1,1,0,0,1-1,1H5.21a1,1,0,0,1-1-1v-3.4h-1v3.4a2,2,0,0,0,2,2H22.58a2,2,0,0,0,2-2v-17.1A2,2,0,0,0,24,1386.53Zm-6.24.28v-5.1l5.11,5.1Z"/><path class="cls-2" d="M4.5,1397.11V1396H2.15v1H3.34v.24a1.35,1.35,0,0,1-.21.87,1,1,0,0,1-.88.36c-.69,0-1.09-.25-1.09-1.55v-1.11c0-1.31.39-1.56,1.06-1.56.41,0,.9.12,1,.71l0,.23,1.1-.08,0-.25c-.06-1.06-.83-1.67-2.1-1.67a2.08,2.08,0,0,0-1.71.7,2.68,2.68,0,0,0-.5,1.89V1397a2.86,2.86,0,0,0,.4,1.76,2.11,2.11,0,0,0,1.86.82,2.18,2.18,0,0,0,1.76-.7A2.49,2.49,0,0,0,4.5,1397.11Z"/><rect class="cls-2" x="5.84" y="1393.25" width="1.16" height="6.21"/><polygon class="cls-2" points="12.38 1394.31 12.38 1393.25 8.57 1393.25 8.57 1399.46 9.73 1399.46 9.73 1396.89 11.98 1396.89 11.98 1395.83 9.73 1395.83 9.73 1394.31 12.38 1394.31"/><path class="cls-2" d="M24.78,1416.53l-6-6a2,2,0,0,0-1.4-.58H7.48A3.44,3.44,0,0,0,4,1413.44v7.28H5v-7.28A2.44,2.44,0,0,1,7.48,1411h10l.12,0v6.79h6.79s0,.07,0,.11V1435a1,1,0,0,1-1,1H6a1,1,0,0,1-1-1v-3.4H4v3.4a2,2,0,0,0,2,2H23.38a2,2,0,0,0,2-2v-17.1A2,2,0,0,0,24.78,1416.53Zm-6.23.28v-5.1l5.1,5.1Z"/><path class="cls-2" d="M5.52,1429.46l-2.27-6.21h-1L0,1429.46H1.25l.44-1.25H3.83l.44,1.25ZM2,1427.16l.72-2.06.73,2.06Z"/><polygon class="cls-2" points="8.1 1429.46 10.17 1423.25 8.96 1423.25 7.64 1427.42 6.31 1423.25 5.11 1423.25 7.18 1429.46 8.1 1429.46"/><rect class="cls-2" x="11.12" y="1423.25" width="1.16" height="6.21"/><path class="cls-2" d="M24.52,1446.53l-5.95-6a2,2,0,0,0-1.4-.58h-10a3.44,3.44,0,0,0-3.44,3.44v7.28h1v-7.28A2.44,2.44,0,0,1,7.22,1441h10l.12,0v6.79h6.79s0,.07,0,.11V1465a1,1,0,0,1-1,1H5.75a1,1,0,0,1-1-1v-3.4h-1v3.4a2,2,0,0,0,2,2H23.12a2,2,0,0,0,2-2v-17.1A2,2,0,0,0,24.52,1446.53Zm-6.23.28v-5.1l5.1,5.1Z"/><polygon class="cls-2" points="5.63 1459.46 7.2 1453.25 6.01 1453.25 5.1 1457.17 4.02 1453.25 3.17 1453.25 2.09 1457.16 1.19 1453.25 0 1453.25 1.57 1459.46 2.52 1459.46 3.6 1455.59 4.68 1459.46 5.63 1459.46"/><polygon class="cls-2" points="13.61 1459.46 13.61 1453.25 12.56 1453.25 10.93 1456.66 9.29 1453.25 8.25 1453.25 8.25 1459.46 9.39 1459.46 9.39 1455.88 10.56 1458.29 11.3 1458.29 12.47 1455.89 12.47 1459.46 13.61 1459.46"/><polygon class="cls-2" points="19.39 1453.25 18.19 1453.25 16.86 1457.42 15.54 1453.25 14.33 1453.25 16.4 1459.46 17.32 1459.46 19.39 1453.25"/><path class="cls-2" d="M24.52,1476.53l-5.94-6a2,2,0,0,0-1.4-.58h-10a3.44,3.44,0,0,0-3.44,3.44V1495a2,2,0,0,0,2,2H23.13a2,2,0,0,0,2-2v-17.1A2,2,0,0,0,24.52,1476.53Zm-6.23-4.82,5.11,5.1H18.29ZM24.1,1495a1,1,0,0,1-1,1H5.76a1,1,0,0,1-1-1v-21.58A2.45,2.45,0,0,1,7.22,1471h10l.11,0v6.79h6.79s0,.07,0,.11Z"/><path class="cls-3" d="M24.35,1506.53l-6-6A2,2,0,0,0,17,1500H7.05a3.45,3.45,0,0,0-3.45,3.44v7.28h1v-7.28A2.45,2.45,0,0,1,7.05,1501H17l.11,0v6.79H23.9a.45.45,0,0,1,0,.11V1525a1,1,0,0,1-1,1H5.58a1,1,0,0,1-1-1v-3.4h-1v3.4a2,2,0,0,0,2,2H23a2,2,0,0,0,2-2v-17.1A2,2,0,0,0,24.35,1506.53Zm-6.24.28v-5.1l5.11,5.1Z"/><polygon class="cls-3" points="5 1519.46 3.19 1516.3 4.89 1513.25 3.61 1513.25 2.55 1515.2 1.44 1513.25 0.13 1513.25 1.82 1516.2 0 1519.46 1.28 1519.46 2.46 1517.3 3.7 1519.46 5 1519.46"/><polygon class="cls-3" points="5.73 1513.25 5.73 1519.46 9.58 1519.46 9.58 1518.4 6.89 1518.4 6.89 1513.25 5.73 1513.25"/><path class="cls-3" d="M12.51,1518.47a1.3,1.3,0,0,1-1.19-.49l-.13-.22-.95.61.13.21a2.34,2.34,0,0,0,2.14,1c1.41,0,2.21-.68,2.21-1.86a1.56,1.56,0,0,0-.64-1.38,3,3,0,0,0-1.27-.47c-1-.27-1.12-.53-1.12-.88,0-.62.52-.71.83-.71a1.17,1.17,0,0,1,1,.39l.14.2.91-.6-.14-.21a2.1,2.1,0,0,0-1.86-.83,1.77,1.77,0,0,0-2,1.8c0,1,.53,1.54,1.82,1.87.8.19.8.19,1,.32a.65.65,0,0,1,.23.53C13.57,1518.34,13,1518.47,12.51,1518.47Z"/><polygon class="cls-3" points="16.3 1519.46 17.48 1517.3 18.72 1519.46 20.02 1519.46 18.21 1516.3 19.91 1513.25 18.64 1513.25 17.57 1515.2 16.46 1513.25 15.15 1513.25 16.84 1516.2 15.02 1519.46 16.3 1519.46"/><path class="cls-3" d="M24.4,1536.53l-5.95-6a2,2,0,0,0-1.4-.58H7.1a3.45,3.45,0,0,0-3.45,3.44v7.28h1v-7.28A2.45,2.45,0,0,1,7.1,1531h10l.11,0v6.79H24a.45.45,0,0,1,0,.11V1555a1,1,0,0,1-1,1H5.63a1,1,0,0,1-1-1v-3.4h-1v3.4a2,2,0,0,0,2,2H23a2,2,0,0,0,2-2v-17.1A2,2,0,0,0,24.4,1536.53Zm-6.24.28v-5.1l5.11,5.1Z"/><path class="cls-3" d="M4.39,1547v-1.36a2.37,2.37,0,0,0-.59-1.84,2.32,2.32,0,0,0-1.73-.59H0v6.21H2.11a2.27,2.27,0,0,0,1.7-.6A2.37,2.37,0,0,0,4.39,1547Zm-1.16-1.3V1547a1.59,1.59,0,0,1-.34,1.17,1.21,1.21,0,0,1-.92.27H1.16v-4.11H2a1.3,1.3,0,0,1,.92.27A1.6,1.6,0,0,1,3.23,1545.74Z"/><path class="cls-3" d="M7.94,1549.53a2.14,2.14,0,0,0,1.72-.67,2.4,2.4,0,0,0,.54-1.8v-1.41a2.55,2.55,0,0,0-.44-1.69,2.12,2.12,0,0,0-1.82-.78,2.17,2.17,0,0,0-1.72.67,2.49,2.49,0,0,0-.53,1.8v1.41a2.61,2.61,0,0,0,.44,1.69A2.11,2.11,0,0,0,7.94,1549.53ZM6.85,1547v-1.28a1.88,1.88,0,0,1,.22-1.07.93.93,0,0,1,.87-.41.94.94,0,0,1,.84.36,1.66,1.66,0,0,1,.26,1.12V1547a1.86,1.86,0,0,1-.22,1.06.93.93,0,0,1-.88.41.91.91,0,0,1-.83-.36A1.64,1.64,0,0,1,6.85,1547Z"/><path class="cls-3" d="M13.67,1544.25c.55,0,.87.24.93.71l0,.23,1.09-.08v-.25c-.06-1-.82-1.67-2-1.67a2,2,0,0,0-1.7.71,2.77,2.77,0,0,0-.47,1.87V1547a2.91,2.91,0,0,0,.38,1.75,2,2,0,0,0,1.78.83c1.25,0,2-.61,2.1-1.65l0-.23-1.1-.13,0,.24a.86.86,0,0,1-1,.71c-.66,0-1-.25-1-1.56v-1.11C12.66,1544.5,13,1544.25,13.67,1544.25Z"/><polygon class="cls-3" points="17.55 1549.46 18.73 1547.3 19.97 1549.46 21.27 1549.46 19.46 1546.3 21.16 1543.25 19.88 1543.25 18.82 1545.2 17.71 1543.25 16.4 1543.25 18.09 1546.2 16.27 1549.46 17.55 1549.46"/><path class="cls-3" d="M24.34,1566.53l-5.95-6A2,2,0,0,0,17,1560H7a3.44,3.44,0,0,0-3.44,3.44v7.28h1v-7.28A2.44,2.44,0,0,1,7,1561H17l.12,0v6.79H23.9s0,.07,0,.11V1585a1,1,0,0,1-1,1H5.57a1,1,0,0,1-1-1v-3.4h-1v3.4a2,2,0,0,0,2,2H22.94a2,2,0,0,0,2-2v-17.1A2,2,0,0,0,24.34,1566.53Zm-6.23.28v-5.1l5.1,5.1Z"/><rect class="cls-3" y="1573.25" width="1.16" height="6.21"/><path class="cls-3" d="M6.61,1578.83a2.44,2.44,0,0,0,.48-1.72V1576H4.74v1H5.93v.24a1.29,1.29,0,0,1-.21.87,1,1,0,0,1-.88.36c-.69,0-1.08-.25-1.08-1.55v-1.11c0-1.31.39-1.56,1.06-1.56.4,0,.89.12,1,.71l0,.23,1.09-.08v-.25c-.07-1.06-.84-1.67-2.11-1.67a2.08,2.08,0,0,0-1.71.7,2.68,2.68,0,0,0-.5,1.89V1577a2.86,2.86,0,0,0,.4,1.76,2.11,2.11,0,0,0,1.86.82A2.17,2.17,0,0,0,6.61,1578.83Z"/><polygon class="cls-3" points="12.27 1574.31 12.27 1573.25 8.43 1573.25 8.43 1579.46 12.27 1579.46 12.27 1578.4 9.59 1578.4 9.59 1576.85 11.87 1576.85 11.87 1575.79 9.59 1575.79 9.59 1574.31 12.27 1574.31"/><path class="cls-3" d="M15.39,1578.47a1.32,1.32,0,0,1-1.19-.49l-.13-.22-1,.61.13.21a2.34,2.34,0,0,0,2.14,1c1.41,0,2.21-.68,2.21-1.86a1.56,1.56,0,0,0-.64-1.38,3,3,0,0,0-1.26-.47c-1-.27-1.13-.53-1.13-.88,0-.62.52-.71.83-.71a1.17,1.17,0,0,1,1,.39l.14.2.91-.6-.14-.21a2.09,2.09,0,0,0-1.85-.83,1.77,1.77,0,0,0-2,1.8c0,1,.53,1.54,1.83,1.87.79.19.79.19,1,.32a.63.63,0,0,1,.24.53C16.46,1578.34,15.88,1578.47,15.39,1578.47Z"/><path class="cls-3" d="M24.52,1596.53l-5.94-6a2,2,0,0,0-1.4-.58h-10a3.45,3.45,0,0,0-3.44,3.44v7.28h1v-7.28A2.45,2.45,0,0,1,7.22,1591h10l.11,0v6.79h6.79s0,.07,0,.11V1615a1,1,0,0,1-1,1H5.76a1,1,0,0,1-1-1v-3.4h-1v3.4a2,2,0,0,0,2,2H23.13a2,2,0,0,0,2-2v-17.1A2,2,0,0,0,24.52,1596.53Zm-6.23.28v-5.1l5.11,5.1Z"/><path class="cls-3" d="M2.43,1607a3.57,3.57,0,0,1-.08,1,.61.61,0,0,1-.63.43,1.13,1.13,0,0,1-.83-.37l-.2-.2-.69.86.17.16a2.21,2.21,0,0,0,1.59.61,1.64,1.64,0,0,0,1.59-.83,3.36,3.36,0,0,0,.24-1.72v-3.73H2.43Z"/><path class="cls-3" d="M6.29,1607.24h.92a2.08,2.08,0,0,0,1.51-.45,1.93,1.93,0,0,0,.57-1.55,2,2,0,0,0-.48-1.45,2,2,0,0,0-1.6-.54H5.12v6.21H6.29Zm.92-1H6.28v-1.89h.93c.66,0,.92.27.92.94S7.87,1606.19,7.21,1606.19Z"/><path class="cls-3" d="M12.63,1604.25c.4,0,.9.12,1,.71l0,.23,1.09-.08v-.25c-.07-1.06-.83-1.67-2.11-1.67a2.08,2.08,0,0,0-1.71.7,2.68,2.68,0,0,0-.5,1.89V1607a2.86,2.86,0,0,0,.4,1.76,2.11,2.11,0,0,0,1.86.82,2.17,2.17,0,0,0,1.76-.7,2.44,2.44,0,0,0,.48-1.72V1606H12.55v1h1.2v.24a1.28,1.28,0,0,1-.22.87,1,1,0,0,1-.88.36c-.69,0-1.08-.25-1.08-1.55v-1.11C11.57,1604.5,12,1604.25,12.63,1604.25Z"/><path class="cls-3" d="M23.52,1626.53l-5.95-6a2,2,0,0,0-1.39-.58h-10a3.44,3.44,0,0,0-3.44,3.44v7.28h1v-7.28A2.44,2.44,0,0,1,6.22,1621h10l.11,0v6.79h6.79s0,.07,0,.11V1645a1,1,0,0,1-1,1H4.75a1,1,0,0,1-1-1v-3.4h-1v3.4a2,2,0,0,0,2,2H22.12a2,2,0,0,0,2-2v-17.1A2,2,0,0,0,23.52,1626.53Zm-6.23.28v-5.1l5.1,5.1Z"/><path class="cls-3" d="M4.17,1635.24a2,2,0,0,0-.48-1.45,2,2,0,0,0-1.6-.54H0v6.21H1.16v-2.22h.93a2.08,2.08,0,0,0,1.51-.45A1.93,1.93,0,0,0,4.17,1635.24Zm-1.16,0c0,.68-.26,1-.92,1H1.16v-1.89h.93C2.75,1634.3,3,1634.57,3,1635.24Z"/><path class="cls-3" d="M7.44,1637.24a2.08,2.08,0,0,0,1.51-.45,1.93,1.93,0,0,0,.57-1.55,2,2,0,0,0-.48-1.45,2,2,0,0,0-1.6-.54H5.35v6.21H6.52v-2.22Zm0-1H6.51v-1.89h.93c.66,0,.92.27.92.94S8.1,1636.19,7.44,1636.19Z"/><polygon class="cls-3" points="13.07 1639.46 13.07 1634.31 14.71 1634.31 14.71 1633.25 10.27 1633.25 10.27 1634.31 11.91 1634.31 11.91 1639.46 13.07 1639.46"/><path class="cls-3" d="M23.52,1656.53l-5.95-6a2,2,0,0,0-1.4-.58h-10a3.44,3.44,0,0,0-3.44,3.44v7.28h1v-7.28A2.44,2.44,0,0,1,6.22,1651h10l.12,0v6.79h6.79s0,.07,0,.11V1675a1,1,0,0,1-1,1H4.75a1,1,0,0,1-1-1v-3.4h-1v3.4a2,2,0,0,0,2,2H22.12a2,2,0,0,0,2-2v-17.1A2,2,0,0,0,23.52,1656.53Zm-6.23.28v-5.1l5.1,5.1Z"/><path class="cls-3" d="M4.17,1665.24a2,2,0,0,0-.48-1.45,2,2,0,0,0-1.6-.54H0v6.21H1.16v-2.22h.93a2.1,2.1,0,0,0,1.51-.45A1.93,1.93,0,0,0,4.17,1665.24Zm-1.16,0c0,.68-.26.94-.92.94H1.16v-1.88h.93C2.75,1664.3,3,1664.57,3,1665.24Z"/><path class="cls-3" d="M7.44,1667.24a2.08,2.08,0,0,0,1.51-.45,1.93,1.93,0,0,0,.57-1.55,2,2,0,0,0-.48-1.45,2,2,0,0,0-1.6-.54H5.35v6.21H6.52v-2.22Zm0-1.06H6.51v-1.88h.93c.66,0,.92.27.92.94S8.1,1666.18,7.44,1666.18Z"/><polygon class="cls-3" points="13.07 1669.46 13.07 1664.31 14.71 1664.31 14.71 1663.25 10.26 1663.25 10.26 1664.31 11.91 1664.31 11.91 1669.46 13.07 1669.46"/><polygon class="cls-3" points="16.53 1669.46 17.71 1667.3 18.95 1669.46 20.25 1669.46 18.44 1666.3 20.15 1663.25 18.87 1663.25 17.8 1665.2 16.69 1663.25 15.39 1663.25 17.07 1666.2 15.26 1669.46 16.53 1669.46"/><path class="cls-3" d="M24.11,1686.53l-5.95-6a2,2,0,0,0-1.39-.58h-10a3.44,3.44,0,0,0-3.44,3.44v7.28h1v-7.28A2.44,2.44,0,0,1,6.81,1681h10l.11,0v6.79h6.79s0,.07,0,.11V1705a1,1,0,0,1-1,1H5.34a1,1,0,0,1-1-1v-3.4h-1v3.4a2,2,0,0,0,2,2H22.71a2,2,0,0,0,2-2v-17.1A2,2,0,0,0,24.11,1686.53Zm-6.23.28v-5.1l5.1,5.1Z"/><polygon class="cls-3" points="4.44 1693.25 0 1693.25 0 1694.31 1.65 1694.31 1.65 1699.46 2.81 1699.46 2.81 1694.31 4.44 1694.31 4.44 1693.25"/><polygon class="cls-3" points="6.27 1699.46 7.45 1697.3 8.69 1699.46 9.99 1699.46 8.18 1696.3 9.88 1693.25 8.6 1693.25 7.54 1695.2 6.43 1693.25 5.12 1693.25 6.81 1696.2 4.99 1699.46 6.27 1699.46"/><polygon class="cls-3" points="13.37 1699.46 13.37 1694.31 15 1694.31 15 1693.25 10.56 1693.25 10.56 1694.31 12.21 1694.31 12.21 1699.46 13.37 1699.46"/><path class="cls-3" d="M23.53,1716.53l-6-6a2,2,0,0,0-1.4-.58H6.23a3.45,3.45,0,0,0-3.45,3.44v7.28h1v-7.28A2.45,2.45,0,0,1,6.23,1711h10l.11,0v6.79h6.79a.45.45,0,0,1,0,.11V1735a1,1,0,0,1-1,1H4.76a1,1,0,0,1-1-1v-3.4h-1v3.4a2,2,0,0,0,2,2H22.13a2,2,0,0,0,2-2v-17.1A2,2,0,0,0,23.53,1716.53Zm-6.24.28v-5.1l5.11,5.1Z"/><polygon class="cls-3" points="4.22 1725.89 4.22 1729.46 5.36 1729.46 5.36 1723.25 4.31 1723.25 2.68 1726.66 1.05 1723.25 0 1723.25 0 1729.46 1.14 1729.46 1.14 1725.88 2.32 1728.29 3.05 1728.29 4.22 1725.89"/><path class="cls-3" d="M9,1727.24a2.12,2.12,0,0,0,1.51-.45,2.39,2.39,0,0,0,.08-3,2,2,0,0,0-1.59-.54H6.94v6.21H8.1v-2.22Zm0-1.06H8.09v-1.88H9c.66,0,.91.27.91.94S9.69,1726.18,9,1726.18Z"/><path class="cls-3" d="M14.44,1724.25c.4,0,.9.12,1,.71l0,.23,1.09-.09v-.24c-.07-1.06-.83-1.67-2.11-1.67a2.11,2.11,0,0,0-1.71.7,2.73,2.73,0,0,0-.49,1.89V1727a2.8,2.8,0,0,0,.4,1.76,2.08,2.08,0,0,0,1.85.82,2.15,2.15,0,0,0,1.76-.71,2.41,2.41,0,0,0,.48-1.71V1726H14.37v1h1.19v.24a1.24,1.24,0,0,1-.22.86,1,1,0,0,1-.88.37c-.68,0-1.08-.25-1.08-1.56v-1.1C13.38,1724.5,13.77,1724.25,14.44,1724.25Z"/><path class="cls-3" d="M24.35,1746.53l-6-6A2,2,0,0,0,17,1740H7.05a3.45,3.45,0,0,0-3.45,3.44v7.28h1v-7.28A2.45,2.45,0,0,1,7.05,1741H17l.11,0v6.79H23.9a.43.43,0,0,1,0,.11V1765a1,1,0,0,1-1,1H5.58a1,1,0,0,1-1-1v-3.4h-1v3.4a2,2,0,0,0,2,2H23a2,2,0,0,0,2-2v-17.1A2,2,0,0,0,24.35,1746.53Zm-6.24.28v-5.1l5.11,5.1Z"/><polygon class="cls-3" points="5 1759.46 3.18 1756.3 4.89 1753.25 3.61 1753.25 2.55 1755.2 1.44 1753.25 0.13 1753.25 1.82 1756.2 0 1759.46 1.28 1759.46 2.46 1757.3 3.69 1759.46 5 1759.46"/><polygon class="cls-3" points="5.73 1753.25 5.73 1759.46 9.58 1759.46 9.58 1758.4 6.89 1758.4 6.89 1753.25 5.73 1753.25"/><path class="cls-3" d="M12.51,1758.47a1.3,1.3,0,0,1-1.19-.49l-.13-.22-.95.61.13.21a2.34,2.34,0,0,0,2.14,1c1.41,0,2.21-.68,2.21-1.86a1.56,1.56,0,0,0-.64-1.38,3,3,0,0,0-1.27-.47c-1-.27-1.12-.53-1.12-.88,0-.62.52-.71.83-.71a1.17,1.17,0,0,1,1,.39l.14.2.91-.6-.14-.21a2.1,2.1,0,0,0-1.86-.83,1.77,1.77,0,0,0-2,1.8c0,1,.53,1.54,1.82,1.87.8.19.8.19,1,.32a.63.63,0,0,1,.24.53C13.57,1758.34,13,1758.47,12.51,1758.47Z"/><path class="cls-3" d="M24.33,1776.53l-5.95-6A2,2,0,0,0,17,1770H7a3.44,3.44,0,0,0-3.44,3.44v7.28h1v-7.28A2.44,2.44,0,0,1,7,1771H17l.11,0v6.79h6.79s0,.07,0,.11V1795a1,1,0,0,1-1,1H5.56a1,1,0,0,1-1-1v-3.4h-1v3.4a2,2,0,0,0,2,2H22.93a2,2,0,0,0,2-2v-17.1A2,2,0,0,0,24.33,1776.53Zm-6.23.28v-5.1l5.1,5.1Z"/><path class="cls-3" d="M4.17,1785.24a2,2,0,0,0-.48-1.45,2,2,0,0,0-1.6-.54H0v6.21H1.16v-2.22h.93a2.08,2.08,0,0,0,1.51-.45A1.93,1.93,0,0,0,4.17,1785.24Zm-1.16,0c0,.68-.26,1-.92,1H1.16v-1.89h.93C2.75,1784.3,3,1784.57,3,1785.24Z"/><path class="cls-3" d="M7.47,1789.46a2.26,2.26,0,0,0,1.69-.6,2.41,2.41,0,0,0,.59-1.82v-1.36a2.41,2.41,0,0,0-.6-1.84,2.27,2.27,0,0,0-1.73-.59H5.35v6.21H7.47Zm-1-1v-4.11h.8a1.2,1.2,0,0,1,.92.27,1.6,1.6,0,0,1,.34,1.17V1787a1.59,1.59,0,0,1-.34,1.17,1.17,1.17,0,0,1-.92.27Z"/><polygon class="cls-3" points="14.98 1784.31 14.98 1783.25 11.18 1783.25 11.18 1789.46 12.34 1789.46 12.34 1786.89 14.59 1786.89 14.59 1785.83 12.34 1785.83 12.34 1784.31 14.98 1784.31"/><path class="cls-3" d="M24.32,1806.53l-5.95-6A2,2,0,0,0,17,1800H7a3.44,3.44,0,0,0-3.44,3.44v7.28h1v-7.28A2.44,2.44,0,0,1,7,1801H17l.11,0v6.79h6.79s0,.07,0,.11V1825a1,1,0,0,1-1,1H5.55a1,1,0,0,1-1-1v-3.4h-1v3.4a2,2,0,0,0,2,2H22.92a2,2,0,0,0,2-2v-17.1A2,2,0,0,0,24.32,1806.53Zm-6.23.28v-5.1l5.1,5.1Z"/><path class="cls-3" d="M4.48,1817.67a1.55,1.55,0,0,0-.65-1.38,3,3,0,0,0-1.26-.47c-1-.27-1.12-.53-1.12-.88,0-.62.52-.71.83-.71a1.14,1.14,0,0,1,1,.39l.14.2.92-.6-.14-.21a2.1,2.1,0,0,0-1.86-.83,1.77,1.77,0,0,0-2,1.8c0,1,.53,1.54,1.82,1.87.8.19.8.19,1,.32a.63.63,0,0,1,.24.53c0,.64-.58.77-1.06.77a1.3,1.3,0,0,1-1.19-.49l-.14-.22-.94.61.13.21a2.34,2.34,0,0,0,2.14,1C3.67,1819.53,4.48,1818.85,4.48,1817.67Z"/><polygon class="cls-3" points="8.05 1819.46 8.05 1814.31 9.68 1814.31 9.68 1813.25 5.24 1813.25 5.24 1814.31 6.88 1814.31 6.88 1819.46 8.05 1819.46"/><polygon class="cls-3" points="14.64 1814.31 14.64 1813.25 10.8 1813.25 10.8 1819.46 14.65 1819.46 14.65 1818.4 11.96 1818.4 11.96 1816.85 14.25 1816.85 14.25 1815.79 11.96 1815.79 11.96 1814.31 14.64 1814.31"/><path class="cls-3" d="M17.93,1817.24a2.08,2.08,0,0,0,1.51-.45,1.93,1.93,0,0,0,.57-1.55,1.8,1.8,0,0,0-2.08-2H15.84v6.21H17v-2.22Zm0-1H17v-1.89h.93c.66,0,.92.27.92.94S18.59,1816.19,17.93,1816.19Z"/><path class="cls-3" d="M24.31,1836.53l-5.95-6A2,2,0,0,0,17,1830H7a3.44,3.44,0,0,0-3.44,3.44v7.28h1v-7.28A2.44,2.44,0,0,1,7,1831H17l.11,0v6.79h6.79s0,.07,0,.11V1855a1,1,0,0,1-1,1H5.54a1,1,0,0,1-1-1v-3.4h-1v3.4a2,2,0,0,0,2,2H22.91a2,2,0,0,0,2-2v-17.1A2,2,0,0,0,24.31,1836.53Zm-6.23.28v-5.1l5.1,5.1Z"/><path class="cls-3" d="M4.17,1845.24a2,2,0,0,0-.48-1.45,2,2,0,0,0-1.6-.54H0v6.21H1.16v-2.22h.93a2.08,2.08,0,0,0,1.51-.45A1.93,1.93,0,0,0,4.17,1845.24Zm-1.16,0c0,.68-.26,1-.92,1H1.16v-1.89h.93C2.75,1844.3,3,1844.57,3,1845.24Z"/><polygon class="cls-3" points="6.5 1845.52 8.93 1849.46 9.95 1849.46 9.95 1843.25 8.81 1843.25 8.81 1847.19 6.38 1843.25 5.35 1843.25 5.35 1849.46 6.5 1849.46 6.5 1845.52"/><path class="cls-3" d="M13.6,1844.25c.4,0,.9.12,1,.71l0,.23,1.09-.08v-.25c-.06-1.06-.83-1.67-2.11-1.67a2.07,2.07,0,0,0-1.7.7,2.68,2.68,0,0,0-.5,1.89V1847a2.8,2.8,0,0,0,.4,1.76,2.08,2.08,0,0,0,1.85.82,2.17,2.17,0,0,0,1.76-.7,2.44,2.44,0,0,0,.48-1.72V1846H13.53v1h1.19v.24a1.28,1.28,0,0,1-.22.87,1,1,0,0,1-.87.36c-.69,0-1.09-.25-1.09-1.55v-1.11C12.54,1844.5,12.93,1844.25,13.6,1844.25Z"/><path class="cls-3" d="M25.13,1866.53l-5.94-6a2,2,0,0,0-1.4-.58h-10a3.45,3.45,0,0,0-3.44,3.44v7.28h1v-7.28A2.45,2.45,0,0,1,7.83,1861h10l.11,0v6.79h6.79a.43.43,0,0,1,0,.11V1885a1,1,0,0,1-1,1H6.37a1,1,0,0,1-1-1v-3.4h-1v3.4a2,2,0,0,0,2,2H23.74a2,2,0,0,0,2-2v-17.1A2,2,0,0,0,25.13,1866.53Zm-6.23.28v-5.1l5.11,5.1Z"/><polygon class="cls-3" points="3.18 1876.3 4.89 1873.25 3.61 1873.25 2.55 1875.2 1.44 1873.25 0.13 1873.25 1.82 1876.2 0 1879.46 1.28 1879.46 2.45 1877.3 3.69 1879.46 5 1879.46 3.18 1876.3"/><polygon class="cls-3" points="11.09 1879.46 11.09 1873.25 10.04 1873.25 8.41 1876.66 6.77 1873.25 5.73 1873.25 5.73 1879.46 6.87 1879.46 6.87 1875.89 8.04 1878.29 8.78 1878.29 9.95 1875.89 9.95 1879.46 11.09 1879.46"/><polygon class="cls-3" points="12.65 1873.25 12.65 1879.46 16.5 1879.46 16.5 1878.4 13.82 1878.4 13.82 1873.25 12.65 1873.25"/><path class="cls-3" d="M24.32,1896.53l-5.95-6A2,2,0,0,0,17,1890H7a3.44,3.44,0,0,0-3.44,3.44v7.28h1v-7.28A2.44,2.44,0,0,1,7,1891H17l.11,0v6.79h6.79s0,.07,0,.11V1915a1,1,0,0,1-1,1H5.55a1,1,0,0,1-1-1v-3.4h-1v3.4a2,2,0,0,0,2,2H22.92a2,2,0,0,0,2-2v-17.1A2,2,0,0,0,24.32,1896.53Zm-6.23.28v-5.1l5.1,5.1Z"/><path class="cls-3" d="M4.39,1907v-1.36a2.37,2.37,0,0,0-.59-1.84,2.39,2.39,0,0,0-1.73-.59H0v6.21H2.12a2.26,2.26,0,0,0,1.69-.6A2.37,2.37,0,0,0,4.39,1907Zm-1.16-1.3V1907a1.59,1.59,0,0,1-.34,1.17,1.17,1.17,0,0,1-.92.27H1.16v-4.11H2a1.21,1.21,0,0,1,.92.27A1.6,1.6,0,0,1,3.23,1905.74Z"/><polygon class="cls-3" points="7.7 1909.46 8.78 1905.59 9.86 1909.46 10.81 1909.46 12.38 1903.25 11.19 1903.25 10.28 1907.17 9.2 1903.25 8.35 1903.25 7.27 1907.16 6.37 1903.25 5.18 1903.25 6.74 1909.46 7.7 1909.46"/><path class="cls-3" d="M15.39,1904.25c.4,0,.9.12,1,.71l0,.23,1.1-.08,0-.25c-.06-1.06-.83-1.67-2.1-1.67a2.08,2.08,0,0,0-1.71.7,2.63,2.63,0,0,0-.5,1.89V1907a2.86,2.86,0,0,0,.4,1.76,2.08,2.08,0,0,0,1.85.82,2.16,2.16,0,0,0,1.76-.7,2.44,2.44,0,0,0,.49-1.72V1906H15.32v1h1.19v.24a1.28,1.28,0,0,1-.22.87,1,1,0,0,1-.87.36c-.69,0-1.09-.25-1.09-1.55v-1.11C14.33,1904.5,14.72,1904.25,15.39,1904.25Z"/><path class="cls-3" d="M24.88,1926.53l-5.94-6a2,2,0,0,0-1.4-.58h-10a3.45,3.45,0,0,0-3.44,3.44v7.28h1v-7.28A2.45,2.45,0,0,1,7.58,1921h10l.11,0v6.79h6.79s0,.07,0,.11V1945a1,1,0,0,1-1,1H6.12a1,1,0,0,1-1-1v-3.4h-1v3.4a2,2,0,0,0,2,2H23.49a2,2,0,0,0,2-2v-17.1A2,2,0,0,0,24.88,1926.53Zm-6.23.28v-5.1l5.11,5.1Z"/><path class="cls-3" d="M3.83,1936.29a3,3,0,0,0-1.26-.47c-1-.27-1.12-.53-1.12-.88,0-.62.52-.71.83-.71a1.14,1.14,0,0,1,1,.39l.14.2.92-.6-.14-.21a2.1,2.1,0,0,0-1.86-.83,1.77,1.77,0,0,0-2,1.8c0,1,.53,1.54,1.82,1.87.8.19.8.19,1,.32a.63.63,0,0,1,.24.53c0,.64-.58.77-1.06.77a1.3,1.3,0,0,1-1.19-.49l-.14-.22-.94.61.13.21a2.34,2.34,0,0,0,2.14,1c1.4,0,2.21-.68,2.21-1.86A1.55,1.55,0,0,0,3.83,1936.29Z"/><polygon class="cls-3" points="8.05 1939.46 8.05 1934.31 9.68 1934.31 9.68 1933.25 5.24 1933.25 5.24 1934.31 6.88 1934.31 6.88 1939.46 8.05 1939.46"/><path class="cls-3" d="M12.9,1937.24a2.08,2.08,0,0,0,1.51-.45,1.93,1.93,0,0,0,.57-1.55,1.8,1.8,0,0,0-2.08-2H10.81v6.21H12v-2.22Zm0-1H12v-1.89h.93c.66,0,.92.27.92.94S13.56,1936.19,12.9,1936.19Z"/><path class="cls-3" d="M24.32,1956.53l-5.95-6A2,2,0,0,0,17,1950H7a3.44,3.44,0,0,0-3.44,3.44v7.28h1v-7.28A2.44,2.44,0,0,1,7,1951H17l.12,0v6.79h6.79s0,.07,0,.11V1975a1,1,0,0,1-1,1H5.55a1,1,0,0,1-1-1v-3.4h-1v3.4a2,2,0,0,0,2,2H22.92a2,2,0,0,0,2-2v-17.1A2,2,0,0,0,24.32,1956.53Zm-6.23.28v-5.1l5.1,5.1Z"/><polygon class="cls-3" points="4.22 1969.46 5.36 1969.46 5.36 1963.25 4.31 1963.25 2.68 1966.66 1.05 1963.25 0 1963.25 0 1969.46 1.14 1969.46 1.14 1965.88 2.32 1968.29 3.05 1968.29 4.22 1965.89 4.22 1969.46"/><path class="cls-3" d="M9,1967.24a2.13,2.13,0,0,0,1.52-.45,2.39,2.39,0,0,0,.08-3,2,2,0,0,0-1.6-.54H6.94v6.21H8.1v-2.22Zm0-1.06H8.09v-1.88H9c.66,0,.92.27.92.94S9.68,1966.18,9,1966.18Z"/><polygon class="cls-3" points="13.67 1963.25 11.78 1967.64 11.76 1968.4 14.08 1968.4 14.08 1969.46 15.19 1969.46 15.19 1968.41 15.75 1968.41 15.75 1967.35 15.19 1967.35 15.19 1965.6 14.08 1965.6 14.08 1967.35 13.14 1967.35 14.92 1963.25 13.67 1963.25"/><path class="cls-3" d="M24.36,1986.53l-5.95-6A2,2,0,0,0,17,1980h-10a3.44,3.44,0,0,0-3.44,3.44v7.28h1v-7.28A2.44,2.44,0,0,1,7.06,1981H17l.11,0v6.79h6.79s0,.07,0,.11V2005a1,1,0,0,1-1,1H5.59a1,1,0,0,1-1-1v-3.4h-1v3.4a2,2,0,0,0,2,2H23a2,2,0,0,0,2-2v-17.1A2,2,0,0,0,24.36,1986.53Zm-6.23.28v-5.1l5.1,5.1Z"/><path class="cls-3" d="M4.39,1997v-1.36a2.37,2.37,0,0,0-.59-1.84,2.36,2.36,0,0,0-1.73-.59H0v6.21H2.11a2.27,2.27,0,0,0,1.7-.6A2.37,2.37,0,0,0,4.39,1997Zm-1.16-1.3V1997a1.59,1.59,0,0,1-.34,1.17,1.21,1.21,0,0,1-.92.27H1.16v-4.11H2a1.21,1.21,0,0,1,.92.27A1.6,1.6,0,0,1,3.23,1995.74Z"/><path class="cls-3" d="M7.94,1999.53a2.14,2.14,0,0,0,1.72-.67,2.4,2.4,0,0,0,.54-1.8v-1.41a2.55,2.55,0,0,0-.44-1.69,2.12,2.12,0,0,0-1.82-.78,2.17,2.17,0,0,0-1.72.67,2.49,2.49,0,0,0-.53,1.8v1.41a2.61,2.61,0,0,0,.44,1.69A2.11,2.11,0,0,0,7.94,1999.53ZM6.85,1997v-1.28a1.88,1.88,0,0,1,.22-1.07.93.93,0,0,1,.87-.41.92.92,0,0,1,.84.36,1.66,1.66,0,0,1,.26,1.12V1997a1.86,1.86,0,0,1-.22,1.06.93.93,0,0,1-.88.41.91.91,0,0,1-.83-.36A1.64,1.64,0,0,1,6.85,1997Z"/><path class="cls-3" d="M13.67,1994.25c.55,0,.87.24.93.71l0,.23,1.09-.08v-.25c-.06-1-.82-1.67-2-1.67a2,2,0,0,0-1.7.71,2.77,2.77,0,0,0-.47,1.87V1997a2.91,2.91,0,0,0,.38,1.75,2,2,0,0,0,1.78.83c1.25,0,2-.61,2.1-1.65l0-.23-1.1-.13,0,.24a.86.86,0,0,1-1,.71c-.66,0-1-.25-1-1.56v-1.11C12.66,1994.5,13,1994.25,13.67,1994.25Z"/><path class="cls-3" d="M24.34,2016.53l-5.95-6A2,2,0,0,0,17,2010H7a3.44,3.44,0,0,0-3.44,3.44v7.28h1v-7.28A2.44,2.44,0,0,1,7,2011H17l.12,0v6.79H23.9s0,.07,0,.11V2035a1,1,0,0,1-1,1H5.57a1,1,0,0,1-1-1v-3.4h-1v3.4a2,2,0,0,0,2,2H22.94a2,2,0,0,0,2-2v-17.1A2,2,0,0,0,24.34,2016.53Zm-6.23.28v-5.1l5.1,5.1Z"/><path class="cls-3" d="M4.39,2027v-1.36a2.37,2.37,0,0,0-.59-1.84,2.37,2.37,0,0,0-1.73-.59H0v6.21H2.11a2.27,2.27,0,0,0,1.7-.6A2.37,2.37,0,0,0,4.39,2027Zm-1.16-1.3V2027a1.59,1.59,0,0,1-.34,1.17,1.25,1.25,0,0,1-.92.27H1.16v-4.11H2a1.21,1.21,0,0,1,.92.27A1.6,1.6,0,0,1,3.23,2025.74Z"/><polygon class="cls-3" points="6.19 2029.46 7.37 2027.3 8.61 2029.46 9.91 2029.46 8.1 2026.3 9.8 2023.25 8.52 2023.25 7.46 2025.2 6.35 2023.25 5.04 2023.25 6.73 2026.2 4.91 2029.46 6.19 2029.46"/><polygon class="cls-3" points="14.45 2024.31 14.45 2023.25 10.64 2023.25 10.64 2029.46 11.8 2029.46 11.8 2026.89 14.05 2026.89 14.05 2025.83 11.8 2025.83 11.8 2024.31 14.45 2024.31"/><path class="cls-3" d="M24.28,2046.53l-6-6a2,2,0,0,0-1.4-.58H7a3.45,3.45,0,0,0-3.45,3.44v7.28h1v-7.28A2.45,2.45,0,0,1,7,2041h10l.11,0v6.79h6.79a.43.43,0,0,1,0,.11V2065a1,1,0,0,1-1,1H5.51a1,1,0,0,1-1-1v-3.4h-1v3.4a2,2,0,0,0,2,2H22.88a2,2,0,0,0,2-2v-17.1A2,2,0,0,0,24.28,2046.53Zm-6.24.28v-5.1l5.11,5.1Z"/><polygon class="cls-3" points="4.22 2059.46 5.36 2059.46 5.36 2053.25 4.31 2053.25 2.68 2056.66 1.05 2053.25 0 2053.25 0 2059.46 1.14 2059.46 1.14 2055.89 2.32 2058.29 3.05 2058.29 4.22 2055.89 4.22 2059.46"/><path class="cls-3" d="M8.63,2058.47a1.3,1.3,0,0,1-1.19-.49l-.13-.22-.95.61.13.21a2.34,2.34,0,0,0,2.14,1c1.41,0,2.21-.68,2.21-1.86a1.56,1.56,0,0,0-.64-1.38,3,3,0,0,0-1.27-.47c-1-.27-1.12-.53-1.12-.88,0-.62.52-.71.83-.71a1.17,1.17,0,0,1,1,.39l.14.2.91-.6-.14-.21a2.09,2.09,0,0,0-1.85-.83,1.77,1.77,0,0,0-2,1.8c0,1,.53,1.54,1.82,1.87.8.19.8.19,1,.32a.62.62,0,0,1,.23.53C9.69,2058.34,9.12,2058.47,8.63,2058.47Z"/><path class="cls-3" d="M14.18,2054.25c.41,0,.9.12,1,.71l0,.23,1.1-.08,0-.25c-.06-1.06-.83-1.67-2.1-1.67a2.08,2.08,0,0,0-1.71.7,2.68,2.68,0,0,0-.5,1.89V2057a2.86,2.86,0,0,0,.4,1.76,2.08,2.08,0,0,0,1.86.82,2.18,2.18,0,0,0,1.76-.7,2.51,2.51,0,0,0,.48-1.72V2056H14.11v1H15.3v.24a1.24,1.24,0,0,1-.22.86,1,1,0,0,1-.87.37c-.69,0-1.09-.25-1.09-1.55v-1.11C13.12,2054.5,13.51,2054.25,14.18,2054.25Z"/><path class="cls-3" d="M24.26,2076.53l-5.94-6a2,2,0,0,0-1.4-.58H7a3.45,3.45,0,0,0-3.44,3.44v7.28h1v-7.28A2.45,2.45,0,0,1,7,2071h10l.11,0v6.79h6.79a.43.43,0,0,1,0,.11V2095a1,1,0,0,1-1,1H5.5a1,1,0,0,1-1-1v-3.4h-1v3.4a2,2,0,0,0,2,2H22.87a2,2,0,0,0,2-2v-17.1A2,2,0,0,0,24.26,2076.53Zm-6.23.28v-5.1l5.11,5.1Z"/><polygon class="cls-3" points="4.01 2088.4 1.42 2088.4 3.88 2084.04 3.88 2083.25 0.14 2083.25 0.14 2084.31 2.46 2084.31 0 2088.67 0 2089.46 4.01 2089.46 4.01 2088.4"/><rect class="cls-3" x="5.23" y="2083.25" width="1.16" height="6.21"/><path class="cls-3" d="M10.06,2087.24a2.1,2.1,0,0,0,1.51-.45,1.93,1.93,0,0,0,.57-1.55,2,2,0,0,0-.48-1.45,2,2,0,0,0-1.6-.54H8v6.21H9.13v-2.22Zm0-1H9.12v-1.89h.94c.66,0,.91.27.91.94S10.72,2086.19,10.06,2086.19Z"/><path class="cls-3" d="M23.84,2106.53l-5.95-6a2,2,0,0,0-1.39-.58h-10a3.44,3.44,0,0,0-3.44,3.44v7.28h1v-7.28A2.44,2.44,0,0,1,6.54,2101h10l.11,0v6.79H23.4s0,.07,0,.11V2125a1,1,0,0,1-1,1H5.07a1,1,0,0,1-1-1v-3.4h-1v3.4a2,2,0,0,0,2,2H22.44a2,2,0,0,0,2-2v-17.1A2,2,0,0,0,23.84,2106.53Zm-6.23.28v-5.1l5.1,5.1Z"/><path class="cls-3" d="M4.34,2117.67a2.06,2.06,0,0,0-.28-1.1,1.12,1.12,0,0,0-.32-.36,1.56,1.56,0,0,0,.49-1.23,1.77,1.77,0,0,0-.53-1.32,1.85,1.85,0,0,0-1.35-.41H0v6.21H2.46a1.81,1.81,0,0,0,1.28-.36A1.76,1.76,0,0,0,4.34,2117.67Zm-3.18-.86H2.42a.65.65,0,0,1,.51.14.88.88,0,0,1,.24.67.91.91,0,0,1-.2.63.72.72,0,0,1-.55.16H1.16Zm1.7-1.2a.77.77,0,0,1-.56.14H1.16v-1.45H2.3a.77.77,0,0,1,.53.13.76.76,0,0,1,.23.6A.84.84,0,0,1,2.86,2115.61Z"/><polygon class="cls-3" points="10.87 2119.46 10.87 2113.25 9.83 2113.25 8.19 2116.66 6.56 2113.25 5.51 2113.25 5.51 2119.46 6.65 2119.46 6.65 2115.89 7.83 2118.29 8.56 2118.29 9.73 2115.89 9.73 2119.46 10.87 2119.46"/><path class="cls-3" d="M14.54,2117.24a2.1,2.1,0,0,0,1.51-.45,1.93,1.93,0,0,0,.57-1.55,2,2,0,0,0-.49-1.45,2,2,0,0,0-1.59-.54H12.45v6.21h1.16v-2.22Zm0-1H13.6v-1.89h.94c.66,0,.91.27.91.94S15.2,2116.19,14.54,2116.19Z"/><path class="cls-3" d="M24,2136.53l-5.95-6a2,2,0,0,0-1.4-.58H6.68a3.45,3.45,0,0,0-3.45,3.44v7.28h1v-7.28A2.45,2.45,0,0,1,6.68,2131h10l.11,0v6.79h6.79a.43.43,0,0,1,0,.11V2155a1,1,0,0,1-1,1H5.21a1,1,0,0,1-1-1v-3.4h-1v3.4a2,2,0,0,0,2,2H22.58a2,2,0,0,0,2-2v-17.1A2,2,0,0,0,24,2136.53Zm-6.24.28v-5.1l5.11,5.1Z"/><path class="cls-3" d="M4.5,2147.11V2146H2.15v1H3.34v.24a1.35,1.35,0,0,1-.21.87,1,1,0,0,1-.88.36c-.69,0-1.09-.25-1.09-1.55v-1.11c0-1.31.39-1.56,1.06-1.56.41,0,.9.12,1,.71l0,.23,1.1-.08,0-.25c-.06-1.06-.83-1.67-2.1-1.67a2.08,2.08,0,0,0-1.71.7,2.68,2.68,0,0,0-.5,1.89V2147a2.86,2.86,0,0,0,.4,1.76,2.11,2.11,0,0,0,1.86.82,2.18,2.18,0,0,0,1.76-.7A2.49,2.49,0,0,0,4.5,2147.11Z"/><rect class="cls-3" x="5.84" y="2143.25" width="1.16" height="6.21"/><polygon class="cls-3" points="12.38 2144.31 12.38 2143.25 8.57 2143.25 8.57 2149.46 9.73 2149.46 9.73 2146.89 11.98 2146.89 11.98 2145.83 9.73 2145.83 9.73 2144.31 12.38 2144.31"/><path class="cls-3" d="M24.78,2166.53l-6-6a2,2,0,0,0-1.4-.58H7.48A3.44,3.44,0,0,0,4,2163.44v7.28H5v-7.28A2.44,2.44,0,0,1,7.48,2161h10l.12,0v6.79h6.79s0,.07,0,.11V2185a1,1,0,0,1-1,1H6a1,1,0,0,1-1-1v-3.4H4v3.4a2,2,0,0,0,2,2H23.38a2,2,0,0,0,2-2v-17.1A2,2,0,0,0,24.78,2166.53Zm-6.23.28v-5.1l5.1,5.1Z"/><path class="cls-3" d="M5.52,2179.46l-2.27-6.21h-1L0,2179.46H1.25l.44-1.25H3.83l.44,1.25ZM2,2177.16l.72-2.06.73,2.06Z"/><polygon class="cls-3" points="8.1 2179.46 10.17 2173.25 8.96 2173.25 7.64 2177.42 6.31 2173.25 5.11 2173.25 7.18 2179.46 8.1 2179.46"/><rect class="cls-3" x="11.12" y="2173.25" width="1.16" height="6.21"/><path class="cls-3" d="M24.52,2196.53l-5.95-6a2,2,0,0,0-1.4-.58h-10a3.44,3.44,0,0,0-3.44,3.44v7.28h1v-7.28A2.44,2.44,0,0,1,7.22,2191h10l.12,0v6.79h6.79s0,.07,0,.11V2215a1,1,0,0,1-1,1H5.75a1,1,0,0,1-1-1v-3.4h-1v3.4a2,2,0,0,0,2,2H23.12a2,2,0,0,0,2-2v-17.1A2,2,0,0,0,24.52,2196.53Zm-6.23.28v-5.1l5.1,5.1Z"/><polygon class="cls-3" points="5.63 2209.46 7.2 2203.25 6.01 2203.25 5.1 2207.17 4.02 2203.25 3.17 2203.25 2.09 2207.16 1.19 2203.25 0 2203.25 1.57 2209.46 2.52 2209.46 3.6 2205.59 4.68 2209.46 5.63 2209.46"/><polygon class="cls-3" points="13.61 2209.46 13.61 2203.25 12.56 2203.25 10.93 2206.66 9.29 2203.25 8.25 2203.25 8.25 2209.46 9.39 2209.46 9.39 2205.89 10.56 2208.29 11.3 2208.29 12.47 2205.89 12.47 2209.46 13.61 2209.46"/><polygon class="cls-3" points="19.39 2203.25 18.19 2203.25 16.86 2207.42 15.54 2203.25 14.33 2203.25 16.4 2209.46 17.32 2209.46 19.39 2203.25"/><path class="cls-3" d="M24.52,2226.53l-5.94-6a2,2,0,0,0-1.4-.58h-10a3.44,3.44,0,0,0-3.44,3.44V2245a2,2,0,0,0,2,2H23.13a2,2,0,0,0,2-2v-17.1A2,2,0,0,0,24.52,2226.53Zm-6.23-4.82,5.11,5.1H18.29ZM24.1,2245a1,1,0,0,1-1,1H5.76a1,1,0,0,1-1-1v-21.58A2.45,2.45,0,0,1,7.22,2221h10l.11,0v6.79h6.79s0,.07,0,.11Z"/></svg>